<?xml version="1.0" standalone="no"?>
<!DOCTYPE svg PUBLIC "-//W3C//DTD SVG 1.1//EN" "http://www.w3.org/Graphics/SVG/1.1/DTD/svg11.dtd" >
<svg>
<metadata>
Created by FontForge 20110222 at Wed Nov  6 05:56:56 2013
 By Orthosie Webhosting
Copyright (c) 2002, 2005 Parachute :, www.parachute.gr.  All rights reserved.
</metadata>
<defs>
<font id="PFDinDisplayProBold" horiz-adv-x="1818" >
  <font-face 
    font-family="PFDinDisplayProBold"
    font-weight="700"
    font-stretch="normal"
    units-per-em="1000"
    panose-1="2 0 8 6 0 0 0 2 0 4"
    ascent="750"
    descent="-250"
    x-height="494"
    cap-height="689"
    bbox="-204 -318 1760 947"
    underline-thickness="50"
    underline-position="-50"
    unicode-range="U+0020-FB05"
  />
<missing-glyph horiz-adv-x="454" 
d="M0 700h454v-700h-454v700zM335 80l-108 196l-108 -196h216zM335 620h-218l110 -195zM80 164l102 187l-102 187v-374zM373 164v373l-101 -188z" />
    <glyph glyph-name="fj" unicode="fj" horiz-adv-x="537" 
d="M478 -52q0 -72 -44 -110.5t-114 -38.5h-56v109h32q34 0 45 17t11 43v424h-149v-392h-124v392h-57v104h57v74q0 36 11.5 62t31 43.5t46.5 26t57 8.5h80v-106h-58q-24 0 -34 -13t-10 -35v-60h275v-548zM344 633q0 30 21 50.5t50 20.5t50 -20.5t21 -50.5t-21 -51t-50 -21
t-50 21t-21 51z" />
    <glyph glyph-name="ffj" unicode="ffj" horiz-adv-x="808" 
d="M750 -52q0 -72 -44 -110.5t-115 -38.5h-56v109h32q34 0 45 17t11 43v424h-149v-392h-123v392h-148v-392h-124v392h-57v104h57v52q0 36 11.5 62.5t31 43.5t46.5 25.5t57 8.5h81v-105h-59q-24 0 -34 -13.5t-10 -35.5v-38h148v72q0 36 11.5 62t31 43.5t46.5 26t57 8.5h81
v-105h-60q-24 0 -34 -13.5t-10 -35.5v-58h276v-548zM615 630q0 29 21 50t50 21t50 -21t21 -50q0 -30 -21 -51t-50 -21t-50 21t-21 51z" />
    <glyph glyph-name="ff" unicode="ff" horiz-adv-x="589" 
d="M584 392h-110v-392h-122v392h-149v-392h-124v392h-57v104h57v55q0 36 11.5 62t31 43.5t46.5 26t57 8.5h87v-105h-65q-24 0 -34 -13.5t-10 -35.5v-41h149v74q0 36 11.5 62.5t31 43.5t46 25.5t56.5 8.5h87v-105h-66q-24 0 -34 -13.5t-10 -35.5v-60h110v-104z" />
    <glyph glyph-name="fi" unicode="fi" horiz-adv-x="537" 
d="M352 0v392h-149v-392h-124v392h-57v104h57v71q0 36 11.5 62t31 43.5t46.5 26t57 8.5h82v-105h-60q-24 0 -34 -13.5t-10 -35.5v-57h275v-496h-126zM344 629q0 30 21 51t50 21t50 -21t21 -51t-21 -50.5t-50 -20.5t-50 20.5t-21 50.5z" />
    <glyph glyph-name="fl" unicode="fl" horiz-adv-x="573" 
d="M311 392h-104v-392h-124v392h-54v104h54v74q0 40 14.5 71t39.5 51t58.5 30.5t72.5 10.5q32 0 83.5 -5t129.5 -25v-544q0 -17 2.5 -27t10 -15.5t20.5 -7.5t34 -2l3 -107q-17 -3 -32 -4t-29 -1q-45 0 -71.5 10t-40.5 28.5t-18 44t-4 57.5v479q-20 5 -38 7.5t-37 2.5
q-31 0 -52.5 -16t-21.5 -51v-61h104v-104z" />
    <glyph glyph-name="ffi" unicode="ffi" horiz-adv-x="808" 
d="M623 0v392h-149v-392h-123v392h-148v-392h-124v392h-57v104h57v52q0 36 11.5 62t31 43.5t46.5 26t57 8.5h81v-105h-59q-24 0 -34 -13.5t-10 -35.5v-38h148v71q0 36 11.5 62t31 43.5t46.5 26t57 8.5h81v-105h-60q-24 0 -34 -13.5t-10 -35.5v-57h276v-496h-127zM615 629
q0 29 21 50t50 21t50 -21t21 -50q0 -30 -21 -51t-50 -21t-50 21t-21 51z" />
    <glyph glyph-name="ffl" unicode="ffl" horiz-adv-x="840" 
d="M578 392h-104v-392h-123v392h-148v-392h-124v392h-57v104h57v65q0 36 11.5 62t31 43.5t46.5 26t57 8.5h83v-105h-61q-24 0 -34 -13.5t-10 -35.5v-51h148v72q0 40 13.5 71t38.5 52t59 31.5t76 10.5q31 0 85 -6t125 -26v-542q0 -17 2.5 -27t10 -15.5t20.5 -7.5t34 -2
l3 -107q-17 -3 -32 -4t-29 -1q-45 0 -71.5 10t-40.5 28.5t-18 44t-4 57.5v479q-19 4 -37 6.5t-36 2.5q-35 0 -55.5 -17t-20.5 -55v-55h104v-104z" />
    <glyph glyph-name="ft" unicode="ft" horiz-adv-x="632" 
d="M203 393v-393h-124v393h-57v103h57v80q0 36 11.5 62t31 43.5t46.5 26t57 8.5h81v-106h-59q-24 0 -34 -13t-10 -35v-66h152l22 122h100v-122h120v-103h-120v-208q0 -44 17.5 -58.5t54.5 -14.5q16 0 34 1.5t39 3.5l13 -104q-32 -12 -65.5 -15.5t-56.5 -3.5q-48 0 -79.5 11
t-49.5 32t-25 51.5t-7 69.5v235h-149z" />
    <glyph glyph-name=".notdef" horiz-adv-x="454" 
d="M0 700h454v-700h-454v700zM335 80l-108 196l-108 -196h216zM335 620h-218l110 -195zM80 164l102 187l-102 187v-374zM373 164v373l-101 -188z" />
    <glyph glyph-name=".null" horiz-adv-x="0" 
 />
    <glyph glyph-name="nonmarkingreturn" horiz-adv-x="333" 
 />
    <glyph glyph-name="space" unicode=" " horiz-adv-x="254" 
 />
    <glyph glyph-name="exclam" unicode="!" horiz-adv-x="266" 
d="M77 207l-7 489h125l-7 -489h-111zM133 -7q-34 0 -56.5 24t-22.5 58q0 32 22.5 54.5t55.5 22.5q34 0 57 -22.5t23 -54.5q0 -33 -21 -57.5t-58 -24.5z" />
    <glyph glyph-name="quotedbl" unicode="&#x22;" horiz-adv-x="347" 
d="M195 696h101v-214h-101v214zM52 696h103v-214h-103v214z" />
    <glyph glyph-name="numbersign" unicode="#" horiz-adv-x="552" 
d="M413 298h88v-94h-101l-28 -204h-107l29 204h-82l-28 -204h-108l29 204h-82v94h96l15 102h-85v94h98l28 202h104l-27 -202h83l29 202h104l-28 -202h87v-94h-100zM224 298h84l14 102h-83z" />
    <glyph glyph-name="dollar" unicode="$" horiz-adv-x="534" 
d="M312 -103h-85v108q-57 5 -106.5 26.5t-99.5 66.5l72 96q45 -36 87.5 -54.5t88.5 -18.5q56 0 83 23.5t27 58.5q0 25 -15.5 41t-38.5 26t-49 15.5t-48 10.5q-30 6 -61.5 18t-57.5 33.5t-42.5 55t-16.5 82.5q0 39 13 72t36.5 58.5t56 42.5t71.5 24v90h85q-1 -22 -1 -43v-43
q49 -4 93.5 -21t94.5 -52l-34 -52l-34 -52q-42 31 -79 44t-75 13q-40 0 -68.5 -20.5t-28.5 -59.5q0 -19 12 -32.5t30 -23.5t39.5 -16t41.5 -10q28 -6 64 -16.5t68 -32t54 -57.5t22 -94q0 -42 -14.5 -76.5t-41 -60t-63 -41t-80.5 -20.5v-109z" />
    <glyph glyph-name="percent" unicode="%" horiz-adv-x="853" 
d="M800 111q0 -29 -13 -50t-33.5 -35.5t-46 -21.5t-51.5 -7t-52 7t-47 21.5t-34 35.5t-13 50v188q0 29 13 51t34 36.5t47 22t52 7.5q25 0 51 -7.5t46.5 -22t33.5 -36.5t13 -51v-188zM707 285q0 25 -16.5 36t-34.5 11t-34.5 -11t-16.5 -36v-160q0 -24 16.5 -34.5t34.5 -10.5
t34.5 10.5t16.5 34.5v160zM342 388q0 -29 -13 -50.5t-33.5 -36t-46.5 -21.5t-51 -7q-26 0 -52 7t-47 21.5t-34 36t-13 50.5v187q0 29 13 51t34 36.5t47 22t52 7.5q25 0 51 -7.5t46.5 -22t33.5 -36.5t13 -51v-187zM248 561q0 25 -16 36t-34 11t-34.5 -11t-16.5 -36v-160
q0 -24 16.5 -34.5t34.5 -10.5t34 10.5t16 34.5v160zM262 -17h-90l425 730h91z" />
    <glyph glyph-name="ampersand" unicode="&#x26;" horiz-adv-x="822" 
d="M767 439q0 -88 -34.5 -170.5t-96.5 -147.5q68 -60 150 -97l-49 -89q-22 8 -47.5 21.5t-50 30t-47.5 34.5t-40 36q-16 -14 -37.5 -26t-46.5 -21t-51.5 -14.5t-51.5 -5.5q-45 0 -85.5 13.5t-70.5 39.5t-47.5 63.5t-17.5 85.5q0 34 11.5 64t31.5 56t46.5 47.5t55.5 38.5
q-18 28 -28 55.5t-10 59.5q0 67 39.5 111t111.5 44q33 0 61.5 -11t49.5 -30t33 -45.5t12 -56.5q0 -29 -9.5 -53t-25.5 -44.5t-37 -37t-44 -30.5q28 -42 59.5 -84t66.5 -84q46 51 71.5 115.5t25.5 130.5q0 56 -17.5 106t-51 88t-82 60t-110.5 22q-56 0 -101.5 -16t-77.5 -44
t-49 -64.5t-17 -77.5q0 -29 7.5 -61.5t32.5 -70.5l-86 -54q-33 48 -45.5 93.5t-12.5 87.5q0 60 24 116t69 98.5t109 68t143 25.5q89 0 157.5 -30t115 -81t70.5 -119.5t24 -145.5zM451 525q0 18 -14 31t-35 13t-31.5 -16t-10.5 -36q0 -16 8 -32.5t21 -35.5q29 16 45.5 33
t16.5 43zM485 129q-17 19 -36 42.5t-37 48.5t-34 49t-27 43q-42 -23 -72 -52t-30 -67q0 -52 30.5 -78.5t76.5 -26.5q61 0 129 41z" />
    <glyph glyph-name="quotesingle" unicode="'" horiz-adv-x="261" 
d="M81 696h102v-214h-102v214z" />
    <glyph glyph-name="parenleft" unicode="(" horiz-adv-x="345" 
d="M259 -135q-41 44 -77 95t-63.5 107t-43.5 116t-16 122q0 64 15.5 124t42.5 115t62.5 104.5t75.5 93.5l73 -46q-69 -91 -103.5 -192.5t-34.5 -193.5q0 -50 9.5 -101.5t27.5 -101.5t43.5 -98t57.5 -91z" />
    <glyph glyph-name="parenright" unicode=")" horiz-adv-x="345" 
d="M311 305q0 -62 -16 -122t-43.5 -116t-64 -107t-76.5 -95l-69 53q66 87 102 189.5t36 202.5q0 92 -34.5 193.5t-103.5 192.5l72 46q40 -44 76 -93.5t63 -104.5t42.5 -115t15.5 -124z" />
    <glyph glyph-name="asterisk" unicode="*" horiz-adv-x="430" 
d="M357 416q-2 -2 -14 -10.5t-25.5 -18t-25 -18t-14.5 -10.5l-60 103l-63 -103l-78 57l80 90l-113 27l27 90l111 -47l-12 120h98l-13 -120l111 47l27 -90l-115 -27z" />
    <glyph glyph-name="plus" unicode="+" horiz-adv-x="534" 
d="M319 247v-188h-105v188h-192v99h192v186h105v-186h192v-99h-192z" />
    <glyph glyph-name="comma" unicode="," horiz-adv-x="293" 
d="M66 -97q26 19 42 44t19 49q-23 5 -39.5 24.5t-16.5 49.5q0 32 24 54.5t56 22.5q42 0 65 -29t23 -72q0 -30 -9.5 -60t-26.5 -56.5t-40.5 -49t-52.5 -37.5z" />
    <glyph glyph-name="hyphen" unicode="-" horiz-adv-x="424" 
d="M48 204v113h327v-113h-327z" />
    <glyph glyph-name="period" unicode="." horiz-adv-x="288" 
d="M146 -7q-34 0 -56.5 24t-22.5 58q0 32 22.5 54.5t55.5 22.5q34 0 56.5 -22.5t22.5 -54.5q0 -33 -21 -57.5t-57 -24.5z" />
    <glyph glyph-name="slash" unicode="/" horiz-adv-x="351" 
d="M90 -42h-101l252 767h102z" />
    <glyph glyph-name="zero" unicode="0" horiz-adv-x="534" 
d="M485 178q0 -47 -20 -81.5t-51 -57t-70 -33.5t-76 -11q-38 0 -76.5 11t-69.5 33.5t-51 57t-20 81.5v332q0 47 20 82t51.5 58t70 34.5t75.5 11.5t76 -11.5t70 -34.5t51 -58t20 -82v-332zM357 484q0 24 -8 41t-21 27.5t-28.5 15.5t-31.5 5q-15 0 -31 -5t-29 -15.5t-21 -27.5
t-8 -41v-280q0 -24 8 -41t21 -27.5t29 -15t31 -4.5q16 0 31.5 4.5t28.5 15t21 27.5t8 41v280z" />
    <glyph glyph-name="one" unicode="1" horiz-adv-x="534" 
d="M236 0v524l-69 -58l-71 91l151 132h116v-689h-127z" />
    <glyph glyph-name="two" unicode="2" horiz-adv-x="534" 
d="M485 502q0 -34 -12.5 -63.5t-32 -55.5t-43 -48t-46.5 -40q-21 -17 -47.5 -35.5t-51.5 -40.5t-44 -48t-23 -57h299v-114h-431v98q0 42 12.5 77.5t33.5 65.5t48.5 55t56.5 46q28 20 55 39t48 38.5t34 39.5t13 42q0 17 -8 30.5t-21.5 23t-31 14.5t-36.5 5q-35 0 -69.5 -12.5
t-62.5 -37.5l-66 101q38 34 91 52.5t113 18.5q40 0 80 -10t71.5 -32.5t51 -59.5t19.5 -92z" />
    <glyph glyph-name="three" unicode="3" horiz-adv-x="534" 
d="M257 696q41 0 79.5 -10.5t68.5 -33.5t48.5 -59t18.5 -86q0 -51 -24 -89.5t-65 -58.5q45 -20 69 -61t24 -90q0 -56 -20.5 -97t-52.5 -67t-72 -38.5t-80 -12.5q-61 0 -116 18.5t-93 52.5l12 18t21.5 32.5t21.5 32.5l12 18q28 -24 65 -37.5t70 -13.5q48 0 75.5 24t27.5 66
q0 39 -25.5 66t-66.5 27h-82v109h80q34 0 61 23.5t27 65.5q0 22 -9 37t-22.5 24.5t-30.5 13.5t-32 4q-33 0 -69 -13t-64 -38l-67 102q38 34 93 52.5t117 18.5z" />
    <glyph glyph-name="four" unicode="4" horiz-adv-x="534" 
d="M451 99v-99h-129v99h-288v103l221 487h135l-214 -476h146v197h129v-197h56v-114h-56z" />
    <glyph glyph-name="five" unicode="5" horiz-adv-x="534" 
d="M487 185q0 -47 -18.5 -82.5t-49 -59.5t-71 -36t-83.5 -12q-63 0 -114.5 18t-89.5 53l68 102q32 -29 65 -40.5t67 -11.5q15 0 32 4.5t31.5 14.5t24.5 26t10 40v77q0 35 -16.5 52t-45.5 17q-14 0 -30.5 -5t-32 -12.5t-28.5 -15.5t-20 -13l-115 45v343h394v-115h-266v-135
q29 17 60.5 27t55.5 10q41 0 73 -14t54 -38.5t33.5 -58t11.5 -73.5v-107v0z" />
    <glyph glyph-name="six" unicode="6" horiz-adv-x="534" 
d="M486 185q0 -48 -18.5 -83.5t-49 -59t-69 -35.5t-78.5 -12q-43 0 -82 11.5t-69 35t-47.5 59t-17.5 83.5v321q0 48 18.5 83.5t49 59.5t70.5 36t83 12q125 0 202 -71l-67 -103q-32 29 -65 40.5t-66 11.5q-14 0 -31 -5t-31.5 -15.5t-24.5 -27t-10 -39.5v-74q45 24 74.5 32
t55.5 8q42 0 74.5 -14t54.5 -39t33 -59t11 -74v-82zM357 258q0 40 -19.5 56.5t-42.5 16.5q-26 0 -52.5 -9.5t-59.5 -29.5v-87q0 -24 8 -41t20.5 -27.5t28 -15.5t31.5 -5q15 0 30.5 5t27.5 16t20 27.5t8 40.5v53z" />
    <glyph glyph-name="seven" unicode="7" horiz-adv-x="534" 
d="M243 0h-137l235 574h-165v-100h-119v215h429v-107z" />
    <glyph glyph-name="eight" unicode="8" horiz-adv-x="517" 
d="M262 695q38 0 75.5 -12t67 -37t47.5 -62.5t18 -87.5q0 -48 -21 -86.5t-58 -56.5q46 -20 69.5 -63.5t23.5 -90.5q0 -53 -20 -92t-52 -64t-72 -37t-80 -12q-43 0 -83 11.5t-71 36t-49.5 62.5t-18.5 90q0 26 7.5 50.5t21 45.5t30.5 37.5t37 25.5q-38 17 -59 55t-21 89
q0 50 18.5 87t48.5 62t67 37t74 12zM363 496q0 47 -30.5 72t-70.5 25q-19 0 -37.5 -6.5t-32.5 -19t-23 -30.5t-9 -41q0 -24 8.5 -42.5t23 -31t32.5 -19t38 -6.5q19 0 37.5 7t32.5 19.5t22.5 31t8.5 41.5zM261 298q-22 0 -42 -7t-35 -20.5t-24 -32t-9 -42.5q0 -48 30.5 -74.5
t79.5 -26.5q48 0 79 26.5t31 76.5q0 22 -9 40.5t-24 32t-35 20.5t-42 7z" />
    <glyph glyph-name="nine" unicode="9" horiz-adv-x="534" 
d="M483 185q0 -47 -18 -82.5t-48.5 -59.5t-70.5 -36t-83 -12q-126 0 -203 71l68 102q32 -29 65 -40t65 -11q14 0 31 5t31.5 15.5t24 27t9.5 39.5v80q-44 -23 -73.5 -31t-55.5 -8q-39 0 -71 14t-54.5 38.5t-34.5 58.5t-12 75v70q0 48 18 84.5t47.5 61t68.5 37t81 12.5
q45 0 84.5 -13t68.5 -38.5t45.5 -62t16.5 -84.5v-313zM354 486q0 24 -7.5 41t-20 27.5t-28 15.5t-30.5 5t-31 -5t-28.5 -16t-20.5 -27.5t-8 -40.5v-46q0 -40 20 -56t44 -16q25 0 51.5 9.5t58.5 28.5v80z" />
    <glyph glyph-name="colon" unicode=":" horiz-adv-x="315" 
d="M156 278q-34 0 -56.5 23t-22.5 57q0 33 22.5 56t55.5 23q34 0 56.5 -23t22.5 -56q0 -32 -21 -56t-57 -24zM156 -7q-34 0 -56.5 24t-22.5 58q0 32 22.5 54.5t55.5 22.5q34 0 56.5 -22.5t22.5 -54.5q0 -33 -21 -57.5t-57 -24.5z" />
    <glyph glyph-name="semicolon" unicode=";" horiz-adv-x="293" 
d="M149 278q-35 0 -57 23t-22 57q0 33 22.5 56t55.5 23q34 0 56.5 -23t22.5 -56q0 -32 -21 -56t-57 -24zM57 -97q26 19 41.5 44t19.5 49q-23 5 -39.5 24.5t-16.5 49.5q0 32 24 54.5t56 22.5q42 0 64.5 -29t22.5 -72q0 -61 -35 -116.5t-93 -86.5z" />
    <glyph glyph-name="less" unicode="&#x3c;" horiz-adv-x="534" 
d="M28 249v96l476 216v-112l-343 -152l343 -153v-112z" />
    <glyph glyph-name="equal" unicode="=" horiz-adv-x="534" 
d="M21 357v97h490v-97h-490zM21 140v97h490v-97h-490z" />
    <glyph glyph-name="greater" unicode="&#x3e;" horiz-adv-x="534" 
d="M28 32v112l344 153l-344 152v112l476 -216v-96z" />
    <glyph glyph-name="question" unicode="?" horiz-adv-x="489" 
d="M239 700q47 0 85.5 -13.5t66.5 -37.5t43 -56.5t15 -70.5q0 -33 -10 -59.5t-25 -50t-32.5 -44.5t-32.5 -42.5t-25 -45t-10 -51.5v-26h-129v26q0 38 18 71t39.5 65t39.5 65.5t18 72.5q0 29 -21 51t-65 22q-32 0 -62.5 -12t-59.5 -37l-62 104q45 36 98.5 52.5t110.5 16.5z
M172 74q0 32 22.5 54.5t54.5 22.5q34 0 57 -22.5t23 -54.5q0 -33 -21 -56.5t-57 -23.5q-35 0 -57 23t-22 57z" />
    <glyph glyph-name="at" unicode="@" horiz-adv-x="866" 
d="M265 279q0 33 15.5 56t38.5 37t48.5 20t46.5 6h87v13q0 28 -18 42t-51 14q-20 0 -45 -5.5t-54 -28.5q-3 4 -10 14t-14.5 22t-14.5 22t-9 14q42 33 80 43t73 10q75 0 119.5 -37.5t44.5 -115.5v-131q0 -18 11.5 -24.5t23.5 -6.5q13 0 29 7.5t30.5 24t24.5 43t10 65.5
q0 55 -17.5 102.5t-52 82.5t-85.5 55.5t-118 20.5q-70 0 -127.5 -22.5t-99 -61.5t-64 -91t-22.5 -111q0 -60 21 -112t59 -90.5t90.5 -60.5t116.5 -22q13 0 26.5 1t28.5 3.5t32.5 7.5t39.5 13l28 -82q-19 -9 -41 -15t-43.5 -9t-41.5 -4.5t-35 -1.5q-85 0 -154 28t-118 78
t-76 117.5t-27 147.5q0 81 30.5 149.5t84.5 119t128.5 79t163.5 28.5q91 0 160 -27.5t115 -74.5t69.5 -110.5t23.5 -135.5q0 -51 -15.5 -94t-42 -73.5t-62.5 -48t-77 -17.5q-15 0 -31.5 2t-32 7.5t-29.5 14.5t-23 24q-32 -20 -63.5 -30.5t-59.5 -10.5q-33 0 -56.5 9.5
t-38.5 26t-22.5 38t-7.5 46.5zM502 323h-77q-9 0 -19 -1.5t-18.5 -5.5t-14 -11.5t-5.5 -19.5q0 -15 12 -25t35 -10q28 0 50 10t37 18v45z" />
    <glyph glyph-name="A" unicode="A" horiz-adv-x="638" 
d="M438 142h-240l-45 -142h-146l242 689h140l240 -689h-149zM235 257h166l-27 88l-54 182h-4l-53 -179z" />
    <glyph glyph-name="B" unicode="B" horiz-adv-x="624" 
d="M581 205q0 -42 -13 -79t-38 -65t-62 -44.5t-86 -16.5h-323v689h310q52 0 89.5 -15t62 -41t36.5 -60t12 -71q0 -38 -20.5 -78t-64.5 -62q25 -12 43 -30.5t30 -40t18 -44t6 -42.5zM428 489q0 38 -22.5 58t-70.5 20h-139v-151h141q43 0 67 20t24 53zM436 209q0 40 -25 64.5
t-69 24.5h-146v-176h147q46 0 69.5 23.5t23.5 63.5z" />
    <glyph glyph-name="C" unicode="C" horiz-adv-x="561" 
d="M464 522q-32 27 -69 37.5t-72 10.5q-23 0 -46 -6.5t-41 -21.5t-29.5 -39t-11.5 -58v-201q0 -34 11.5 -57.5t30 -38.5t41 -22t45.5 -7q35 0 70.5 10t71.5 38l65 -106q-38 -32 -93 -50t-116 -18q-49 0 -96 14t-84 41.5t-60 69t-23 97.5v258q0 55 22.5 96.5t59 69.5t83.5 42
t96 14q60 0 115.5 -16t95.5 -51z" />
    <glyph glyph-name="D" unicode="D" horiz-adv-x="617" 
d="M566 221q0 -54 -20.5 -95.5t-55 -69.5t-79 -42t-91.5 -14h-260v689h261q47 0 91.5 -13.5t78.5 -41.5t54.5 -69.5t20.5 -96.5v-247zM427 442q0 34 -11.5 57.5t-29.5 38.5t-40.5 21.5t-45.5 6.5h-104v-445h104q22 0 44.5 6.5t41 21.5t30 38.5t11.5 58.5v196z" />
    <glyph glyph-name="E" unicode="E" horiz-adv-x="577" 
d="M60 689h475v-123h-338v-158h289v-123h-289v-163h338v-122h-475v689z" />
    <glyph glyph-name="F" unicode="F" horiz-adv-x="546" 
d="M197 403h289v-122h-289v-281h-137v689h475v-123h-338v-163z" />
    <glyph glyph-name="G" unicode="G" horiz-adv-x="606" 
d="M550 91q-23 -28 -51 -46.5t-58 -30t-60.5 -16.5t-57.5 -5q-48 0 -95.5 14t-85 41.5t-61 69t-23.5 97.5v255q0 55 22.5 97.5t60 71t85.5 43t99 14.5q60 0 117 -16.5t97 -51.5l-67 -106q-32 27 -71 37.5t-74 10.5q-24 0 -47.5 -6.5t-42 -21.5t-30.5 -39t-12 -58v-201
q0 -34 11 -57.5t29 -38.5t41 -22t47 -7q20 0 43.5 5.5t46.5 24.5v115h-100v117h237v-290v0z" />
    <glyph glyph-name="H" unicode="H" horiz-adv-x="646" 
d="M449 0v288h-254v-288h-137v689h137v-277h254v277h139v-689h-139z" />
    <glyph glyph-name="I" unicode="I" horiz-adv-x="297" 
d="M217 689v-689h-137v689h137z" />
    <glyph glyph-name="J" unicode="J" horiz-adv-x="533" 
d="M462 216q0 -56 -20.5 -97.5t-54.5 -69t-78.5 -41.5t-91.5 -14q-58 0 -115.5 15.5t-96.5 47.5l64 106q35 -26 67 -35.5t63 -9.5q27 0 50 6.5t39.5 22t26 40.5t9.5 62v440h138v-473v0z" />
    <glyph glyph-name="K" unicode="K" horiz-adv-x="628" 
d="M200 392q29 32 57 66t55 67l135 164h162l-229 -278l245 -411h-161l-174 303q-24 -28 -48 -55.5t-47 -55.5v-192h-137v689h137v-297h5z" />
    <glyph glyph-name="L" unicode="L" horiz-adv-x="545" 
d="M62 0v689h135v-567h341v-122h-476z" />
    <glyph glyph-name="M" unicode="M" horiz-adv-x="785" 
d="M585 370l-64 -127l-78 -148h-99l-77 145l-67 130h-4v-370h-136v689h126l123 -243l83 -170h6l84 174l118 239h126v-689h-137v370h-4z" />
    <glyph glyph-name="N" unicode="N" horiz-adv-x="675" 
d="M196 434v-434h-136v689h124l160 -236l131 -200h4v436h137v-689h-125l-175 260l-114 174h-6z" />
    <glyph glyph-name="O" unicode="O" horiz-adv-x="638" 
d="M584 220q0 -56 -21 -98t-57 -71t-84.5 -43.5t-102.5 -14.5t-102.5 14.5t-84.5 43.5t-57 71t-21 98v253q0 55 22 97t59 70t85 42t99 14t99 -15t85 -43.5t59 -71t22 -97.5v-249zM446 445q0 34 -11 57.5t-29 38.5t-40.5 22t-46.5 7t-47 -7t-41 -22t-29 -38.5t-11 -57.5v-201
q0 -34 11 -58t29 -39t41 -21.5t47 -6.5t46.5 6.5t40.5 21.5t29 39t11 58v201z" />
    <glyph glyph-name="P" unicode="P" horiz-adv-x="576" 
d="M195 383h140q47 0 71 26t24 65q0 40 -24.5 66t-70.5 26h-140v-183zM366 689q51 0 88 -19.5t61.5 -50.5t36 -69.5t11.5 -75.5q0 -38 -13.5 -76t-39 -69t-63 -50.5t-85.5 -19.5h-167v-259h-137v689h308z" />
    <glyph glyph-name="Q" unicode="Q" horiz-adv-x="643" 
d="M381 -17q0 -21 3.5 -33t12.5 -18t24.5 -7.5t39.5 -1.5h15v-103q-5 -1 -13.5 -1.5t-17.5 -1t-17 -0.5h-12q-73 0 -116.5 35.5t-43.5 102.5v44q-43 7 -80 25.5t-64 47t-42 66.5t-15 85v243q0 55 22 98t59 72t85 44.5t99 15.5t99 -15t85 -44t59 -71.5t22 -97.5v-245
q0 -47 -15.5 -85.5t-43 -67t-65 -46.5t-80.5 -25v-16zM447 417q0 84 -34.5 118.5t-92.5 34.5q-24 0 -47 -7t-41 -22t-29 -38.5t-11 -57.5v-175q0 -83 35.5 -117.5t92.5 -34.5q24 0 47 6.5t40.5 21.5t28.5 39t11 58v174z" />
    <glyph glyph-name="R" unicode="R" horiz-adv-x="594" 
d="M366 689q52 0 89.5 -19.5t62 -50.5t36 -69.5t11.5 -75.5q0 -27 -7.5 -55.5t-22 -54t-35.5 -47t-48 -35.5l124 -282h-148q-4 11 -12.5 31.5t-19 45.5t-22 52.5t-22 52.5t-19 45.5t-13.5 31.5h-124v-259h-137v689h307zM196 383h139q48 0 72 25.5t24 65.5t-24.5 66t-71.5 26
h-139v-183z" />
    <glyph glyph-name="S" unicode="S" horiz-adv-x="599" 
d="M565 199q0 -50 -20 -88.5t-55.5 -64t-83.5 -38.5t-104 -13q-75 0 -141 21t-129 74l77 100q45 -35 93.5 -53.5t96.5 -18.5q33 0 56 6.5t37 18t20.5 26t6.5 29.5q0 23 -11.5 38t-33 25.5t-51 19t-65.5 18.5q-40 10 -76.5 24.5t-64.5 37t-44.5 55t-16.5 78.5q0 45 17 83
t47.5 65.5t74 43t96.5 15.5q63 1 126 -12t122 -52l-60 -110q-48 29 -91 40t-85 11q-20 0 -39.5 -5t-35 -14.5t-25 -25t-9.5 -36.5t10.5 -35.5t30.5 -25t48.5 -18.5t64.5 -16q109 -24 163 -73t54 -130z" />
    <glyph glyph-name="T" unicode="T" horiz-adv-x="526" 
d="M332 565v-565h-137v565h-183v124h502v-124h-182z" />
    <glyph glyph-name="U" unicode="U" horiz-adv-x="644" 
d="M587 219q0 -56 -22 -98t-59 -70.5t-85 -43t-99 -14.5t-99 14t-84.5 42t-58.5 69.5t-22 97.5v473h136v-447q0 -34 11 -57.5t29 -38.5t41 -22t47 -7q23 0 46 7t41 22t29 38.5t11 57.5v447h138v-470v0z" />
    <glyph glyph-name="V" unicode="V" horiz-adv-x="604" 
d="M307 202l70 245l72 242h144l-220 -689h-142l-221 689h147l75 -249l69 -238h6z" />
    <glyph glyph-name="W" unicode="W" horiz-adv-x="908" 
d="M450 455l-49 -196l-64 -259h-151l-176 689h146l60 -272l46 -213h7l53 215l68 270h128l72 -284l50 -201h6l43 203l63 282h146l-178 -689h-149l-64 260l-50 195h-7z" />
    <glyph glyph-name="X" unicode="X" horiz-adv-x="595" 
d="M298 238l-137 -238h-155l219 353l-206 336h156l123 -221l123 221h154l-204 -336l218 -353h-155z" />
    <glyph glyph-name="Y" unicode="Y" horiz-adv-x="576" 
d="M292 401l58 134l69 154h146l-208 -419v-270h-137v270l-210 419h147l71 -158l57 -130h7z" />
    <glyph glyph-name="Z" unicode="Z" horiz-adv-x="540" 
d="M32 118l311 449h-298v122h463v-114l-315 -453h315v-122h-476v118z" />
    <glyph glyph-name="bracketleft" unicode="[" horiz-adv-x="296" 
d="M69 -98v797h209v-90h-93v-619h93v-88h-209z" />
    <glyph glyph-name="backslash" unicode="\" horiz-adv-x="351" 
d="M-11 725h103l252 -767h-102z" />
    <glyph glyph-name="bracketright" unicode="]" horiz-adv-x="296" 
d="M21 -98v88h92v619h-92v90h208v-797h-208z" />
    <glyph glyph-name="asciicircum" unicode="^" horiz-adv-x="534" 
d="M401 267l-132 299l-134 -300h-110l196 429h96l195 -428h-111z" />
    <glyph glyph-name="underscore" unicode="_" horiz-adv-x="500" 
d="M0 -150v81h500v-81h-500z" />
    <glyph glyph-name="grave" unicode="`" horiz-adv-x="508" 
d="M269 541l-130 182l116 39l86 -188z" />
    <glyph glyph-name="a" unicode="a" horiz-adv-x="525" 
d="M347 41q-45 -26 -81 -35.5t-67 -9.5q-76 0 -117.5 40.5t-41.5 110.5q0 41 17 69.5t43.5 46.5t58.5 26t61 8h128v21q0 35 -20 52.5t-71 17.5q-24 0 -59.5 -7t-71.5 -36l-57 93q52 40 104.5 52t96.5 12q106 0 156 -48t50 -145v-309h-117l-9 40zM349 203h-106
q-12 0 -23.5 -1.5t-21 -7t-15.5 -15t-6 -24.5q0 -20 14.5 -32.5t43.5 -12.5q32 0 63 12.5t51 23.5v57z" />
    <glyph glyph-name="b" unicode="b" horiz-adv-x="525" 
d="M482 176q0 -91 -45.5 -135.5t-123.5 -44.5q-26 0 -61 10.5t-76 33.5l-10 -40h-117v716h127v-261q48 28 83.5 37t61.5 9q85 0 123 -49t38 -130v-146zM354 305q0 42 -18 58.5t-44 16.5q-24 0 -54.5 -13.5t-61.5 -32.5v-183q10 -7 25.5 -14t31.5 -12t31.5 -8.5t27.5 -3.5
q26 0 44 18t18 58v116z" />
    <glyph glyph-name="c" unicode="c" horiz-adv-x="453" 
d="M436 68q-22 -23 -45 -37.5t-47 -22.5t-47.5 -10.5t-47.5 -2.5q-41 0 -78 11t-65 33.5t-44.5 56t-16.5 78.5v146q0 45 18 79t47 56.5t65.5 34t73.5 11.5q23 0 47 -2t47.5 -9t46.5 -20.5t45 -36.5l-73 -93q-35 31 -59.5 37.5t-42.5 6.5q-15 0 -31 -4.5t-28.5 -15t-20.5 -27
t-8 -39.5v-99q0 -24 7.5 -40.5t19.5 -27t27.5 -15t31.5 -4.5q20 0 48.5 9t53.5 34z" />
    <glyph glyph-name="d" unicode="d" horiz-adv-x="525" 
d="M42 322q0 81 45 130t128 49q26 0 62 -5.5t71 -22.5v243h128v-716h-118l-10 46q-42 -26 -77.5 -38.5t-61.5 -12.5q-81 0 -124 44.5t-43 136.5v146zM170 187q0 -43 18.5 -58.5t44.5 -15.5q12 0 26.5 3.5t30 9.5t30.5 13.5t28 16.5v198q-32 14 -57 20.5t-49 6.5
q-30 0 -51 -18t-21 -60v-116z" />
    <glyph glyph-name="e" unicode="e" horiz-adv-x="508" 
d="M172 210v-16q0 -22 7.5 -38t20 -26t28.5 -15t34 -5q21 0 52 6.5t66 34.5l70 -87q-23 -22 -46 -35.5t-46 -21t-46.5 -10t-47.5 -2.5q-44 0 -83.5 11t-69.5 33.5t-48 56.5t-18 81v128q0 46 16.5 82.5t45.5 61.5t67 38t82 13q46 0 85 -13t67 -37.5t44 -60.5t16 -82v-97h-296
zM341 303q0 42 -25 61.5t-59 19.5q-35 0 -60 -22t-25 -63v-6h169v10z" />
    <glyph glyph-name="f" unicode="f" horiz-adv-x="318" 
d="M203 391v-391h-124v391h-57v103h57v82q0 36 11.5 62t31 43.5t46.5 26t57 8.5h87v-106h-65q-24 0 -34 -13t-10 -35v-68h109v-103h-109z" />
    <glyph glyph-name="g" unicode="g" horiz-adv-x="524" 
d="M475 -27q0 -46 -21.5 -80t-54.5 -56t-73.5 -32.5t-78.5 -10.5q-24 0 -49.5 3.5t-51.5 12.5t-51 24.5t-47 39.5l82 84q12 -14 27.5 -23t32 -14t31.5 -7.5t26 -2.5q20 0 38.5 4.5t32 15t21.5 26.5t8 40v48q-44 -26 -81 -35t-63 -9q-83 0 -122.5 48.5t-39.5 129.5v139
q0 88 44 135t122 47q26 0 62 -10.5t78 -36.5l10 41h118v-521zM169 196q0 -42 18 -58.5t45 -16.5q24 0 54.5 12t60.5 31v173q-26 19 -58 31.5t-57 12.5q-26 0 -44.5 -17.5t-18.5 -58.5v-109z" />
    <glyph glyph-name="h" unicode="h" horiz-adv-x="529" 
d="M357 0v305q0 42 -20 58.5t-45 16.5q-23 0 -51 -10.5t-65 -33.5v-336h-127v716h127v-266q54 34 91 42.5t63 8.5q84 0 120 -49.5t36 -130.5v-321h-129z" />
    <glyph glyph-name="i" unicode="i" horiz-adv-x="269" 
d="M71 0v494h127v-494h-127zM63 628q0 30 21 51t50 21t50 -21t21 -51t-21 -50.5t-50 -20.5t-50 20.5t-21 50.5z" />
    <glyph glyph-name="j" unicode="j" horiz-adv-x="272" 
d="M203 -52q0 -72 -44 -110.5t-114 -38.5h-57v109h32q34 0 44.5 17t10.5 43v526h128v-546zM68 629q0 29 20.5 50t50.5 21t51 -21t21 -50q0 -30 -21 -50.5t-51 -20.5t-50.5 20.5t-20.5 50.5z" />
    <glyph glyph-name="k" unicode="k" horiz-adv-x="517" 
d="M49 0v716h128v-368h41q29 0 47.5 13t33.5 43l46 92h144l-60 -124q-14 -29 -30 -49t-46 -31q21 -7 35 -18.5t23 -25.5t15 -30t11 -32l62 -186h-143l-50 161q-12 37 -31.5 52.5t-57.5 15.5h-40v-229h-128z" />
    <glyph glyph-name="l" unicode="l" horiz-adv-x="285" 
d="M194 159q0 -17 2.5 -27t10 -15.5t20.5 -7.5t34 -2l2 -107q-17 -3 -32 -4t-29 -1q-45 0 -71.5 10t-41 28.5t-18.5 44t-4 57.5v581h127v-557z" />
    <glyph glyph-name="m" unicode="m" horiz-adv-x="792" 
d="M310 501q46 0 77 -18t48 -50q31 23 55 36.5t43 20.5t33.5 9t27.5 2q81 0 117 -50t36 -131v-320h-127v307q0 40 -16.5 56t-42.5 16q-22 0 -44.5 -10t-56.5 -35q1 -12 1 -23.5v-23.5v-287h-128v308q0 41 -17 56t-39 15q-23 0 -45.5 -9t-57.5 -33v-337h-127v494h117l10 -45
q25 17 45 27.5t36 16t29 7t26 1.5z" />
    <glyph glyph-name="n" unicode="n" horiz-adv-x="529" 
d="M356 0v305q0 42 -19 58.5t-46 16.5q-23 0 -51 -10.5t-65 -33.5v-336h-127v494h117l10 -43q55 34 92.5 42t62.5 8q82 0 118.5 -48.5t36.5 -129.5v-323h-129z" />
    <glyph glyph-name="o" unicode="o" horiz-adv-x="519" 
d="M476 176q0 -46 -18.5 -80t-49 -56.5t-69.5 -33.5t-80 -11q-42 0 -81 11t-69.5 33.5t-48.5 56.5t-18 80v143q0 46 18.5 80t49 56.5t70 34t80.5 11.5q44 0 83.5 -11.5t69 -34.5t46.5 -57.5t17 -80.5v-141zM349 297q0 24 -8 40t-21 26.5t-28.5 15t-31.5 4.5t-32.5 -4.5
t-29.5 -15t-21 -26.5t-8 -40v-98q0 -24 7.5 -40.5t20.5 -27t29 -15t34 -4.5q16 0 31.5 4.5t28.5 15t21 27t8 40.5v98z" />
    <glyph glyph-name="p" unicode="p" horiz-adv-x="525" 
d="M484 173q0 -81 -44 -130.5t-130 -49.5q-26 0 -61.5 5t-71.5 24v-220h-127v692h117l10 -45q42 26 79 38t63 12q80 0 122.5 -44t42.5 -137v-145zM355 307q0 43 -18 58.5t-44 15.5q-12 0 -26.5 -3.5t-30.5 -9.5t-31 -13.5t-28 -16.5v-197q34 -16 59 -21.5t48 -5.5
q29 -1 50 16t21 59v118z" />
    <glyph glyph-name="q" unicode="q" horiz-adv-x="523" 
d="M41 320q0 91 46 136t124 45q26 0 60.5 -11t76.5 -36l10 40h117v-692h-127v237q-47 -26 -82.5 -34.5t-61.5 -8.5q-83 0 -123 49t-40 130v145zM170 192q0 -42 18 -58.5t45 -16.5q23 0 53 11.5t62 31.5v185q-12 7 -27 14t-31 12.5t-31 9t-26 3.5q-26 0 -44.5 -18t-18.5 -58
v-116z" />
    <glyph glyph-name="r" unicode="r" horiz-adv-x="380" 
d="M371 371q-66 -6 -108.5 -20.5t-77.5 -35.5v-315h-127v496h117l9 -73h1q13 13 34.5 27t46.5 25.5t52 19t53 7.5v-131z" />
    <glyph glyph-name="s" unicode="s" horiz-adv-x="467" 
d="M236 -5q-27 0 -54.5 2.5t-55 10t-55 21.5t-55.5 38l69 91q37 -31 74 -42.5t75 -11.5q34 0 56 12.5t22 34.5q0 18 -13.5 29t-47.5 17t-70.5 13.5t-66.5 22.5t-49 41t-19 69q0 39 16 68.5t42 49t59.5 29.5t69.5 10q59 0 107 -10.5t95 -46.5l-60 -95q-38 26 -73.5 33.5
t-66.5 7.5q-33 0 -48.5 -13t-15.5 -30q0 -19 20 -27t50.5 -14t65.5 -13t65.5 -22.5t50.5 -43t20 -74.5q0 -39 -16.5 -68t-45 -49t-66 -30t-79.5 -10z" />
    <glyph glyph-name="t" unicode="t" horiz-adv-x="377" 
d="M24 391v103h64l22 124h102v-124h120v-103h-120v-206q0 -35 11.5 -55t53.5 -20q14 0 32 2.5t40 8.5l23 -108q-32 -12 -66.5 -15.5t-58.5 -3.5q-48 0 -79.5 13t-49.5 36.5t-25 56t-7 70.5v221h-62z" />
    <glyph glyph-name="u" unicode="u" horiz-adv-x="531" 
d="M173 494v-305q0 -42 21 -58.5t45 -16.5q23 0 50 10.5t65 35.5v334h128v-494h-118l-10 43q-54 -33 -90 -41.5t-61 -8.5q-42 0 -72 14t-49 39t-28 59t-9 75v314h128z" />
    <glyph glyph-name="v" unicode="v" horiz-adv-x="504" 
d="M257 162l51 170l51 164h138l-178 -496h-134l-179 496h143l51 -163q4 -13 11 -36.5t15 -49t15.5 -49t11.5 -36.5h4z" />
    <glyph glyph-name="w" unicode="w" horiz-adv-x="726" 
d="M224 181q2 7 9 28.5t15 46t15 46t10 29.5q2 7 7.5 24t11.5 35.5t11 34.5t7 23h108l42 -128l44 -144h4q2 9 7.5 32t11.5 49t11 49.5t7 32.5l38 157h133l-137 -496h-129l-43 132l-42 133l-4 1q-3 -7 -9 -26.5t-13 -42t-13 -42t-8 -26.5l-42 -129h-127l-139 496h134l40 -164
l35 -151h5z" />
    <glyph glyph-name="x" unicode="x" horiz-adv-x="507" 
d="M349 0l-97 156l-97 -156h-152l182 252l-174 243h152l89 -148l91 148h152l-176 -242l183 -253h-153z" />
    <glyph glyph-name="y" unicode="y" horiz-adv-x="491" 
d="M99 -199l76 210l-29 22l-136 463h131l46 -187l43 -165h3l55 167l60 185h132l-253 -695h-128z" />
    <glyph glyph-name="z" unicode="z" horiz-adv-x="474" 
d="M37 0v102l246 286h-232v107h387v-100l-246 -284h246v-111h-401z" />
    <glyph glyph-name="braceleft" unicode="{" horiz-adv-x="296" 
d="M199 -96q-50 0 -80 33t-30 96v100q0 58 -15 89.5t-61 33.5v86q38 3 57 30.5t19 73.5v131q0 54 32 86.5t78 32.5h88v-86h-41q-12 0 -20 -6.5t-13 -16t-7 -21.5t-2 -23v-120q0 -26 -7 -46.5t-18.5 -35.5t-25 -25t-25.5 -16v-1q29 -11 52.5 -40.5t23.5 -80.5v-122
q0 -11 1 -23t5.5 -22t12.5 -16.5t23 -6.5h41v-84h-88z" />
    <glyph glyph-name="bar" unicode="|" horiz-adv-x="241" 
d="M68 -206v932h104v-932h-104z" />
    <glyph glyph-name="braceright" unicode="}" horiz-adv-x="296" 
d="M285 256q-45 -2 -61 -33.5t-16 -89.5v-100q0 -58 -29 -93.5t-80 -35.5h-88v84h41q15 0 23 6.5t12.5 16.5t5.5 22t1 23v122q0 51 23.5 80.5t52.5 40.5v1q-13 6 -26.5 16t-24.5 25t-18 35.5t-7 46.5v120q0 11 -1.5 23t-6 21.5t-13 16t-21.5 6.5h-41v84h87q49 0 79.5 -32
t30.5 -85v-131q0 -47 19.5 -74t57.5 -30v-86v0z" />
    <glyph glyph-name="asciitilde" unicode="~" horiz-adv-x="534" 
d="M167 350q24 0 49.5 -10t51 -22.5t50 -22.5t45.5 -10q8 0 16.5 2t18 9t21 20.5t25.5 36.5l80 -56q-61 -114 -158 -114q-26 0 -50.5 10t-49.5 22t-50 22t-51 10q-23 0 -42 -12t-42 -44l-71 60q24 43 61 71t96 28z" />
    <glyph glyph-name="exclamdown" unicode="&#xa1;" horiz-adv-x="266" 
d="M189 287l7 -489h-125l7 489h111zM133 501q35 0 57 -23.5t22 -57.5q0 -32 -22.5 -54.5t-54.5 -22.5q-34 0 -57.5 22.5t-23.5 54.5q0 33 21.5 57t57.5 24z" />
    <glyph glyph-name="cent" unicode="&#xa2;" horiz-adv-x="453" 
d="M436 68q-38 -39 -77 -54t-79 -18v-127h-53v127q-38 3 -71 15.5t-57.5 34.5t-39 54t-14.5 74v146q0 42 15.5 74t41 54.5t58 35.5t67.5 16v123h53v-123q39 -2 78.5 -15.5t76.5 -51.5l-73 -93q-26 23 -46 32t-36 11v-269q18 3 39.5 12.5t40.5 28.5zM172 199q0 -36 16 -55.5
t39 -27.5v263q-23 -8 -39 -27.5t-16 -53.5v-99z" />
    <glyph glyph-name="sterling" unicode="&#xa3;" horiz-adv-x="534" 
d="M402 521q-29 38 -60 50.5t-56 12.5q-32 0 -56 -20t-24 -62q0 -16 4.5 -31t11.5 -31t13.5 -34t11.5 -39h147v-93h-144q-3 -43 -13.5 -85t-33.5 -80h292v-109h-453v94q32 42 51 84t23 96h-78v93h67q-11 38 -25.5 72t-14.5 66q0 38 13 73t39.5 62t67 43t95.5 16
q62 0 117 -20.5t99 -78.5z" />
    <glyph glyph-name="currency" unicode="&#xa4;" horiz-adv-x="556" 
d="M30 499l66 66l68 -68q28 17 55.5 25.5t56.5 8.5q31 0 58 -8t54 -25l67 67l66 -67l-68 -67q16 -27 25 -54.5t9 -55.5q0 -31 -8.5 -57.5t-25.5 -54.5q15 -14 34.5 -32.5t33.5 -33.5l-66 -66l-66 67q-54 -34 -113 -34q-29 0 -58 9t-55 25l-67 -67l-66 65l68 67
q-33 55 -33 112q0 54 34 110zM160 321q0 -24 9 -45t24.5 -36.5t36.5 -25t45 -9.5t45 9t37 25t25 37t9 45t-9 45t-25 36.5t-37 24.5t-45 9t-44.5 -9t-36.5 -24.5t-25 -36.5t-9 -45z" />
    <glyph glyph-name="yen" unicode="&#xa5;" horiz-adv-x="534" 
d="M55 232h143v38l-15 31h-126v84h91l-133 304h147l101 -291h7l100 291h147l-133 -304h97v-84h-133l-13 -31v-38h146v-82h-146v-150h-137v150h-143v82z" />
    <glyph glyph-name="brokenbar" unicode="&#xa6;" horiz-adv-x="241" 
d="M68 290v436h104v-436h-104zM172 228v-434h-104v434h104z" />
    <glyph glyph-name="section" unicode="&#xa7;" horiz-adv-x="446" 
d="M414 302q0 -29 -12 -58.5t-39 -59.5q11 -15 19.5 -34.5t8.5 -43.5q0 -41 -15.5 -71.5t-41.5 -50t-59.5 -29t-68.5 -9.5q-41 0 -80.5 11t-71.5 34l42 85q25 -17 53 -26.5t57 -9.5q25 0 44.5 13.5t19.5 42.5q0 26 -18 46t-66 41q-29 13 -56 28t-48 34.5t-33.5 45
t-12.5 59.5q0 26 11 56t42 60q-27 33 -27 77q0 40 15 70t40 49.5t58 29t69 9.5q38 0 78.5 -9.5t72.5 -31.5q-13 -22 -25 -44l-24 -44q-28 17 -51.5 25.5t-50.5 8.5q-23 0 -42.5 -14t-19.5 -40q0 -34 37 -59q34 -23 69 -39t63 -35t45.5 -46t17.5 -71zM169 402
q-19 -19 -19 -42q0 -21 12.5 -36t31.5 -27.5t41.5 -23.5t43.5 -22q20 18 20 40q0 21 -12.5 36.5t-31.5 28t-42 23.5t-44 23z" />
    <glyph glyph-name="dieresis" unicode="&#xa8;" horiz-adv-x="491" 
d="M275 625q0 29 20 48.5t49 19.5t48.5 -19.5t19.5 -48.5q0 -28 -19.5 -48t-48.5 -20t-49 20t-20 48zM78 625q0 29 19.5 48.5t48.5 19.5t48.5 -19.5t19.5 -48.5q0 -28 -19.5 -48t-48.5 -20t-48.5 20t-19.5 48z" />
    <glyph glyph-name="copyright" unicode="&#xa9;" horiz-adv-x="815" 
d="M409 -14q-75 0 -140 26t-112 73.5t-74 113t-27 143.5q0 77 27 142.5t74.5 113t112 74.5t139.5 27t139.5 -26.5t112 -74t74.5 -113t27 -143.5q0 -77 -27 -142.5t-74.5 -113t-112 -74t-139.5 -26.5zM409 625q-58 0 -108 -21.5t-86.5 -59.5t-57.5 -90t-21 -112t21 -112
t57.5 -90t86.5 -59.5t108 -21.5t108 21.5t86.5 59.5t57 90t20.5 112q0 62 -20.5 114t-57 89.5t-86.5 58.5t-108 21zM508 445q-21 18 -45.5 25.5t-47.5 7.5q-15 0 -30 -4.5t-27.5 -14.5t-20 -26t-7.5 -38v-119q0 -22 8 -38t20 -26t27 -14.5t30 -4.5q23 0 46.5 7t47.5 26
l44 -69q-26 -20 -62 -33t-77 -13q-32 0 -63 9.5t-55.5 28t-39.5 46t-15 63.5v150q0 37 15 65t39 47t55 29t63 10q39 0 76.5 -11.5t63.5 -34.5z" />
    <glyph glyph-name="ordfeminine" unicode="&#xaa;" horiz-adv-x="362" 
d="M235 310q-18 -17 -44.5 -27t-52.5 -10q-55 0 -84.5 27.5t-29.5 75.5q0 28 11 47t28 31t37 17t38 5h94v10q0 19 -13.5 30t-44.5 11q-16 0 -36 -5t-47 -22l-42 68q37 24 70 32t63 8q150 0 150 -129v-203h-91zM234 409h-68q-16 0 -28.5 -5.5t-12.5 -22.5q0 -10 8.5 -19.5
t26.5 -9.5q20 0 39 7t35 17v33z" />
    <glyph glyph-name="guillemotleft" unicode="&#xab;" horiz-adv-x="547" 
d="M394 22l-139 204l139 206h120l-136 -206l136 -204h-120zM185 22l-139 204l139 206h119l-136 -206l136 -204h-119z" />
    <glyph glyph-name="logicalnot" unicode="&#xac;" horiz-adv-x="534" 
d="M510 59h-104v188h-385v99h489v-287z" />
    <glyph glyph-name="sfthyphen" unicode="&#xad;" horiz-adv-x="424" 
d="M48 198v113h327v-113h-327z" />
    <glyph glyph-name="registered" unicode="&#xae;" horiz-adv-x="537" 
d="M274 462h-38v-96h-48v243h98q32 0 54 -19t22 -53q0 -21 -10.5 -38.5t-31.5 -28.5l50 -104h-53zM236 564v-57h46q15 0 24 8t9 22q0 27 -31 27h-48zM269 274q-46 0 -85.5 16t-68.5 44.5t-45.5 67.5t-16.5 84q0 46 17.5 85.5t47 68t68.5 45t83 16.5q46 0 85.5 -16.5t69 -45
t46 -68t16.5 -85.5q0 -45 -17.5 -84t-47 -67.5t-69 -44.5t-83.5 -16zM269 654q-35 0 -65.5 -13t-53 -35.5t-35 -53t-12.5 -66.5q0 -35 12.5 -65.5t35 -53t53 -35.5t65.5 -13q36 0 66 13t52.5 35.5t35 53t12.5 65.5q0 36 -12.5 66.5t-35 53t-52.5 35.5t-66 13z" />
    <glyph glyph-name="macron" unicode="&#xaf;" horiz-adv-x="508" 
d="M103 585v104h312v-104h-312z" />
    <glyph glyph-name="degree" unicode="&#xb0;" horiz-adv-x="416" 
d="M362 554q0 -30 -12 -57t-33 -47t-49 -31.5t-60 -11.5t-60 11.5t-49 31.5t-33 47t-12 57t12 57t33 47t49 31.5t60 11.5t60 -11.5t49 -31.5t33 -47t12 -57zM277 554q0 28 -20 47.5t-49 19.5t-49 -19.5t-20 -47.5q0 -27 20 -47t49 -20t49 20t20 47z" />
    <glyph glyph-name="plusminus" unicode="&#xb1;" horiz-adv-x="534" 
d="M319 311v-174h-105v174h-191v98h191v179h105v-179h191v-98h-191zM20 0v97h492v-97h-492z" />
    <glyph glyph-name="twosuperior" unicode="&#xb2;" horiz-adv-x="348" 
d="M319 633q0 -22 -9 -41t-23 -35.5t-31.5 -30t-33.5 -25.5q-11 -7 -26 -17t-29.5 -21t-25 -23.5t-12.5 -25.5h190v-79h-288v63q0 29 10.5 52t27 42t36.5 34t40 29q13 9 27 18t25.5 18.5t18.5 19.5t7 21q0 17 -17 26.5t-39 9.5q-21 0 -43 -7.5t-42 -23.5q-3 4 -9.5 13.5
t-14 21t-14 21t-9.5 13.5q28 21 64 33t74 12q28 0 54 -6t46.5 -19.5t33 -36.5t12.5 -56z" />
    <glyph glyph-name="threesuperior" unicode="&#xb3;" horiz-adv-x="347" 
d="M166 751q28 0 54 -6.5t46.5 -21t32.5 -37.5t12 -55q0 -29 -15.5 -52t-44.5 -31q31 -9 47 -34t16 -51q0 -35 -13.5 -60t-35 -41t-49 -23.5t-54.5 -7.5q-40 0 -74.5 10.5t-61.5 32.5l45 70q20 -15 43 -22.5t43 -7.5q27 0 45 12t18 33q0 20 -15 33.5t-35 13.5h-63v76h63
q17 0 32.5 11.5t15.5 34.5q0 22 -19.5 31t-39.5 9t-43.5 -7t-43.5 -23l-43 70q55 43 137 43z" />
    <glyph glyph-name="acute" unicode="&#xb4;" horiz-adv-x="508" 
d="M186 568l81 195l116 -37l-123 -185z" />
    <glyph glyph-name="mu" unicode="&#xb5;" horiz-adv-x="529" 
d="M46 494h129v-304q0 -42 20.5 -58.5t45.5 -16.5q23 0 49.5 10t65.5 35v334h127v-494h-121l-6 43q-48 -31 -81 -40t-62 -9q-23 0 -39 9v-201h-128v692z" />
    <glyph glyph-name="mu" unicode="&#x3bc;" horiz-adv-x="529" 
d="M46 494h129v-304q0 -42 20.5 -58.5t45.5 -16.5q23 0 49.5 10t65.5 35v334h127v-494h-121l-6 43q-48 -31 -81 -40t-62 -9q-23 0 -39 9v-201h-128v692z" />
    <glyph glyph-name="paragraph" unicode="&#xb6;" horiz-adv-x="551" 
d="M492 59q0 -50 -11 -87t-36.5 -62t-67.5 -38.5t-104 -14.5l-8 97q39 6 62 15.5t36 24t17 35t4 47.5v630h108v-647zM230 315q-42 0 -77.5 15t-61.5 41.5t-40.5 61.5t-14.5 76q0 40 15 76t41 63t61.5 42.5t76.5 15.5h89v-391h-89z" />
    <glyph glyph-name="periodcentered" unicode="&#xb7;" horiz-adv-x="271" 
d="M138 197q-36 0 -61.5 26t-25.5 62q0 37 25.5 61.5t60.5 24.5t60.5 -24.5t25.5 -61.5q0 -36 -23.5 -62t-61.5 -26z" />
    <glyph glyph-name="cedilla" unicode="&#xb8;" horiz-adv-x="453" 
d="M275 45l-27 -82q27 -2 46 -11t30.5 -21t16.5 -26.5t5 -28.5q0 -16 -7.5 -32.5t-21.5 -29.5t-35.5 -21t-49.5 -8t-56 6.5t-51 18.5q5 14 11 27.5t11 27.5q24 -11 41.5 -13.5t33.5 -2.5q17 0 30 9t13 23t-9.5 22t-26.5 8q-9 0 -18 -3q-9 5 -18 9.5t-18 9.5q9 30 18.5 59
t18.5 59h63z" />
    <glyph glyph-name="onesuperior" unicode="&#xb9;" horiz-adv-x="334" 
d="M141 335v298l-39 -31l-53 64l102 81h83v-412h-93z" />
    <glyph glyph-name="ordmasculine" unicode="&#xba;" horiz-adv-x="358" 
d="M332 405q0 -31 -11.5 -55.5t-32 -41.5t-48.5 -26t-61 -9t-61 9t-48.5 26t-32 41.5t-11.5 55.5v70q0 31 12.5 55.5t33.5 41.5t48.5 26.5t58.5 9.5q67 0 110 -36t43 -98v-69zM233 467q0 27 -17 40.5t-37 13.5t-37.5 -13.5t-17.5 -40.5v-53q0 -28 17 -41t38 -13q20 0 37 13
t17 41v53z" />
    <glyph glyph-name="guillemotright" unicode="&#xbb;" horiz-adv-x="547" 
d="M46 22l136 204l-136 206h119l140 -206l-140 -204h-119zM255 22l137 204l-137 206h119l140 -206l-140 -204h-119z" />
    <glyph glyph-name="onequarter" unicode="&#xbc;" horiz-adv-x="853" 
d="M171 276v298l-39 -31l-53 64l102 81h83v-412h-93zM245 -17h-90l425 730h91zM735 57v-57h-91v57h-186v68l144 287h99l-138 -276h81v107h91v-107h38v-79h-38z" />
    <glyph glyph-name="onehalf" unicode="&#xbd;" horiz-adv-x="853" 
d="M155 276v298l-39 -31l-53 64l102 81h83v-412h-93zM221 -17h-90l425 730h91zM790 299q0 -21 -9 -40.5t-23 -36t-31.5 -30.5t-33.5 -25q-11 -8 -26.5 -17.5t-29.5 -21t-25 -24t-13 -25.5h191v-79h-288v64q0 29 10.5 52t27 42t36.5 34t40 29q13 9 27 18t25.5 18.5t18.5 19.5
t7 21q0 17 -17 26t-39 9q-21 0 -43 -7.5t-42 -22.5q-3 4 -10 13.5t-14.5 20.5t-14 20.5t-8.5 13.5q27 21 63 34t75 13q27 0 53.5 -6t47 -20t33 -37t12.5 -56z" />
    <glyph glyph-name="threequarters" unicode="&#xbe;" horiz-adv-x="853" 
d="M192 692q28 0 54 -6.5t46.5 -21t32.5 -37.5t12 -55q0 -29 -15.5 -52t-44.5 -31q31 -9 47 -34t16 -51q0 -35 -13.5 -60t-35 -41t-49 -23.5t-54.5 -7.5q-40 0 -74.5 10.5t-61.5 32.5l45 70q20 -15 43 -22.5t43 -7.5q27 0 45 12t18 33q0 20 -15 33.5t-35 13.5h-63v76h63
q17 0 32.5 11.5t15.5 34.5q0 22 -19.5 31t-39.5 9t-43.5 -7t-43.5 -23l-43 70q55 43 137 43zM279 -17h-90l425 730h91zM762 57v-57h-91v57h-186v68l144 287h99l-138 -276h81v107h91v-107h38v-79h-38z" />
    <glyph glyph-name="questiondown" unicode="&#xbf;" horiz-adv-x="489" 
d="M254 -206q-47 0 -85.5 13.5t-66.5 37.5t-43 57t-15 71q0 32 10 59t25 50t32.5 44t32.5 42.5t25 45t10 51.5v25h129v-25q0 -29 -5 -52t-15 -44.5t-25.5 -43.5t-35.5 -49q-11 -15 -22.5 -37t-11.5 -47q0 -30 21.5 -51.5t64.5 -21.5q65 0 122 48l63 -103
q-45 -37 -98.5 -53.5t-111.5 -16.5zM242 501q35 0 57.5 -23.5t22.5 -57.5q0 -32 -22.5 -55t-55.5 -23q-34 0 -57 23t-23 55q0 33 21 57t57 24z" />
    <glyph glyph-name="Agrave" unicode="&#xc0;" horiz-adv-x="638" 
d="M438 142h-240l-45 -142h-146l242 689h140l240 -689h-149zM235 257h166l-27 88l-54 182h-4l-53 -179zM336 730l-203 99l64 99l186 -133z" />
    <glyph glyph-name="Aacute" unicode="&#xc1;" horiz-adv-x="638" 
d="M438 142h-240l-45 -142h-146l242 689h140l240 -689h-149zM235 257h166l-27 88l-54 182h-4l-53 -179zM249 795l170 126l80 -92l-200 -95z" />
    <glyph glyph-name="Acircumflex" unicode="&#xc2;" horiz-adv-x="638" 
d="M438 142h-240l-45 -142h-146l242 689h140l240 -689h-149zM235 257h166l-27 88l-54 182h-4l-53 -179zM316 812l-148 -81l-42 52l150 122h83l149 -122l-44 -53z" />
    <glyph glyph-name="Atilde" unicode="&#xc3;" horiz-adv-x="638" 
d="M438 142h-240l-45 -142h-146l242 689h140l240 -689h-149zM235 257h166l-27 88l-54 182h-4l-53 -179zM249 881q19 -1 38 -8.5t36 -16.5t32 -16.5t27 -7.5q17 0 30.5 10t32.5 36l64 -38q-26 -55 -53.5 -79t-62.5 -24q-20 0 -38.5 7t-36 15.5t-33 15.5t-29.5 7
q-17 0 -31.5 -7.5t-36.5 -35.5l-64 38q25 51 54 77.5t71 26.5z" />
    <glyph glyph-name="Adieresis" unicode="&#xc4;" horiz-adv-x="638" 
d="M438 142h-240l-45 -142h-146l242 689h140l240 -689h-149zM235 257h166l-27 88l-54 182h-4l-53 -179zM349 812q0 28 19.5 47.5t48.5 19.5t48 -19.5t19 -47.5q0 -29 -19 -49t-48 -20t-48.5 20t-19.5 49zM151 812q0 28 20 47.5t48 19.5q29 0 48.5 -19.5t19.5 -47.5
q0 -29 -19.5 -49t-48.5 -20q-28 0 -48 20t-20 49z" />
    <glyph glyph-name="Aring" unicode="&#xc5;" horiz-adv-x="638" 
d="M438 142h-240l-45 -142h-146l242 689h140l240 -689h-149zM235 257h166l-27 88l-54 182h-4l-53 -179zM363 824q0 18 -13 30.5t-32 12.5q-20 0 -33 -12.5t-13 -30.5t13 -30.5t33 -12.5q19 0 32 12.5t13 30.5zM200 824q0 23 9.5 43.5t25.5 35.5t37.5 24t45.5 9t45.5 -9
t37 -24t25 -35.5t9.5 -43.5t-9.5 -43.5t-25.5 -35.5t-37.5 -24t-45.5 -9t-45.5 9t-37 24t-25 35.5t-9.5 43.5z" />
    <glyph glyph-name="AE" unicode="&#xc6;" horiz-adv-x="1005" 
d="M492 163h-49.5t-71 0.5t-71.5 0.5h-49q-7 -12 -20.5 -34.5l-28.5 -47.5t-28.5 -48t-20.5 -34h-153q18 29 51.5 83t74.5 121t86 140.5t86 140.5t74.5 121t51.5 83h542v-123h-338v-159h289v-122h-289v-163h338v-122h-474v163zM489 567q-12 -19 -36.5 -59.5t-51.5 -85
t-51 -85t-36 -59.5h36.5t52 -0.5t52.5 -0.5h37v290h-3z" />
    <glyph glyph-name="Ccedilla" unicode="&#xc7;" horiz-adv-x="561" 
d="M464 522q-32 27 -69 37.5t-72 10.5q-23 0 -46 -6.5t-41 -21.5t-29.5 -39t-11.5 -58v-201q0 -34 11.5 -57.5t30 -38.5t41 -22t45.5 -7q35 0 70.5 10t71.5 38l65 -106q-37 -31 -88.5 -48.5t-109.5 -19.5l-9 -30q27 -2 46 -11t30.5 -21t16.5 -26.5t5 -28.5q0 -16 -7.5 -32.5
t-21.5 -29.5t-35.5 -21t-49.5 -8t-56 6.5t-51 18.5q5 14 11 27.5t11 27.5q24 -11 41.5 -13.5t33.5 -2.5q17 0 30 9t13 23t-9.5 22t-26.5 8q-9 0 -18 -3q-9 5 -18 9.5t-18 9.5q5 18 10.5 35.5t11.5 34.5q-42 6 -81 22.5t-68.5 43.5t-47 65t-17.5 87v258q0 55 22.5 96.5
t59 69.5t83.5 42t96 14q60 0 115.5 -16t95.5 -51z" />
    <glyph glyph-name="Egrave" unicode="&#xc8;" horiz-adv-x="577" 
d="M60 689h475v-123h-338v-158h289v-123h-289v-163h338v-122h-475v689zM334 730l-203 99l64 99l186 -133z" />
    <glyph glyph-name="Eacute" unicode="&#xc9;" horiz-adv-x="577" 
d="M60 689h475v-123h-338v-158h289v-123h-289v-163h338v-122h-475v689zM224 795l170 126l80 -92l-200 -95z" />
    <glyph glyph-name="Ecircumflex" unicode="&#xca;" horiz-adv-x="577" 
d="M60 689h475v-123h-338v-158h289v-123h-289v-163h338v-122h-475v689zM300 812l-148 -81l-42 52l150 122h83l149 -122l-44 -53z" />
    <glyph glyph-name="Edieresis" unicode="&#xcb;" horiz-adv-x="577" 
d="M60 689h475v-123h-338v-158h289v-123h-289v-163h338v-122h-475v689zM330 811q0 29 20 48.5t49 19.5q28 0 47.5 -19.5t19.5 -48.5t-19.5 -49t-47.5 -20q-29 0 -49 20t-20 49zM133 811q0 29 19.5 48.5t48.5 19.5q28 0 48 -19.5t20 -48.5t-20 -49t-48 -20q-29 0 -48.5 20
t-19.5 49z" />
    <glyph glyph-name="Igrave" unicode="&#xcc;" horiz-adv-x="297" 
d="M217 689v-689h-137v689h137zM157 730l-203 99l64 99l186 -133z" />
    <glyph glyph-name="Iacute" unicode="&#xcd;" horiz-adv-x="297" 
d="M217 689v-689h-137v689h137zM95 795l170 126l80 -92l-200 -95z" />
    <glyph glyph-name="Icircumflex" unicode="&#xce;" horiz-adv-x="297" 
d="M217 689v-689h-137v689h137zM147 812l-148 -81l-42 52l150 122h83l149 -122l-44 -53z" />
    <glyph glyph-name="Idieresis" unicode="&#xcf;" horiz-adv-x="297" 
d="M217 689v-689h-137v689h137zM181 812q0 28 19.5 47.5t48.5 19.5t48 -19.5t19 -47.5q0 -29 -19 -49t-48 -20t-48.5 20t-19.5 49zM-17 812q0 28 20 47.5t48 19.5q29 0 48.5 -19.5t19.5 -47.5q0 -29 -19.5 -49t-48.5 -20q-28 0 -48 20t-20 49z" />
    <glyph glyph-name="Eth" unicode="&#xd0;" horiz-adv-x="617" 
d="M6 391h54v298h261q47 0 91.5 -13.5t78.5 -41.5t54.5 -69.5t20.5 -96.5v-247q0 -54 -20.5 -95.5t-55 -69.5t-79 -42t-91.5 -14h-260v296h-54v95zM427 442q0 34 -11.5 57.5t-29.5 38.5t-40.5 21.5t-45.5 6.5h-104v-175h105v-95h-105v-175h104q22 0 44.5 6.5t41 21.5
t30 38.5t11.5 58.5v196z" />
    <glyph glyph-name="Ntilde" unicode="&#xd1;" horiz-adv-x="675" 
d="M196 434v-434h-136v689h124l160 -236l131 -200h4v436h137v-689h-125l-175 260l-114 174h-6zM270 882q19 -1 38 -8.5t36 -16.5t32 -16.5t27 -7.5q17 0 30.5 10t32.5 36l64 -38q-26 -55 -53.5 -79t-62.5 -24q-20 0 -38.5 7t-36 15.5t-33 15.5t-29.5 7q-17 0 -31.5 -7.5
t-36.5 -35.5l-64 38q25 51 54 77.5t71 26.5z" />
    <glyph glyph-name="Ograve" unicode="&#xd2;" horiz-adv-x="638" 
d="M584 220q0 -56 -21 -98t-57 -71t-84.5 -43.5t-102.5 -14.5t-102.5 14.5t-84.5 43.5t-57 71t-21 98v253q0 55 22 97t59 70t85 42t99 14t99 -15t85 -43.5t59 -71t22 -97.5v-249zM446 445q0 34 -11 57.5t-29 38.5t-40.5 22t-46.5 7t-47 -7t-41 -22t-29 -38.5t-11 -57.5v-201
q0 -34 11 -58t29 -39t41 -21.5t47 -6.5t46.5 6.5t40.5 21.5t29 39t11 58v201zM366 730l-203 99l64 99l186 -133z" />
    <glyph glyph-name="Oacute" unicode="&#xd3;" horiz-adv-x="638" 
d="M584 220q0 -56 -21 -98t-57 -71t-84.5 -43.5t-102.5 -14.5t-102.5 14.5t-84.5 43.5t-57 71t-21 98v253q0 55 22 97t59 70t85 42t99 14t99 -15t85 -43.5t59 -71t22 -97.5v-249zM446 445q0 34 -11 57.5t-29 38.5t-40.5 22t-46.5 7t-47 -7t-41 -22t-29 -38.5t-11 -57.5v-201
q0 -34 11 -58t29 -39t41 -21.5t47 -6.5t46.5 6.5t40.5 21.5t29 39t11 58v201zM232 795l170 126l80 -92l-200 -95z" />
    <glyph glyph-name="Ocircumflex" unicode="&#xd4;" horiz-adv-x="638" 
d="M584 220q0 -56 -21 -98t-57 -71t-84.5 -43.5t-102.5 -14.5t-102.5 14.5t-84.5 43.5t-57 71t-21 98v253q0 55 22 97t59 70t85 42t99 14t99 -15t85 -43.5t59 -71t22 -97.5v-249zM446 445q0 34 -11 57.5t-29 38.5t-40.5 22t-46.5 7t-47 -7t-41 -22t-29 -38.5t-11 -57.5v-201
q0 -34 11 -58t29 -39t41 -21.5t47 -6.5t46.5 6.5t40.5 21.5t29 39t11 58v201zM320 812l-148 -81l-42 52l150 122h83l149 -122l-44 -53z" />
    <glyph glyph-name="Otilde" unicode="&#xd5;" horiz-adv-x="638" 
d="M584 220q0 -56 -21 -98t-57 -71t-84.5 -43.5t-102.5 -14.5t-102.5 14.5t-84.5 43.5t-57 71t-21 98v253q0 55 22 97t59 70t85 42t99 14t99 -15t85 -43.5t59 -71t22 -97.5v-249zM446 445q0 34 -11 57.5t-29 38.5t-40.5 22t-46.5 7t-47 -7t-41 -22t-29 -38.5t-11 -57.5v-201
q0 -34 11 -58t29 -39t41 -21.5t47 -6.5t46.5 6.5t40.5 21.5t29 39t11 58v201zM252 881q19 -1 38 -8.5t36 -16.5t32 -16.5t27 -7.5q17 0 30.5 10t32.5 36l64 -38q-26 -55 -53.5 -79t-62.5 -24q-20 0 -38.5 7t-36 15.5t-33 15.5t-29.5 7q-17 0 -31.5 -7.5t-36.5 -35.5l-64 38
q25 51 54 77.5t71 26.5z" />
    <glyph glyph-name="Odieresis" unicode="&#xd6;" horiz-adv-x="638" 
d="M584 220q0 -56 -21 -98t-57 -71t-84.5 -43.5t-102.5 -14.5t-102.5 14.5t-84.5 43.5t-57 71t-21 98v253q0 55 22 97t59 70t85 42t99 14t99 -15t85 -43.5t59 -71t22 -97.5v-249zM446 445q0 34 -11 57.5t-29 38.5t-40.5 22t-46.5 7t-47 -7t-41 -22t-29 -38.5t-11 -57.5v-201
q0 -34 11 -58t29 -39t41 -21.5t47 -6.5t46.5 6.5t40.5 21.5t29 39t11 58v201zM353 812q0 28 19.5 47.5t48.5 19.5t48 -19.5t19 -47.5q0 -29 -19 -49t-48 -20t-48.5 20t-19.5 49zM155 812q0 28 20 47.5t48 19.5q29 0 48.5 -19.5t19.5 -47.5q0 -29 -19.5 -49t-48.5 -20
q-28 0 -48 20t-20 49z" />
    <glyph glyph-name="multiply" unicode="&#xd7;" horiz-adv-x="534" 
d="M268 218l-161 -161l-73 74l160 161l-165 165l71 69l165 -165l158 159l73 -73l-159 -159l166 -165l-70 -70z" />
    <glyph glyph-name="Oslash" unicode="&#xd8;" horiz-adv-x="638" 
d="M53 25l44 61q-20 26 -31.5 59.5t-11.5 74.5v253q0 55 22 97t59 70t85 42t99 14q49 0 95 -14t82 -40l41 57l48 -35l-46 -63q21 -26 33 -59t12 -73v-249q0 -56 -21 -98t-57 -71t-84.5 -43.5t-102.5 -14.5q-52 0 -98.5 13.5t-81.5 39.5l-39 -54zM446 445q0 6 -0.5 12
t-1.5 12l-224 -311q18 -21 44.5 -30t54.5 -9q24 0 46.5 6.5t40.5 21.5t29 39t11 58v201zM191 244q0 -7 0.5 -13t1.5 -11l223 311q-18 20 -44 29.5t-53 9.5q-24 0 -47 -7t-41 -22t-29 -38.5t-11 -57.5v-201z" />
    <glyph glyph-name="Ugrave" unicode="&#xd9;" horiz-adv-x="644" 
d="M587 219q0 -56 -22 -98t-59 -70.5t-85 -43t-99 -14.5t-99 14t-84.5 42t-58.5 69.5t-22 97.5v473h136v-447q0 -34 11 -57.5t29 -38.5t41 -22t47 -7q23 0 46 7t41 22t29 38.5t11 57.5v447h138v-470zM358 730l-203 99l64 99l186 -133z" />
    <glyph glyph-name="Uacute" unicode="&#xda;" horiz-adv-x="644" 
d="M587 219q0 -56 -22 -98t-59 -70.5t-85 -43t-99 -14.5t-99 14t-84.5 42t-58.5 69.5t-22 97.5v473h136v-447q0 -34 11 -57.5t29 -38.5t41 -22t47 -7q23 0 46 7t41 22t29 38.5t11 57.5v447h138v-470zM230 795l170 126l80 -92l-200 -95z" />
    <glyph glyph-name="Ucircumflex" unicode="&#xdb;" horiz-adv-x="644" 
d="M587 219q0 -56 -22 -98t-59 -70.5t-85 -43t-99 -14.5t-99 14t-84.5 42t-58.5 69.5t-22 97.5v473h136v-447q0 -34 11 -57.5t29 -38.5t41 -22t47 -7q23 0 46 7t41 22t29 38.5t11 57.5v447h138v-470zM319 812l-148 -81l-42 52l150 122h83l149 -122l-44 -53z" />
    <glyph glyph-name="Udieresis" unicode="&#xdc;" horiz-adv-x="644" 
d="M587 219q0 -56 -22 -98t-59 -70.5t-85 -43t-99 -14.5t-99 14t-84.5 42t-58.5 69.5t-22 97.5v473h136v-447q0 -34 11 -57.5t29 -38.5t41 -22t47 -7q23 0 46 7t41 22t29 38.5t11 57.5v447h138v-470zM354 812q0 28 19.5 47.5t48.5 19.5t48 -19.5t19 -47.5q0 -29 -19 -49
t-48 -20t-48.5 20t-19.5 49zM156 812q0 28 20 47.5t48 19.5q29 0 48.5 -19.5t19.5 -47.5q0 -29 -19.5 -49t-48.5 -20q-28 0 -48 20t-20 49z" />
    <glyph glyph-name="Yacute" unicode="&#xdd;" horiz-adv-x="576" 
d="M292 401l58 134l69 154h146l-208 -419v-270h-137v270l-210 419h147l71 -158l57 -130h7zM211 795l170 126l80 -92l-200 -95z" />
    <glyph glyph-name="Thorn" unicode="&#xde;" horiz-adv-x="576" 
d="M195 260h140q47 0 71 26t24 65q0 40 -24.5 66.5t-70.5 26.5h-140v-184zM195 688v-121h171q51 0 88 -19.5t61.5 -51t36 -70t11.5 -75.5q0 -38 -13.5 -76t-39 -68.5t-63 -50t-85.5 -19.5h-167v-137h-137v689z" />
    <glyph glyph-name="germandbls" unicode="&#xdf;" horiz-adv-x="527" 
d="M177 0h-127v494q0 47 14.5 87t42 69.5t66 46t86.5 16.5q58 0 97 -17t63 -43t34 -57.5t10 -61.5q0 -14 -3.5 -32t-11.5 -36t-20.5 -34t-31.5 -26q47 -16 66.5 -55.5t20.5 -86.5l1 -91q0 -81 -44 -130.5t-127 -49.5q-12 0 -25.5 1t-30.5 3v116h29q36 0 52.5 21.5t16.5 58.5
v66q0 42 -26 61.5t-60 19.5h-9v101h9q19 0 33.5 9t24 21.5t14 27.5t4.5 27q0 16 -4.5 31t-15 26.5t-26.5 18.5t-39 7t-39 -9t-26 -22t-14.5 -29t-4.5 -29z" />
    <glyph glyph-name="agrave" unicode="&#xe0;" horiz-adv-x="525" 
d="M347 41q-45 -26 -81 -35.5t-67 -9.5q-76 0 -117.5 40.5t-41.5 110.5q0 41 17 69.5t43.5 46.5t58.5 26t61 8h128v21q0 35 -20 52.5t-71 17.5q-24 0 -59.5 -7t-71.5 -36l-57 93q52 40 104.5 52t96.5 12q106 0 156 -48t50 -145v-309h-117l-9 40zM349 203h-106
q-12 0 -23.5 -1.5t-21 -7t-15.5 -15t-6 -24.5q0 -20 14.5 -32.5t43.5 -12.5q32 0 63 12.5t51 23.5v57zM261 541l-130 182l116 39l86 -188z" />
    <glyph glyph-name="aacute" unicode="&#xe1;" horiz-adv-x="525" 
d="M347 41q-45 -26 -81 -35.5t-67 -9.5q-76 0 -117.5 40.5t-41.5 110.5q0 41 17 69.5t43.5 46.5t58.5 26t61 8h128v21q0 35 -20 52.5t-71 17.5q-24 0 -59.5 -7t-71.5 -36l-57 93q52 40 104.5 52t96.5 12q106 0 156 -48t50 -145v-309h-117l-9 40zM349 203h-106
q-12 0 -23.5 -1.5t-21 -7t-15.5 -15t-6 -24.5q0 -20 14.5 -32.5t43.5 -12.5q32 0 63 12.5t51 23.5v57zM229 568l81 195l116 -37l-123 -185z" />
    <glyph glyph-name="acircumflex" unicode="&#xe2;" horiz-adv-x="525" 
d="M347 41q-45 -26 -81 -35.5t-67 -9.5q-76 0 -117.5 40.5t-41.5 110.5q0 41 17 69.5t43.5 46.5t58.5 26t61 8h128v21q0 35 -20 52.5t-71 17.5q-24 0 -59.5 -7t-71.5 -36l-57 93q52 40 104.5 52t96.5 12q106 0 156 -48t50 -145v-309h-117l-9 40zM349 203h-106
q-12 0 -23.5 -1.5t-21 -7t-15.5 -15t-6 -24.5q0 -20 14.5 -32.5t43.5 -12.5q32 0 63 12.5t51 23.5v57zM270 636q-12 -8 -31.5 -22.5t-40 -29.5t-39.5 -29.5t-31 -22.5l-49 44l148 155h87l147 -154l-51 -46z" />
    <glyph glyph-name="atilde" unicode="&#xe3;" horiz-adv-x="525" 
d="M347 41q-45 -26 -81 -35.5t-67 -9.5q-76 0 -117.5 40.5t-41.5 110.5q0 41 17 69.5t43.5 46.5t58.5 26t61 8h128v21q0 35 -20 52.5t-71 17.5q-24 0 -59.5 -7t-71.5 -36l-57 93q52 40 104.5 52t96.5 12q106 0 156 -48t50 -145v-309h-117l-9 40zM349 203h-106
q-12 0 -23.5 -1.5t-21 -7t-15.5 -15t-6 -24.5q0 -20 14.5 -32.5t43.5 -12.5q32 0 63 12.5t51 23.5v57zM199 711q19 -1 38 -8.5t36 -16.5t32 -16.5t27 -7.5q17 0 30.5 10t32.5 36l64 -38q-26 -55 -53.5 -79t-62.5 -24q-20 0 -38.5 7t-36 15.5t-33 15.5t-29.5 7
q-17 0 -31.5 -7.5t-36.5 -35.5l-64 38q25 51 54 77.5t71 26.5z" />
    <glyph glyph-name="adieresis" unicode="&#xe4;" horiz-adv-x="525" 
d="M347 41q-45 -26 -81 -35.5t-67 -9.5q-76 0 -117.5 40.5t-41.5 110.5q0 41 17 69.5t43.5 46.5t58.5 26t61 8h128v21q0 35 -20 52.5t-71 17.5q-24 0 -59.5 -7t-71.5 -36l-57 93q52 40 104.5 52t96.5 12q106 0 156 -48t50 -145v-309h-117l-9 40zM349 203h-106
q-12 0 -23.5 -1.5t-21 -7t-15.5 -15t-6 -24.5q0 -20 14.5 -32.5t43.5 -12.5q32 0 63 12.5t51 23.5v57zM306 625q0 29 20 48.5t49 19.5t48.5 -19.5t19.5 -48.5q0 -28 -19.5 -48t-48.5 -20t-49 20t-20 48zM109 625q0 29 19.5 48.5t48.5 19.5t48.5 -19.5t19.5 -48.5
q0 -28 -19.5 -48t-48.5 -20t-48.5 20t-19.5 48z" />
    <glyph glyph-name="aring" unicode="&#xe5;" horiz-adv-x="525" 
d="M347 41q-45 -26 -81 -35.5t-67 -9.5q-76 0 -117.5 40.5t-41.5 110.5q0 41 17 69.5t43.5 46.5t58.5 26t61 8h128v21q0 35 -20 52.5t-71 17.5q-24 0 -59.5 -7t-71.5 -36l-57 93q52 40 104.5 52t96.5 12q106 0 156 -48t50 -145v-309h-117l-9 40zM349 203h-106
q-12 0 -23.5 -1.5t-21 -7t-15.5 -15t-6 -24.5q0 -20 14.5 -32.5t43.5 -12.5q32 0 63 12.5t51 23.5v57zM327 643q0 18 -13 30.5t-32 12.5q-20 0 -33 -12.5t-13 -30.5t13 -30.5t33 -12.5q19 0 32 12.5t13 30.5zM164 643q0 23 9.5 43.5t25.5 35.5t37.5 24t45.5 9t45.5 -9
t37 -24t25 -35.5t9.5 -43.5t-9.5 -43.5t-25.5 -35.5t-37.5 -24t-45.5 -9t-45.5 9t-37 24t-25 35.5t-9.5 43.5z" />
    <glyph glyph-name="ae" unicode="&#xe6;" horiz-adv-x="811" 
d="M475 211v-19q1 -43 28.5 -62.5t62.5 -19.5q20 0 51.5 6.5t66.5 34.5l70 -87q-23 -22 -46 -35.5t-46 -21t-46.5 -10t-47.5 -2.5q-51 0 -96 15t-76 47q-11 -8 -22.5 -14.5t-22.5 -12.5q-53 -26 -91 -30.5t-60 -4.5q-76 0 -118.5 40.5t-42.5 110.5q0 41 17.5 69.5t44 46
t58.5 25.5t61 8h128v21q0 71 -98 71q-24 0 -56 -7t-68 -36l-59 92q52 40 101.5 52t93.5 12q103 0 156 -47q28 23 64 35t78 12q46 0 85 -13t67 -37.5t44 -60.5t16 -82v-96h-297zM349 211h-103q-25 0 -47.5 -13t-22.5 -44q0 -20 14.5 -32.5t43.5 -12.5q33 0 64 12.5t51 23.5
v66zM645 303q0 42 -25 61.5t-59 19.5q-33 0 -59 -20.5t-26 -58.5v-11h169v9z" />
    <glyph glyph-name="ccedilla" unicode="&#xe7;" horiz-adv-x="453" 
d="M436 68q-40 -42 -83 -56.5t-86 -16.5l-10 -32q27 -2 46 -11t30.5 -21t16.5 -26.5t5 -28.5q0 -16 -7.5 -32.5t-21.5 -29.5t-35.5 -21t-49.5 -8t-56 6.5t-51 18.5q5 14 11 27.5t11 27.5q24 -11 41.5 -13.5t33.5 -2.5q17 0 30 9t13 23t-9.5 22t-26.5 8q-9 0 -18 -3
q-9 5 -18 9.5t-18 9.5l22 72q-34 5 -63.5 18.5t-51 35.5t-34 52t-12.5 69v146q0 45 18 79t47 56.5t65.5 34t73.5 11.5q23 0 47 -2t47.5 -9t46.5 -20.5t45 -36.5l-73 -93q-35 31 -59.5 37.5t-42.5 6.5q-15 0 -31 -4.5t-28.5 -15t-20.5 -27t-8 -39.5v-99q0 -24 7.5 -40.5
t19.5 -27t27.5 -15t31.5 -4.5q20 0 48.5 9t53.5 34z" />
    <glyph glyph-name="egrave" unicode="&#xe8;" horiz-adv-x="508" 
d="M172 210v-16q0 -22 7.5 -38t20 -26t28.5 -15t34 -5q21 0 52 6.5t66 34.5l70 -87q-23 -22 -46 -35.5t-46 -21t-46.5 -10t-47.5 -2.5q-44 0 -83.5 11t-69.5 33.5t-48 56.5t-18 81v128q0 46 16.5 82.5t45.5 61.5t67 38t82 13q46 0 85 -13t67 -37.5t44 -60.5t16 -82v-97h-296
zM245 541l-130 182l116 39l86 -188zM341 303q0 42 -25 61.5t-59 19.5q-35 0 -60 -22t-25 -63v-6h169v10z" />
    <glyph glyph-name="eacute" unicode="&#xe9;" horiz-adv-x="508" 
d="M172 210v-16q0 -22 7.5 -38t20 -26t28.5 -15t34 -5q21 0 52 6.5t66 34.5l70 -87q-23 -22 -46 -35.5t-46 -21t-46.5 -10t-47.5 -2.5q-44 0 -83.5 11t-69.5 33.5t-48 56.5t-18 81v128q0 46 16.5 82.5t45.5 61.5t67 38t82 13q46 0 85 -13t67 -37.5t44 -60.5t16 -82v-97h-296
zM203 568l81 195l116 -37l-123 -185zM341 303q0 42 -25 61.5t-59 19.5q-35 0 -60 -22t-25 -63v-6h169v10z" />
    <glyph glyph-name="ecircumflex" unicode="&#xea;" horiz-adv-x="508" 
d="M172 210v-16q0 -22 7.5 -38t20 -26t28.5 -15t34 -5q21 0 52 6.5t66 34.5l70 -87q-23 -22 -46 -35.5t-46 -21t-46.5 -10t-47.5 -2.5q-44 0 -83.5 11t-69.5 33.5t-48 56.5t-18 81v128q0 46 16.5 82.5t45.5 61.5t67 38t82 13q46 0 85 -13t67 -37.5t44 -60.5t16 -82v-97h-296
zM262 636q-12 -8 -31.5 -22.5t-40 -29.5t-39.5 -29.5t-31 -22.5l-49 44l148 155h87l147 -154l-51 -46zM341 303q0 42 -25 61.5t-59 19.5q-35 0 -60 -22t-25 -63v-6h169v10z" />
    <glyph glyph-name="edieresis" unicode="&#xeb;" horiz-adv-x="508" 
d="M172 210v-16q0 -22 7.5 -38t20 -26t28.5 -15t34 -5q21 0 52 6.5t66 34.5l70 -87q-23 -22 -46 -35.5t-46 -21t-46.5 -10t-47.5 -2.5q-44 0 -83.5 11t-69.5 33.5t-48 56.5t-18 81v128q0 46 16.5 82.5t45.5 61.5t67 38t82 13q46 0 85 -13t67 -37.5t44 -60.5t16 -82v-97h-296
zM289 625q0 29 20 48.5t49 19.5t48.5 -19.5t19.5 -48.5q0 -28 -19.5 -48t-48.5 -20t-49 20t-20 48zM92 625q0 29 19.5 48.5t48.5 19.5t48.5 -19.5t19.5 -48.5q0 -28 -19.5 -48t-48.5 -20t-48.5 20t-19.5 48zM341 303q0 42 -25 61.5t-59 19.5q-35 0 -60 -22t-25 -63v-6h169
v10z" />
    <glyph glyph-name="igrave" unicode="&#xec;" horiz-adv-x="259" 
d="M108 541l-132 182l117 39l86 -188zM71 0v494h127v-494h-127z" />
    <glyph glyph-name="iacute" unicode="&#xed;" horiz-adv-x="259" 
d="M75 568l81 195l116 -37l-123 -185zM71 0v494h127v-494h-127z" />
    <glyph glyph-name="icircumflex" unicode="&#xee;" horiz-adv-x="362" 
d="M181 636q-12 -8 -31.5 -22.5t-40 -29.5t-39.5 -29.5t-31 -22.5l-49 44l148 155h87l147 -154l-51 -46zM118 0v494h127v-494h-127z" />
    <glyph glyph-name="idieresis" unicode="&#xef;" horiz-adv-x="313" 
d="M187 625q0 29 20 48.5t49 19.5q28 0 47.5 -19.5t19.5 -48.5q0 -28 -19.5 -48t-47.5 -20q-29 0 -49 20t-20 48zM-10 625q0 29 19.5 48.5t48.5 19.5q28 0 48 -19.5t20 -48.5q0 -28 -20 -48t-48 -20q-29 0 -48.5 20t-19.5 48zM94 0v494h127v-494h-127z" />
    <glyph glyph-name="eth" unicode="&#xf0;" horiz-adv-x="523" 
d="M239 549l52 41q-20 15 -47 26.5t-69 18.5l24 98q56 -8 101.5 -25t76.5 -46l57 46l43 -48l-56 -44q19 -28 31 -54t18 -56t8 -65.5t2 -81.5v-126q0 -50 -12 -93.5t-39 -75.5t-70.5 -50.5t-106.5 -18.5q-44 0 -82 11t-66.5 33.5t-45 56.5t-16.5 80v101q0 46 17.5 82t46 61
t65.5 38t75 13q33 0 63.5 -8.5t51.5 -27.5q1 0 2 0.5t2 0.5q-2 35 -8.5 60.5t-21.5 47.5l-56 -43zM349 268q0 24 -8 40t-20.5 26.5t-28.5 15t-32 4.5q-18 0 -34 -5.5t-29 -17t-20.5 -29t-7.5 -41.5v-63q0 -24 7.5 -40t20 -26.5t28.5 -15t34 -4.5q36 0 63 20.5t27 68.5v67z
" />
    <glyph glyph-name="ntilde" unicode="&#xf1;" horiz-adv-x="529" 
d="M356 0v305q0 42 -19 58.5t-46 16.5q-23 0 -51 -10.5t-65 -33.5v-336h-127v494h117l10 -43q55 34 92.5 42t62.5 8q82 0 118.5 -48.5t36.5 -129.5v-323h-129zM193 711q19 -1 38 -8.5t36 -16.5t32 -16.5t27 -7.5q17 0 30.5 10t32.5 36l64 -38q-26 -55 -53.5 -79t-62.5 -24
q-20 0 -38.5 7t-36 15.5t-33 15.5t-29.5 7q-17 0 -31.5 -7.5t-36.5 -35.5l-64 38q25 51 54 77.5t71 26.5z" />
    <glyph glyph-name="ograve" unicode="&#xf2;" horiz-adv-x="519" 
d="M476 176q0 -46 -18.5 -80t-49 -56.5t-69.5 -33.5t-80 -11q-42 0 -81 11t-69.5 33.5t-48.5 56.5t-18 80v143q0 46 18.5 80t49 56.5t70 34t80.5 11.5q44 0 83.5 -11.5t69 -34.5t46.5 -57.5t17 -80.5v-141zM349 297q0 24 -8 40t-21 26.5t-28.5 15t-31.5 4.5t-32.5 -4.5
t-29.5 -15t-21 -26.5t-8 -40v-98q0 -24 7.5 -40.5t20.5 -27t29 -15t34 -4.5q16 0 31.5 4.5t28.5 15t21 27t8 40.5v98zM256 541l-130 182l116 39l86 -188z" />
    <glyph glyph-name="oacute" unicode="&#xf3;" horiz-adv-x="519" 
d="M476 176q0 -46 -18.5 -80t-49 -56.5t-69.5 -33.5t-80 -11q-42 0 -81 11t-69.5 33.5t-48.5 56.5t-18 80v143q0 46 18.5 80t49 56.5t70 34t80.5 11.5q44 0 83.5 -11.5t69 -34.5t46.5 -57.5t17 -80.5v-141zM349 297q0 24 -8 40t-21 26.5t-28.5 15t-31.5 4.5t-32.5 -4.5
t-29.5 -15t-21 -26.5t-8 -40v-98q0 -24 7.5 -40.5t20.5 -27t29 -15t34 -4.5q16 0 31.5 4.5t28.5 15t21 27t8 40.5v98zM207 568l81 195l116 -37l-123 -185z" />
    <glyph glyph-name="ocircumflex" unicode="&#xf4;" horiz-adv-x="519" 
d="M476 176q0 -46 -18.5 -80t-49 -56.5t-69.5 -33.5t-80 -11q-42 0 -81 11t-69.5 33.5t-48.5 56.5t-18 80v143q0 46 18.5 80t49 56.5t70 34t80.5 11.5q44 0 83.5 -11.5t69 -34.5t46.5 -57.5t17 -80.5v-141zM349 297q0 24 -8 40t-21 26.5t-28.5 15t-31.5 4.5t-32.5 -4.5
t-29.5 -15t-21 -26.5t-8 -40v-98q0 -24 7.5 -40.5t20.5 -27t29 -15t34 -4.5q16 0 31.5 4.5t28.5 15t21 27t8 40.5v98zM262 636q-12 -8 -31.5 -22.5t-40 -29.5t-39.5 -29.5t-31 -22.5l-49 44l148 155h87l147 -154l-51 -46z" />
    <glyph glyph-name="otilde" unicode="&#xf5;" horiz-adv-x="519" 
d="M476 176q0 -46 -18.5 -80t-49 -56.5t-69.5 -33.5t-80 -11q-42 0 -81 11t-69.5 33.5t-48.5 56.5t-18 80v143q0 46 18.5 80t49 56.5t70 34t80.5 11.5q44 0 83.5 -11.5t69 -34.5t46.5 -57.5t17 -80.5v-141zM349 297q0 24 -8 40t-21 26.5t-28.5 15t-31.5 4.5t-32.5 -4.5
t-29.5 -15t-21 -26.5t-8 -40v-98q0 -24 7.5 -40.5t20.5 -27t29 -15t34 -4.5q16 0 31.5 4.5t28.5 15t21 27t8 40.5v98zM194 711q19 -1 38 -8.5t36 -16.5t32 -16.5t27 -7.5q17 0 30.5 10t32.5 36l64 -38q-26 -55 -53.5 -79t-62.5 -24q-20 0 -38.5 7t-36 15.5t-33 15.5t-29.5 7
q-17 0 -31.5 -7.5t-36.5 -35.5l-64 38q25 51 54 77.5t71 26.5z" />
    <glyph glyph-name="odieresis" unicode="&#xf6;" horiz-adv-x="519" 
d="M476 176q0 -46 -18.5 -80t-49 -56.5t-69.5 -33.5t-80 -11q-42 0 -81 11t-69.5 33.5t-48.5 56.5t-18 80v143q0 46 18.5 80t49 56.5t70 34t80.5 11.5q44 0 83.5 -11.5t69 -34.5t46.5 -57.5t17 -80.5v-141zM349 297q0 24 -8 40t-21 26.5t-28.5 15t-31.5 4.5t-32.5 -4.5
t-29.5 -15t-21 -26.5t-8 -40v-98q0 -24 7.5 -40.5t20.5 -27t29 -15t34 -4.5q16 0 31.5 4.5t28.5 15t21 27t8 40.5v98zM293 625q0 29 20 48.5t49 19.5t48.5 -19.5t19.5 -48.5q0 -28 -19.5 -48t-48.5 -20t-49 20t-20 48zM96 625q0 29 19.5 48.5t48.5 19.5t48.5 -19.5
t19.5 -48.5q0 -28 -19.5 -48t-48.5 -20t-48.5 20t-19.5 48z" />
    <glyph glyph-name="divide" unicode="&#xf7;" horiz-adv-x="534" 
d="M346 495q0 -31 -23 -53t-55 -22q-16 0 -30.5 6t-25 16t-17 24t-6.5 29q0 31 23.5 52.5t55.5 21.5t55 -21.5t23 -52.5zM21 247v99h493v-99h-493zM346 92q0 -32 -23 -53t-55 -21t-55.5 21t-23.5 53q0 31 23.5 52.5t55.5 21.5t55 -21.5t23 -52.5z" />
    <glyph glyph-name="oslash" unicode="&#xf8;" horiz-adv-x="519" 
d="M475 178q0 -46 -18.5 -80t-48.5 -57t-69 -34.5t-80 -11.5q-42 0 -80 10.5t-68 32.5l-37 -44q-8 7 -16.5 13.5t-16.5 14.5l38 46q-17 22 -27 49t-10 61v138q0 45 18.5 80t49 58t69.5 35t80 12q86 0 146 -43l36 43l34 -29l-38 -45q18 -22 28 -50t10 -63v-136zM349 294
q0 13 -3 25l-153 -184q13 -12 30 -17.5t36 -5.5q16 0 32 5t29 15.5t21 27t8 40.5v94zM323 359q-27 24 -64 24q-16 0 -32 -5t-29 -16t-21 -27.5t-8 -40.5v-94v-11.5t2 -10.5z" />
    <glyph glyph-name="ugrave" unicode="&#xf9;" horiz-adv-x="531" 
d="M173 494v-305q0 -42 21 -58.5t45 -16.5q23 0 50 10.5t65 35.5v334h128v-494h-118l-10 43q-54 -33 -90 -41.5t-61 -8.5q-42 0 -72 14t-49 39t-28 59t-9 75v314h128zM259 541l-130 182l116 39l86 -188z" />
    <glyph glyph-name="uacute" unicode="&#xfa;" horiz-adv-x="531" 
d="M173 494v-305q0 -42 21 -58.5t45 -16.5q23 0 50 10.5t65 35.5v334h128v-494h-118l-10 43q-54 -33 -90 -41.5t-61 -8.5q-42 0 -72 14t-49 39t-28 59t-9 75v314h128zM202 568l81 195l116 -37l-123 -185z" />
    <glyph glyph-name="ucircumflex" unicode="&#xfb;" horiz-adv-x="531" 
d="M173 494v-305q0 -42 21 -58.5t45 -16.5q23 0 50 10.5t65 35.5v334h128v-494h-118l-10 43q-54 -33 -90 -41.5t-61 -8.5q-42 0 -72 14t-49 39t-28 59t-9 75v314h128zM263 636q-12 -8 -31.5 -22.5t-40 -29.5t-39.5 -29.5t-31 -22.5l-49 44l148 155h87l147 -154l-51 -46z" />
    <glyph glyph-name="udieresis" unicode="&#xfc;" horiz-adv-x="531" 
d="M173 494v-305q0 -42 21 -58.5t45 -16.5q23 0 50 10.5t65 35.5v334h128v-494h-118l-10 43q-54 -33 -90 -41.5t-61 -8.5q-42 0 -72 14t-49 39t-28 59t-9 75v314h128zM292 625q0 29 20 48.5t49 19.5t48.5 -19.5t19.5 -48.5q0 -28 -19.5 -48t-48.5 -20t-49 20t-20 48zM95 625
q0 29 19.5 48.5t48.5 19.5t48.5 -19.5t19.5 -48.5q0 -28 -19.5 -48t-48.5 -20t-48.5 20t-19.5 48z" />
    <glyph glyph-name="yacute" unicode="&#xfd;" horiz-adv-x="492" 
d="M99 -199l76 210l-29 22l-136 463h131l46 -187l43 -165h3l55 167l60 185h132l-253 -695h-128zM191 568l81 195l116 -37l-123 -185z" />
    <glyph glyph-name="thorn" unicode="&#xfe;" horiz-adv-x="523" 
d="M483 173q0 -81 -44 -130.5t-130 -49.5q-26 0 -61.5 5t-71.5 24v-220h-127v886h127v-239q42 26 79 38t63 12q80 0 122.5 -44t42.5 -137v-145zM354 307q0 43 -18 58.5t-44 15.5q-12 0 -26.5 -3.5t-30.5 -9.5t-31 -13.5t-28 -16.5v-197q34 -16 59 -21.5t48 -5.5q29 -1 50 16
t21 59v118z" />
    <glyph glyph-name="ydieresis" unicode="&#xff;" horiz-adv-x="492" 
d="M99 -199l76 210l-29 22l-136 463h131l46 -187l43 -165h3l55 167l60 185h132l-253 -695h-128zM277 625q0 29 20 48.5t49 19.5t48.5 -19.5t19.5 -48.5q0 -28 -19.5 -48t-48.5 -20t-49 20t-20 48zM80 625q0 29 19.5 48.5t48.5 19.5t48.5 -19.5t19.5 -48.5q0 -28 -19.5 -48
t-48.5 -20t-48.5 20t-19.5 48z" />
    <glyph glyph-name="Amacron" unicode="&#x100;" horiz-adv-x="638" 
d="M438 142h-240l-45 -142h-146l242 689h140l240 -689h-149zM235 257h166l-27 88l-54 182h-4l-53 -179zM161 765v104h312v-104h-312z" />
    <glyph glyph-name="amacron" unicode="&#x101;" horiz-adv-x="525" 
d="M347 41q-45 -26 -81 -35.5t-67 -9.5q-76 0 -117.5 40.5t-41.5 110.5q0 41 17 69.5t43.5 46.5t58.5 26t61 8h128v21q0 35 -20 52.5t-71 17.5q-24 0 -59.5 -7t-71.5 -36l-57 93q52 40 104.5 52t96.5 12q106 0 156 -48t50 -145v-309h-117l-9 40zM349 203h-106
q-12 0 -23.5 -1.5t-21 -7t-15.5 -15t-6 -24.5q0 -20 14.5 -32.5t43.5 -12.5q32 0 63 12.5t51 23.5v57zM116 585v104h312v-104h-312z" />
    <glyph glyph-name="Abreve" unicode="&#x102;" horiz-adv-x="638" 
d="M438 142h-240l-45 -142h-146l242 689h140l240 -689h-149zM235 257h166l-27 88l-54 182h-4l-53 -179zM319 731q-42 0 -70.5 15.5t-46 38t-25.5 49t-10 48.5h91q0 -10 4 -22t11.5 -22t19 -16.5t26.5 -6.5t26.5 6.5t19 16.5t11.5 22t4 22h91q-3 -22 -11 -48.5t-25.5 -49
t-45.5 -38t-70 -15.5z" />
    <glyph glyph-name="abreve" unicode="&#x103;" horiz-adv-x="525" 
d="M347 41q-45 -26 -81 -35.5t-67 -9.5q-76 0 -117.5 40.5t-41.5 110.5q0 41 17 69.5t43.5 46.5t58.5 26t61 8h128v21q0 35 -20 52.5t-71 17.5q-24 0 -59.5 -7t-71.5 -36l-57 93q52 40 104.5 52t96.5 12q106 0 156 -48t50 -145v-309h-117l-9 40zM349 203h-106
q-12 0 -23.5 -1.5t-21 -7t-15.5 -15t-6 -24.5q0 -20 14.5 -32.5t43.5 -12.5q32 0 63 12.5t51 23.5v57zM275 563q-42 0 -70.5 15.5t-46 38t-25.5 49t-10 48.5h92q0 -10 4 -21.5t11.5 -21.5t18.5 -16.5t26 -6.5q16 0 27.5 6.5t19 16.5t11.5 21.5t4 21.5h91q-3 -22 -11 -48.5
t-25.5 -49t-45.5 -38t-71 -15.5z" />
    <glyph glyph-name="Aogonek" unicode="&#x104;" horiz-adv-x="638" 
d="M438 142h-240l-45 -142h-146l242 689h140l240 -689h-63q-21 -29 -30.5 -49t-9.5 -36q0 -32 37 -32q20 0 61 16l26 -65q-23 -13 -50 -21t-53 -8q-46 0 -75 28t-29 67q0 20 8 44t31 56h-2zM235 257h166l-27 88l-54 182h-4l-53 -179z" />
    <glyph glyph-name="aogonek" unicode="&#x105;" horiz-adv-x="525" 
d="M347 41q-45 -26 -81 -35.5t-67 -9.5q-76 0 -117.5 40.5t-41.5 110.5q0 41 17 69.5t43.5 46.5t58.5 26t61 8h128v21q0 35 -20 52.5t-71 17.5q-24 0 -59.5 -7t-71.5 -36l-57 93q52 40 104.5 52t96.5 12q106 0 156 -48t50 -145v-309h-34q-21 -29 -30.5 -49t-9.5 -36
q0 -32 37 -32q20 0 61 16l26 -65q-23 -13 -50 -21t-53 -8q-46 0 -75 28t-29 67q0 21 8.5 44.5t31.5 56.5l-9 39zM349 203h-106q-12 0 -23.5 -1.5t-21 -7t-15.5 -15t-6 -24.5q0 -20 14.5 -32.5t43.5 -12.5q32 0 63 12.5t51 23.5v57z" />
    <glyph glyph-name="Cacute" unicode="&#x106;" horiz-adv-x="561" 
d="M464 522q-32 27 -69 37.5t-72 10.5q-23 0 -46 -6.5t-41 -21.5t-29.5 -39t-11.5 -58v-201q0 -34 11.5 -57.5t30 -38.5t41 -22t45.5 -7q35 0 70.5 10t71.5 38l65 -106q-38 -32 -93 -50t-116 -18q-49 0 -96 14t-84 41.5t-60 69t-23 97.5v258q0 55 22.5 96.5t59 69.5t83.5 42
t96 14q60 0 115.5 -16t95.5 -51zM224 795l170 126l80 -92l-200 -95z" />
    <glyph glyph-name="cacute" unicode="&#x107;" horiz-adv-x="453" 
d="M436 68q-22 -23 -45 -37.5t-47 -22.5t-47.5 -10.5t-47.5 -2.5q-41 0 -78 11t-65 33.5t-44.5 56t-16.5 78.5v146q0 45 18 79t47 56.5t65.5 34t73.5 11.5q23 0 47 -2t47.5 -9t46.5 -20.5t45 -36.5l-73 -93q-35 31 -59.5 37.5t-42.5 6.5q-15 0 -31 -4.5t-28.5 -15t-20.5 -27
t-8 -39.5v-99q0 -24 7.5 -40.5t19.5 -27t27.5 -15t31.5 -4.5q20 0 48.5 9t53.5 34zM188 568l81 195l116 -37l-123 -185z" />
    <glyph glyph-name="Ccircumflex" unicode="&#x108;" horiz-adv-x="561" 
d="M464 522q-32 27 -69 37.5t-72 10.5q-23 0 -46 -6.5t-41 -21.5t-29.5 -39t-11.5 -58v-201q0 -34 11.5 -57.5t30 -38.5t41 -22t45.5 -7q35 0 70.5 10t71.5 38l65 -106q-38 -32 -93 -50t-116 -18q-49 0 -96 14t-84 41.5t-60 69t-23 97.5v258q0 55 22.5 96.5t59 69.5t83.5 42
t96 14q60 0 115.5 -16t95.5 -51zM318 812l-148 -81l-42 52l150 122h83l149 -122l-44 -53z" />
    <glyph glyph-name="ccircumflex" unicode="&#x109;" horiz-adv-x="453" 
d="M436 68q-22 -23 -45 -37.5t-47 -22.5t-47.5 -10.5t-47.5 -2.5q-41 0 -78 11t-65 33.5t-44.5 56t-16.5 78.5v146q0 45 18 79t47 56.5t65.5 34t73.5 11.5q23 0 47 -2t47.5 -9t46.5 -20.5t45 -36.5l-73 -93q-35 31 -59.5 37.5t-42.5 6.5q-15 0 -31 -4.5t-28.5 -15t-20.5 -27
t-8 -39.5v-99q0 -24 7.5 -40.5t19.5 -27t27.5 -15t31.5 -4.5q20 0 48.5 9t53.5 34zM248 636q-12 -8 -31.5 -22.5t-40 -29.5t-39.5 -29.5t-31 -22.5l-49 44l148 155h87l147 -154l-51 -46z" />
    <glyph glyph-name="Cdotaccent" unicode="&#x10a;" horiz-adv-x="561" 
d="M464 522q-32 27 -69 37.5t-72 10.5q-23 0 -46 -6.5t-41 -21.5t-29.5 -39t-11.5 -58v-201q0 -34 11.5 -57.5t30 -38.5t41 -22t45.5 -7q35 0 70.5 10t71.5 38l65 -106q-38 -32 -93 -50t-116 -18q-49 0 -96 14t-84 41.5t-60 69t-23 97.5v258q0 55 22.5 96.5t59 69.5t83.5 42
t96 14q60 0 115.5 -16t95.5 -51zM314 739q-32 0 -52.5 21.5t-20.5 52.5q0 30 20.5 51.5t51.5 21.5t52 -21.5t21 -51.5t-19 -52t-53 -22z" />
    <glyph glyph-name="cdotaccent" unicode="&#x10b;" horiz-adv-x="453" 
d="M436 68q-22 -23 -45 -37.5t-47 -22.5t-47.5 -10.5t-47.5 -2.5q-41 0 -78 11t-65 33.5t-44.5 56t-16.5 78.5v146q0 45 18 79t47 56.5t65.5 34t73.5 11.5q23 0 47 -2t47.5 -9t46.5 -20.5t45 -36.5l-73 -93q-35 31 -59.5 37.5t-42.5 6.5q-15 0 -31 -4.5t-28.5 -15t-20.5 -27
t-8 -39.5v-99q0 -24 7.5 -40.5t19.5 -27t27.5 -15t31.5 -4.5q20 0 48.5 9t53.5 34zM254 563q-32 0 -52.5 21.5t-20.5 52.5q0 30 20.5 51.5t51.5 21.5t52 -21.5t21 -51.5t-19 -52t-53 -22z" />
    <glyph glyph-name="Ccaron" unicode="&#x10c;" horiz-adv-x="561" 
d="M464 522q-32 27 -69 37.5t-72 10.5q-23 0 -46 -6.5t-41 -21.5t-29.5 -39t-11.5 -58v-201q0 -34 11.5 -57.5t30 -38.5t41 -22t45.5 -7q35 0 70.5 10t71.5 38l65 -106q-38 -32 -93 -50t-116 -18q-49 0 -96 14t-84 41.5t-60 69t-23 97.5v258q0 55 22.5 96.5t59 69.5t83.5 42
t96 14q60 0 115.5 -16t95.5 -51zM448 908l44 -53l-148 -122h-84l-149 123l41 51l149 -80z" />
    <glyph glyph-name="ccaron" unicode="&#x10d;" horiz-adv-x="453" 
d="M436 68q-22 -23 -45 -37.5t-47 -22.5t-47.5 -10.5t-47.5 -2.5q-41 0 -78 11t-65 33.5t-44.5 56t-16.5 78.5v146q0 45 18 79t47 56.5t65.5 34t73.5 11.5q23 0 47 -2t47.5 -9t46.5 -20.5t45 -36.5l-73 -93q-35 31 -59.5 37.5t-42.5 6.5q-15 0 -31 -4.5t-28.5 -15t-20.5 -27
t-8 -39.5v-99q0 -24 7.5 -40.5t19.5 -27t27.5 -15t31.5 -4.5q20 0 48.5 9t53.5 34zM390 731l51 -46l-147 -154h-87l-148 155l49 44q12 -8 31 -22t39.5 -29.5t40 -29.5t31.5 -23z" />
    <glyph glyph-name="Dcaron" unicode="&#x10e;" horiz-adv-x="617" 
d="M566 221q0 -54 -20.5 -95.5t-55 -69.5t-79 -42t-91.5 -14h-260v689h261q47 0 91.5 -13.5t78.5 -41.5t54.5 -69.5t20.5 -96.5v-247zM427 442q0 34 -11.5 57.5t-29.5 38.5t-40.5 21.5t-45.5 6.5h-104v-445h104q22 0 44.5 6.5t41 21.5t30 38.5t11.5 58.5v196zM425 908
l44 -53l-148 -122h-84l-149 123l41 51l149 -80z" />
    <glyph glyph-name="dcaron" unicode="&#x10f;" horiz-adv-x="661" 
d="M515 513q26 17 40.5 34t17.5 40q-22 4 -38 23t-16 48q0 32 23 53.5t54 21.5q41 0 63 -28.5t22 -70.5q0 -58 -35 -105t-89 -73zM42 322q0 81 45 130t128 49q26 0 62 -5.5t71 -22.5v243h128v-716h-118l-10 46q-42 -26 -77.5 -38.5t-61.5 -12.5q-81 0 -124 44.5t-43 136.5
v146zM170 187q0 -43 18.5 -58.5t44.5 -15.5q12 0 26.5 3.5t30 9.5t30.5 13.5t28 16.5v198q-32 14 -57 20.5t-49 6.5q-30 0 -51 -18t-21 -60v-116z" />
    <glyph glyph-name="Dcroat" unicode="&#x110;" horiz-adv-x="617" 
d="M6 391h54v298h261q47 0 91.5 -13.5t78.5 -41.5t54.5 -69.5t20.5 -96.5v-247q0 -54 -20.5 -95.5t-55 -69.5t-79 -42t-91.5 -14h-260v296h-54v95zM427 442q0 34 -11.5 57.5t-29.5 38.5t-40.5 21.5t-45.5 6.5h-104v-175h105v-95h-105v-175h104q22 0 44.5 6.5t41 21.5
t30 38.5t11.5 58.5v196z" />
    <glyph glyph-name="dcroat" unicode="&#x111;" horiz-adv-x="525" 
d="M205 638h143v78h128v-78h45v-81h-45v-557h-118l-10 46q-42 -26 -77.5 -38.5t-61.5 -12.5q-81 0 -124 44.5t-43 136.5v146q0 81 45 130t128 49q26 0 62 -5.5t71 -22.5v84h-143v81zM170 187q0 -43 18.5 -58.5t44.5 -15.5q12 0 26.5 3.5t30 9.5t30.5 13.5t28 16.5v198
q-32 14 -57 20.5t-49 6.5q-30 0 -51 -18t-21 -60v-116z" />
    <glyph glyph-name="Emacron" unicode="&#x112;" horiz-adv-x="577" 
d="M60 689h475v-123h-338v-158h289v-123h-289v-163h338v-122h-475v689zM147 765v104h312v-104h-312z" />
    <glyph glyph-name="emacron" unicode="&#x113;" horiz-adv-x="508" 
d="M172 210v-16q0 -22 7.5 -38t20 -26t28.5 -15t34 -5q21 0 52 6.5t66 34.5l70 -87q-23 -22 -46 -35.5t-46 -21t-46.5 -10t-47.5 -2.5q-44 0 -83.5 11t-69.5 33.5t-48 56.5t-18 81v128q0 46 16.5 82.5t45.5 61.5t67 38t82 13q46 0 85 -13t67 -37.5t44 -60.5t16 -82v-97h-296
zM106 585v104h312v-104h-312zM341 303q0 42 -25 61.5t-59 19.5q-35 0 -60 -22t-25 -63v-6h169v10z" />
    <glyph glyph-name="Ebreve" unicode="&#x114;" horiz-adv-x="577" 
d="M60 689h475v-123h-338v-158h289v-123h-289v-163h338v-122h-475v689zM302 731q-42 0 -70.5 15.5t-46 38t-25.5 49t-10 48.5h91q0 -10 4 -22t11.5 -22t19 -16.5t26.5 -6.5t26.5 6.5t19 16.5t11.5 22t4 22h91q-3 -22 -11 -48.5t-25.5 -49t-45.5 -38t-70 -15.5z" />
    <glyph glyph-name="ebreve" unicode="&#x115;" horiz-adv-x="508" 
d="M172 210v-16q0 -22 7.5 -38t20 -26t28.5 -15t34 -5q21 0 52 6.5t66 34.5l70 -87q-23 -22 -46 -35.5t-46 -21t-46.5 -10t-47.5 -2.5q-44 0 -83.5 11t-69.5 33.5t-48 56.5t-18 81v128q0 46 16.5 82.5t45.5 61.5t67 38t82 13q46 0 85 -13t67 -37.5t44 -60.5t16 -82v-97h-296
zM262 563q-42 0 -70.5 15.5t-46 38t-25.5 49t-10 48.5h92q0 -10 4 -21.5t11.5 -21.5t18.5 -16.5t26 -6.5q16 0 27.5 6.5t19 16.5t11.5 21.5t4 21.5h91q-3 -22 -11 -48.5t-25.5 -49t-45.5 -38t-71 -15.5zM341 303q0 42 -25 61.5t-59 19.5q-35 0 -60 -22t-25 -63v-6h169v10z
" />
    <glyph glyph-name="Edotaccent" unicode="&#x116;" horiz-adv-x="577" 
d="M60 689h475v-123h-338v-158h289v-123h-289v-163h338v-122h-475v689zM305 739q-32 0 -52.5 21.5t-20.5 52.5q0 30 20.5 51.5t51.5 21.5t52 -21.5t21 -51.5t-19 -52t-53 -22z" />
    <glyph glyph-name="edotaccent" unicode="&#x117;" horiz-adv-x="508" 
d="M172 210v-16q0 -22 7.5 -38t20 -26t28.5 -15t34 -5q21 0 52 6.5t66 34.5l70 -87q-23 -22 -46 -35.5t-46 -21t-46.5 -10t-47.5 -2.5q-44 0 -83.5 11t-69.5 33.5t-48 56.5t-18 81v128q0 46 16.5 82.5t45.5 61.5t67 38t82 13q46 0 85 -13t67 -37.5t44 -60.5t16 -82v-97h-296
zM260 563q-32 0 -52.5 21.5t-20.5 52.5q0 30 20.5 51.5t51.5 21.5t52 -21.5t21 -51.5t-19 -52t-53 -22zM341 303q0 42 -25 61.5t-59 19.5q-35 0 -60 -22t-25 -63v-6h169v10z" />
    <glyph glyph-name="Eogonek" unicode="&#x118;" horiz-adv-x="577" 
d="M60 689h475v-123h-338v-158h289v-123h-289v-163h338v-122q-21 -29 -30.5 -49t-9.5 -36q0 -32 37 -32q20 0 61 16l26 -65q-23 -13 -50 -21t-53 -8q-46 0 -75 28t-29 67q0 20 8 44t31 56h-391v689z" />
    <glyph glyph-name="eogonek" unicode="&#x119;" horiz-adv-x="508" 
d="M293 -64q0 14 3.5 29t12.5 32q-11 -1 -22.5 -1.5t-22.5 -0.5q-44 0 -83.5 11t-69.5 33.5t-48 56.5t-18 81v128q0 46 16.5 82.5t45.5 61.5t67 38t82 13q46 0 85 -13t67 -37.5t44 -60.5t16 -82v-97h-296v-16q0 -22 7.5 -38t20 -26t28.5 -15t34 -5q21 0 52 6.5t66 34.5
l70 -87q-17 -16 -34 -28q-21 -29 -30.5 -49t-9.5 -36q0 -32 37 -32q20 0 61 16l26 -65q-23 -13 -50 -21t-53 -8q-46 0 -75 28t-29 67zM341 303q0 42 -25 61.5t-59 19.5q-35 0 -60 -22t-25 -63v-6h169v10z" />
    <glyph glyph-name="Ecaron" unicode="&#x11a;" horiz-adv-x="577" 
d="M60 689h475v-123h-338v-158h289v-123h-289v-163h338v-122h-475v689zM447 908l44 -53l-148 -122h-84l-149 123l41 51l149 -80z" />
    <glyph glyph-name="ecaron" unicode="&#x11b;" horiz-adv-x="508" 
d="M172 210v-16q0 -22 7.5 -38t20 -26t28.5 -15t34 -5q21 0 52 6.5t66 34.5l70 -87q-23 -22 -46 -35.5t-46 -21t-46.5 -10t-47.5 -2.5q-44 0 -83.5 11t-69.5 33.5t-48 56.5t-18 81v128q0 46 16.5 82.5t45.5 61.5t67 38t82 13q46 0 85 -13t67 -37.5t44 -60.5t16 -82v-97h-296
zM399 731l51 -46l-147 -154h-87l-148 155l49 44q12 -8 31 -22t39.5 -29.5t40 -29.5t31.5 -23zM341 303q0 42 -25 61.5t-59 19.5q-35 0 -60 -22t-25 -63v-6h169v10z" />
    <glyph glyph-name="Gcircumflex" unicode="&#x11c;" horiz-adv-x="606" 
d="M550 91q-23 -28 -51 -46.5t-58 -30t-60.5 -16.5t-57.5 -5q-48 0 -95.5 14t-85 41.5t-61 69t-23.5 97.5v255q0 55 22.5 97.5t60 71t85.5 43t99 14.5q60 0 117 -16.5t97 -51.5l-67 -106q-32 27 -71 37.5t-74 10.5q-24 0 -47.5 -6.5t-42 -21.5t-30.5 -39t-12 -58v-201
q0 -34 11 -57.5t29 -38.5t41 -22t47 -7q20 0 43.5 5.5t46.5 24.5v115h-100v117h237v-290zM314 812l-148 -81l-42 52l150 122h83l149 -122l-44 -53z" />
    <glyph glyph-name="gcircumflex" unicode="&#x11d;" horiz-adv-x="524" 
d="M475 -27q0 -46 -21.5 -80t-54.5 -56t-73.5 -32.5t-78.5 -10.5q-24 0 -49.5 3.5t-51.5 12.5t-51 24.5t-47 39.5l82 84q12 -14 27.5 -23t32 -14t31.5 -7.5t26 -2.5q20 0 38.5 4.5t32 15t21.5 26.5t8 40v48q-44 -26 -81 -35t-63 -9q-83 0 -122.5 48.5t-39.5 129.5v139
q0 88 44 135t122 47q26 0 62 -10.5t78 -36.5l10 41h118v-521zM169 196q0 -42 18 -58.5t45 -16.5q24 0 54.5 12t60.5 31v173q-26 19 -58 31.5t-57 12.5q-26 0 -44.5 -17.5t-18.5 -58.5v-109zM259 636q-12 -8 -31.5 -22.5t-40 -29.5t-39.5 -29.5t-31 -22.5l-49 44l148 155h87
l147 -154l-51 -46z" />
    <glyph glyph-name="Gbreve" unicode="&#x11e;" horiz-adv-x="606" 
d="M550 91q-23 -28 -51 -46.5t-58 -30t-60.5 -16.5t-57.5 -5q-48 0 -95.5 14t-85 41.5t-61 69t-23.5 97.5v255q0 55 22.5 97.5t60 71t85.5 43t99 14.5q60 0 117 -16.5t97 -51.5l-67 -106q-32 27 -71 37.5t-74 10.5q-24 0 -47.5 -6.5t-42 -21.5t-30.5 -39t-12 -58v-201
q0 -34 11 -57.5t29 -38.5t41 -22t47 -7q20 0 43.5 5.5t46.5 24.5v115h-100v117h237v-290zM317 731q-42 0 -70.5 15.5t-46 38t-25.5 49t-10 48.5h91q0 -10 4 -22t11.5 -22t19 -16.5t26.5 -6.5t26.5 6.5t19 16.5t11.5 22t4 22h91q-3 -22 -11 -48.5t-25.5 -49t-45.5 -38
t-70 -15.5z" />
    <glyph glyph-name="gbreve" unicode="&#x11f;" horiz-adv-x="524" 
d="M475 -27q0 -46 -21.5 -80t-54.5 -56t-73.5 -32.5t-78.5 -10.5q-24 0 -49.5 3.5t-51.5 12.5t-51 24.5t-47 39.5l82 84q12 -14 27.5 -23t32 -14t31.5 -7.5t26 -2.5q20 0 38.5 4.5t32 15t21.5 26.5t8 40v48q-44 -26 -81 -35t-63 -9q-83 0 -122.5 48.5t-39.5 129.5v139
q0 88 44 135t122 47q26 0 62 -10.5t78 -36.5l10 41h118v-521zM169 196q0 -42 18 -58.5t45 -16.5q24 0 54.5 12t60.5 31v173q-26 19 -58 31.5t-57 12.5q-26 0 -44.5 -17.5t-18.5 -58.5v-109zM275 563q-42 0 -70.5 15.5t-46 38t-25.5 49t-10 48.5h92q0 -10 4 -21.5t11.5 -21.5
t18.5 -16.5t26 -6.5q16 0 27.5 6.5t19 16.5t11.5 21.5t4 21.5h91q-3 -22 -11 -48.5t-25.5 -49t-45.5 -38t-71 -15.5z" />
    <glyph glyph-name="Gdotaccent" unicode="&#x120;" horiz-adv-x="606" 
d="M550 91q-23 -28 -51 -46.5t-58 -30t-60.5 -16.5t-57.5 -5q-48 0 -95.5 14t-85 41.5t-61 69t-23.5 97.5v255q0 55 22.5 97.5t60 71t85.5 43t99 14.5q60 0 117 -16.5t97 -51.5l-67 -106q-32 27 -71 37.5t-74 10.5q-24 0 -47.5 -6.5t-42 -21.5t-30.5 -39t-12 -58v-201
q0 -34 11 -57.5t29 -38.5t41 -22t47 -7q20 0 43.5 5.5t46.5 24.5v115h-100v117h237v-290zM321 739q-32 0 -52.5 21.5t-20.5 52.5q0 30 20.5 51.5t51.5 21.5t52 -21.5t21 -51.5t-19 -52t-53 -22z" />
    <glyph glyph-name="gdotaccent" unicode="&#x121;" horiz-adv-x="524" 
d="M475 -27q0 -46 -21.5 -80t-54.5 -56t-73.5 -32.5t-78.5 -10.5q-24 0 -49.5 3.5t-51.5 12.5t-51 24.5t-47 39.5l82 84q12 -14 27.5 -23t32 -14t31.5 -7.5t26 -2.5q20 0 38.5 4.5t32 15t21.5 26.5t8 40v48q-44 -26 -81 -35t-63 -9q-83 0 -122.5 48.5t-39.5 129.5v139
q0 88 44 135t122 47q26 0 62 -10.5t78 -36.5l10 41h118v-521zM169 196q0 -42 18 -58.5t45 -16.5q24 0 54.5 12t60.5 31v173q-26 19 -58 31.5t-57 12.5q-26 0 -44.5 -17.5t-18.5 -58.5v-109zM272 563q-32 0 -52.5 21.5t-20.5 52.5q0 30 20.5 51.5t51.5 21.5t52 -21.5
t21 -51.5t-19 -52t-53 -22z" />
    <glyph glyph-name="Gcommaaccent" unicode="&#x122;" horiz-adv-x="606" 
d="M550 91q-23 -28 -51 -46.5t-58 -30t-60.5 -16.5t-57.5 -5q-48 0 -95.5 14t-85 41.5t-61 69t-23.5 97.5v255q0 55 22.5 97.5t60 71t85.5 43t99 14.5q60 0 117 -16.5t97 -51.5l-67 -106q-32 27 -71 37.5t-74 10.5q-24 0 -47.5 -6.5t-42 -21.5t-30.5 -39t-12 -58v-201
q0 -34 11 -57.5t29 -38.5t41 -22t47 -7q20 0 43.5 5.5t46.5 24.5v115h-100v117h237v-290zM234 -261q26 17 40.5 34t17.5 40q-22 4 -38 23t-16 48q0 32 23 53.5t54 21.5q41 0 63 -28.5t22 -70.5q0 -58 -35 -105t-89 -73z" />
    <glyph glyph-name="gcommaaccent" unicode="&#x123;" horiz-adv-x="524" 
d="M366 756q-26 -17 -40.5 -34t-17.5 -40q22 -4 38 -23t16 -48q0 -32 -23 -53.5t-54 -21.5q-41 0 -63 28.5t-22 70.5q0 58 35 105t89 73zM475 -27q0 -46 -21.5 -80t-54.5 -56t-73.5 -32.5t-78.5 -10.5q-24 0 -49.5 3.5t-51.5 12.5t-51 24.5t-47 39.5l82 84q12 -14 27.5 -23
t32 -14t31.5 -7.5t26 -2.5q20 0 38.5 4.5t32 15t21.5 26.5t8 40v48q-44 -26 -81 -35t-63 -9q-83 0 -122.5 48.5t-39.5 129.5v139q0 88 44 135t122 47q26 0 62 -10.5t78 -36.5l10 41h118v-521zM169 196q0 -42 18 -58.5t45 -16.5q24 0 54.5 12t60.5 31v173q-26 19 -58 31.5
t-57 12.5q-26 0 -44.5 -17.5t-18.5 -58.5v-109z" />
    <glyph glyph-name="Hcircumflex" unicode="&#x124;" horiz-adv-x="646" 
d="M449 0v288h-254v-288h-137v689h137v-277h254v277h139v-689h-139zM319 812l-148 -81l-42 52l150 122h83l149 -122l-44 -53z" />
    <glyph glyph-name="hcircumflex" unicode="&#x125;" horiz-adv-x="529" 
d="M357 0v305q0 42 -20 58.5t-45 16.5q-23 0 -51 -10.5t-65 -33.5v-336h-127v716h127v-266q54 34 91 42.5t63 8.5q84 0 120 -49.5t36 -130.5v-321h-129zM112 812l-148 -81l-42 52l150 122h83l149 -122l-44 -53z" />
    <glyph glyph-name="Hbar" unicode="&#x126;" horiz-adv-x="646" 
d="M449 0v288h-254v-288h-137v512h-40v85h40v92h137v-92h254v92h139v-92h50v-85h-50v-512h-139zM449 412v100h-254v-100h254z" />
    <glyph glyph-name="hbar" unicode="&#x127;" horiz-adv-x="529" 
d="M357 0v305q0 42 -20 58.5t-45 16.5q-23 0 -51 -10.5t-65 -33.5v-336h-127v563h-49v85h49v68h127v-68h186v-85h-186v-113q54 34 91 42.5t63 8.5q84 0 120 -49.5t36 -130.5v-321h-129z" />
    <glyph glyph-name="Itilde" unicode="&#x128;" horiz-adv-x="297" 
d="M217 689v-689h-137v689h137zM85 881q19 -1 38 -8.5t36 -16.5t32 -16.5t27 -7.5q17 0 30.5 10t32.5 36l64 -38q-26 -55 -53.5 -79t-62.5 -24q-20 0 -38.5 7t-36 15.5t-33 15.5t-29.5 7q-17 0 -31.5 -7.5t-36.5 -35.5l-64 38q25 51 54 77.5t71 26.5z" />
    <glyph glyph-name="itilde" unicode="&#x129;" horiz-adv-x="355" 
d="M116 0v494h127v-494h-127zM110 711q19 -1 38 -8.5t36 -16.5t32 -16.5t27 -7.5q17 0 30.5 10t32.5 36l64 -38q-26 -55 -53.5 -79t-62.5 -24q-20 0 -38.5 7t-36 15.5t-33 15.5t-29.5 7q-17 0 -31.5 -7.5t-36.5 -35.5l-64 38q25 51 54 77.5t71 26.5z" />
    <glyph glyph-name="Imacron" unicode="&#x12a;" horiz-adv-x="297" 
d="M217 689v-689h-137v689h137zM-5 765v104h312v-104h-312z" />
    <glyph glyph-name="imacron" unicode="&#x12b;" horiz-adv-x="302" 
d="M89 0v494h127v-494h-127zM-5 585v104h312v-104h-312z" />
    <glyph glyph-name="Ibreve" unicode="&#x12c;" horiz-adv-x="297" 
d="M152 731q-42 0 -70.5 15.5t-46 38t-25.5 49t-10 48.5h91q0 -10 4 -22t11.5 -22t19 -16.5t26.5 -6.5t26.5 6.5t19 16.5t11.5 22t4 22h91q-3 -22 -11 -48.5t-25.5 -49t-45.5 -38t-70 -15.5zM217 689v-689h-137v689h137z" />
    <glyph glyph-name="ibreve" unicode="&#x12d;" horiz-adv-x="295" 
d="M87 0v494h127v-494h-127zM147 569q-42 0 -70.5 15.5t-46 38t-25.5 49t-10 48.5h92q0 -10 4 -21.5t11.5 -21.5t18.5 -16.5t26 -6.5q16 0 27.5 6.5t19 16.5t11.5 21.5t4 21.5h91q-3 -22 -11 -48.5t-25.5 -49t-45.5 -38t-71 -15.5z" />
    <glyph glyph-name="Iogonek" unicode="&#x12e;" horiz-adv-x="297" 
d="M68 -100q0 20 8 44t31 56h-27v689h137v-689h-26q-21 -29 -30.5 -49t-9.5 -36q0 -32 37 -32q20 0 61 16l26 -65q-23 -13 -50 -21t-53 -8q-46 0 -75 28t-29 67z" />
    <glyph glyph-name="iogonek" unicode="&#x12f;" horiz-adv-x="269" 
d="M55 -99q0 20 8 43.5t30 55.5h-22v494h127v-494h-21q-39 -55 -39 -84q0 -32 37 -32q20 0 61 16l26 -65q-23 -13 -50 -21t-53 -8q-46 0 -75 28t-29 67zM63 628q0 30 21 51t50 21t50 -21t21 -51t-21 -50.5t-50 -20.5t-50 20.5t-21 50.5z" />
    <glyph glyph-name="Idotaccent" unicode="&#x130;" horiz-adv-x="297" 
d="M217 689v-689h-137v689h137zM150 739q-32 0 -52.5 21.5t-20.5 52.5q0 30 20.5 51.5t51.5 21.5t52 -21.5t21 -51.5t-19 -52t-53 -22z" />
    <glyph glyph-name="dotlessi" unicode="&#x131;" horiz-adv-x="269" 
d="M71 0v494h127v-494h-127z" />
    <glyph glyph-name="IJ" unicode="&#x132;" horiz-adv-x="796" 
d="M217 689v-689h-137v689h137zM725 216q0 -56 -20.5 -97.5t-54.5 -69t-78.5 -41.5t-91.5 -14q-58 0 -115.5 15.5t-96.5 47.5l64 106q35 -26 67 -35.5t63 -9.5q27 0 50 6.5t39.5 22t26 40.5t9.5 62v440h138v-473z" />
    <glyph glyph-name="ij" unicode="&#x133;" horiz-adv-x="520" 
d="M71 0v494h127v-494h-127zM63 628q0 30 21 51t50 21t50 -21t21 -51t-21 -50.5t-50 -20.5t-50 20.5t-21 50.5zM451 -52q0 -72 -44 -110.5t-114 -38.5h-57v109h32q34 0 44.5 17t10.5 43v526h128v-546zM316 629q0 29 20.5 50t50.5 21t51 -21t21 -50q0 -30 -21 -50.5
t-51 -20.5t-50.5 20.5t-20.5 50.5z" />
    <glyph glyph-name="Jcircumflex" unicode="&#x134;" horiz-adv-x="533" 
d="M462 217q0 -56 -20.5 -97.5t-54.5 -69t-78.5 -41.5t-91.5 -14q-58 0 -115.5 15.5t-96.5 47.5l64 106q35 -26 67 -35.5t63 -9.5q27 0 50 6.5t39.5 22t26 40.5t9.5 62v440h138v-473zM394 814l-148 -81l-42 52l150 122h83l149 -122l-44 -53z" />
    <glyph glyph-name="jcircumflex" unicode="&#x135;" horiz-adv-x="372" 
d="M250 -52q0 -72 -44 -110.5t-114 -38.5h-57v108h32q34 0 44.5 17t10.5 44v526h128v-546zM186 636q-12 -8 -31.5 -22.5t-40 -29.5t-39.5 -29.5t-31 -22.5l-49 44l148 155h87l147 -154l-51 -46z" />
    <glyph glyph-name="Kcommaaccent" unicode="&#x136;" horiz-adv-x="628" 
d="M200 392q29 32 57 66t55 67l135 164h162l-229 -278l245 -411h-161l-174 303q-24 -28 -48 -55.5t-47 -55.5v-192h-137v689h137v-297h5zM239 -241q26 17 40.5 34t17.5 40q-22 4 -38 23t-16 48q0 32 23 53.5t54 21.5q41 0 63 -28.5t22 -70.5q0 -58 -35 -105t-89 -73z" />
    <glyph glyph-name="kcommaaccent" unicode="&#x137;" horiz-adv-x="514" 
d="M49 0v716h128v-368h41q29 0 47.5 13t33.5 43l46 92h144l-60 -124q-14 -29 -30 -49t-46 -31q21 -7 35 -18.5t23 -25.5t15 -30t11 -32l62 -186h-143l-50 161q-12 37 -31.5 52.5t-57.5 15.5h-40v-229h-128zM181 -261q26 17 40.5 34t17.5 40q-22 4 -38 23t-16 48
q0 32 23 53.5t54 21.5q41 0 63 -28.5t22 -70.5q0 -58 -35 -105t-89 -73z" />
    <glyph glyph-name="kgreenlandic" unicode="&#x138;" horiz-adv-x="524" 
d="M50 0v496h128v-184h41q32 0 54.5 13t37.5 54l43 117h136l-52 -144q-12 -35 -28.5 -58t-47.5 -35q37 -12 53 -36.5t28 -61.5l56 -161h-142l-39 131q-7 22 -16.5 35.5t-21.5 21t-27 9.5t-33 2h-42v-199h-128z" />
    <glyph glyph-name="Lacute" unicode="&#x139;" horiz-adv-x="545" 
d="M62 0v689h135v-567h341v-122h-476zM74 795l170 126l80 -92l-200 -95z" />
    <glyph glyph-name="lacute" unicode="&#x13a;" horiz-adv-x="285" 
d="M194 159q0 -17 2.5 -27t10 -15.5t20.5 -7.5t34 -2l2 -107q-17 -3 -32 -4t-29 -1q-45 0 -71.5 10t-41 28.5t-18.5 44t-4 57.5v581h127v-557zM79 806l170 126l80 -92l-200 -95z" />
    <glyph glyph-name="Lcommaaccent" unicode="&#x13b;" horiz-adv-x="545" 
d="M62 0v689h135v-567h341v-122h-476zM210 -261q26 17 40.5 34t17.5 40q-22 4 -38 23t-16 48q0 32 23 53.5t54 21.5q41 0 63 -28.5t22 -70.5q0 -58 -35 -105t-89 -73z" />
    <glyph glyph-name="lcommaaccent" unicode="&#x13c;" horiz-adv-x="285" 
d="M194 159q0 -17 2.5 -27t10 -15.5t20.5 -7.5t34 -2l2 -107q-17 -3 -32 -4t-29 -1q-45 0 -71.5 10t-41 28.5t-18.5 44t-4 57.5v581h127v-557zM68 -258q26 17 40.5 34t17.5 40q-22 4 -38 23t-16 48q0 32 23 53.5t54 21.5q41 0 63 -28.5t22 -70.5q0 -58 -35 -105t-89 -73z
" />
    <glyph glyph-name="Lcaron" unicode="&#x13d;" horiz-adv-x="545" 
d="M62 0v689h135v-567h341v-122h-476zM298 473q26 17 40.5 34t17.5 40q-22 4 -38 23t-16 48q0 32 23 53.5t54 21.5q41 0 63 -28.5t22 -70.5q0 -58 -35 -105t-89 -73z" />
    <glyph glyph-name="lcaron" unicode="&#x13e;" horiz-adv-x="392" 
d="M227 497q26 17 40.5 34t17.5 40q-22 4 -38 23t-16 48q0 32 23 53.5t54 21.5q41 0 63 -28.5t22 -70.5q0 -58 -35 -105t-89 -73zM194 159q0 -17 2.5 -27t10 -15.5t20.5 -7.5t34 -2l2 -107q-17 -3 -32 -4t-29 -1q-45 0 -71.5 10t-41 28.5t-18.5 44t-4 57.5v581h127v-557z
" />
    <glyph glyph-name="Ldot" unicode="&#x13f;" horiz-adv-x="545" 
d="M62 0v689h135v-567h341v-122h-476zM374 291q-32 0 -52.5 21.5t-20.5 52.5q0 30 20.5 51.5t51.5 21.5t52 -21.5t21 -51.5t-19 -52t-53 -22z" />
    <glyph glyph-name="ldot" unicode="&#x140;" horiz-adv-x="383" 
d="M313 304q-32 0 -52.5 21.5t-20.5 52.5q0 30 20.5 51.5t51.5 21.5t52 -21.5t21 -51.5t-19 -52t-53 -22zM194 159q0 -17 2.5 -27t10 -15.5t20.5 -7.5t34 -2l2 -107q-17 -3 -32 -4t-29 -1q-45 0 -71.5 10t-41 28.5t-18.5 44t-4 57.5v581h127v-557z" />
    <glyph glyph-name="Lslash" unicode="&#x141;" horiz-adv-x="558" 
d="M75 0v203l-35 -20l-45 78l80 46v382h135v-303l125 73l45 -78l-170 -99v-160h341v-122h-476z" />
    <glyph glyph-name="lslash" unicode="&#x142;" horiz-adv-x="318" 
d="M220 0q-62 0 -99 30.5t-37 104.5v129l-45 -27l-44 77l89 54v348h126v-272l59 36l22 -38t22 -39q-26 -17 -51.5 -32.5t-51.5 -30.5v-182q0 -30 12.5 -41t34.5 -11h22v-106h-59z" />
    <glyph glyph-name="Nacute" unicode="&#x143;" horiz-adv-x="675" 
d="M196 434v-434h-136v689h124l160 -236l131 -200h4v436h137v-689h-125l-175 260l-114 174h-6zM253 795l170 126l80 -92l-200 -95z" />
    <glyph glyph-name="nacute" unicode="&#x144;" horiz-adv-x="529" 
d="M356 0v305q0 42 -19 58.5t-46 16.5q-23 0 -51 -10.5t-65 -33.5v-336h-127v494h117l10 -43q55 34 92.5 42t62.5 8q82 0 118.5 -48.5t36.5 -129.5v-323h-129zM199 568l81 195l116 -37l-123 -185z" />
    <glyph glyph-name="Ncommaaccent" unicode="&#x145;" horiz-adv-x="675" 
d="M196 434v-434h-136v689h124l160 -236l131 -200h4v436h137v-689h-125l-175 260l-114 174h-6zM264 -241q26 17 40.5 34t17.5 40q-22 4 -38 23t-16 48q0 32 23 53.5t54 21.5q41 0 63 -28.5t22 -70.5q0 -58 -35 -105t-89 -73z" />
    <glyph glyph-name="ncommaaccent" unicode="&#x146;" horiz-adv-x="529" 
d="M356 0v305q0 42 -19 58.5t-46 16.5q-23 0 -51 -10.5t-65 -33.5v-336h-127v494h117l10 -43q55 34 92.5 42t62.5 8q82 0 118.5 -48.5t36.5 -129.5v-323h-129zM184 -261q26 17 40.5 34t17.5 40q-22 4 -38 23t-16 48q0 32 23 53.5t54 21.5q41 0 63 -28.5t22 -70.5
q0 -58 -35 -105t-89 -73z" />
    <glyph glyph-name="Ncaron" unicode="&#x147;" horiz-adv-x="675" 
d="M196 434v-434h-136v689h124l160 -236l131 -200h4v436h137v-689h-125l-175 260l-114 174h-6zM478 908l44 -53l-148 -122h-84l-149 123l41 51l149 -80z" />
    <glyph glyph-name="ncaron" unicode="&#x148;" horiz-adv-x="529" 
d="M356 0v305q0 42 -19 58.5t-46 16.5q-23 0 -51 -10.5t-65 -33.5v-336h-127v494h117l10 -43q55 34 92.5 42t62.5 8q82 0 118.5 -48.5t36.5 -129.5v-323h-129zM394 731l51 -46l-147 -154h-87l-148 155l49 44q12 -8 31 -22t39.5 -29.5t40 -29.5t31.5 -23z" />
    <glyph glyph-name="napostrophe" unicode="&#x149;" horiz-adv-x="652" 
d="M479 0v305q0 42 -19 58.5t-46 16.5q-23 0 -51 -10.5t-65 -33.5v-336h-127v494h117l10 -43q55 34 92.5 42t62.5 8q82 0 118.5 -48.5t36.5 -129.5v-323h-129zM1 466q26 17 40.5 34t17.5 40q-22 4 -38 23t-16 48q0 32 23 53.5t54 21.5q41 0 63 -28.5t22 -70.5
q0 -58 -35 -105t-89 -73z" />
    <glyph glyph-name="Eng" unicode="&#x14a;" horiz-adv-x="675" 
d="M196 434v-434h-136v689h124l160 -236l131 -200h4v436h137l-1 -771q0 -32 -10 -54t-27.5 -36t-40 -20t-47.5 -6q-28 0 -56 6t-54 17l26 100q23 -5 38 -5q21 0 32 10.5t11 35.5v40l-171 254l-114 174h-6z" />
    <glyph glyph-name="eng" unicode="&#x14b;" horiz-adv-x="529" 
d="M485 -82q0 -32 -10 -54t-27.5 -36t-40.5 -20t-48 -6q-27 0 -55.5 6t-54.5 17l26 100q25 -5 38 -5q22 0 33 10.5t11 35.5l-1 339q0 42 -19 58.5t-46 16.5q-23 0 -51 -10.5t-65 -33.5v-336h-127v494h113l10 -43q56 34 95 42t64 8q82 0 118.5 -48.5t36.5 -129.5v-405v0z" />
    <glyph glyph-name="Omacron" unicode="&#x14c;" horiz-adv-x="638" 
d="M584 220q0 -56 -21 -98t-57 -71t-84.5 -43.5t-102.5 -14.5t-102.5 14.5t-84.5 43.5t-57 71t-21 98v253q0 55 22 97t59 70t85 42t99 14t99 -15t85 -43.5t59 -71t22 -97.5v-249zM446 445q0 34 -11 57.5t-29 38.5t-40.5 22t-46.5 7t-47 -7t-41 -22t-29 -38.5t-11 -57.5v-201
q0 -34 11 -58t29 -39t41 -21.5t47 -6.5t46.5 6.5t40.5 21.5t29 39t11 58v201zM167 765v104h312v-104h-312z" />
    <glyph glyph-name="omacron" unicode="&#x14d;" horiz-adv-x="519" 
d="M476 176q0 -46 -18.5 -80t-49 -56.5t-69.5 -33.5t-80 -11q-42 0 -81 11t-69.5 33.5t-48.5 56.5t-18 80v143q0 46 18.5 80t49 56.5t70 34t80.5 11.5q44 0 83.5 -11.5t69 -34.5t46.5 -57.5t17 -80.5v-141zM349 297q0 24 -8 40t-21 26.5t-28.5 15t-31.5 4.5t-32.5 -4.5
t-29.5 -15t-21 -26.5t-8 -40v-98q0 -24 7.5 -40.5t20.5 -27t29 -15t34 -4.5q16 0 31.5 4.5t28.5 15t21 27t8 40.5v98zM104 585v104h312v-104h-312z" />
    <glyph glyph-name="Obreve" unicode="&#x14e;" horiz-adv-x="638" 
d="M584 220q0 -56 -21 -98t-57 -71t-84.5 -43.5t-102.5 -14.5t-102.5 14.5t-84.5 43.5t-57 71t-21 98v253q0 55 22 97t59 70t85 42t99 14t99 -15t85 -43.5t59 -71t22 -97.5v-249zM446 445q0 34 -11 57.5t-29 38.5t-40.5 22t-46.5 7t-47 -7t-41 -22t-29 -38.5t-11 -57.5v-201
q0 -34 11 -58t29 -39t41 -21.5t47 -6.5t46.5 6.5t40.5 21.5t29 39t11 58v201zM321 731q-42 0 -70.5 15.5t-46 38t-25.5 49t-10 48.5h91q0 -10 4 -22t11.5 -22t19 -16.5t26.5 -6.5t26.5 6.5t19 16.5t11.5 22t4 22h91q-3 -22 -11 -48.5t-25.5 -49t-45.5 -38t-70 -15.5z" />
    <glyph glyph-name="obreve" unicode="&#x14f;" horiz-adv-x="519" 
d="M476 176q0 -46 -18.5 -80t-49 -56.5t-69.5 -33.5t-80 -11q-42 0 -81 11t-69.5 33.5t-48.5 56.5t-18 80v143q0 46 18.5 80t49 56.5t70 34t80.5 11.5q44 0 83.5 -11.5t69 -34.5t46.5 -57.5t17 -80.5v-141zM349 297q0 24 -8 40t-21 26.5t-28.5 15t-31.5 4.5t-32.5 -4.5
t-29.5 -15t-21 -26.5t-8 -40v-98q0 -24 7.5 -40.5t20.5 -27t29 -15t34 -4.5q16 0 31.5 4.5t28.5 15t21 27t8 40.5v98zM260 563q-42 0 -70.5 15.5t-46 38t-25.5 49t-10 48.5h92q0 -10 4 -21.5t11.5 -21.5t18.5 -16.5t26 -6.5q16 0 27.5 6.5t19 16.5t11.5 21.5t4 21.5h91
q-3 -22 -11 -48.5t-25.5 -49t-45.5 -38t-71 -15.5z" />
    <glyph glyph-name="Ohungarumlaut" unicode="&#x150;" horiz-adv-x="638" 
d="M584 220q0 -56 -21 -98t-57 -71t-84.5 -43.5t-102.5 -14.5t-102.5 14.5t-84.5 43.5t-57 71t-21 98v253q0 55 22 97t59 70t85 42t99 14t99 -15t85 -43.5t59 -71t22 -97.5v-249zM446 445q0 34 -11 57.5t-29 38.5t-40.5 22t-46.5 7t-47 -7t-41 -22t-29 -38.5t-11 -57.5v-201
q0 -34 11 -58t29 -39t41 -21.5t47 -6.5t46.5 6.5t40.5 21.5t29 39t11 58v201zM142 783l157 141l89 -83l-190 -113zM340 783l157 141l89 -83l-190 -113z" />
    <glyph glyph-name="ohungarumlaut" unicode="&#x151;" horiz-adv-x="519" 
d="M476 176q0 -46 -18.5 -80t-49 -56.5t-69.5 -33.5t-80 -11q-42 0 -81 11t-69.5 33.5t-48.5 56.5t-18 80v143q0 46 18.5 80t49 56.5t70 34t80.5 11.5q44 0 83.5 -11.5t69 -34.5t46.5 -57.5t17 -80.5v-141zM349 297q0 24 -8 40t-21 26.5t-28.5 15t-31.5 4.5t-32.5 -4.5
t-29.5 -15t-21 -26.5t-8 -40v-98q0 -24 7.5 -40.5t20.5 -27t29 -15t34 -4.5q16 0 31.5 4.5t28.5 15t21 27t8 40.5v98zM128 568l81 195l116 -37l-123 -185zM296 568l81 195l116 -37l-124 -185z" />
    <glyph glyph-name="OE" unicode="&#x152;" horiz-adv-x="909" 
d="M319 696q19 0 37.5 -2t36.5 -5h474v-123h-338v-158h289v-123h-289v-163h338v-122h-473q-18 -3 -36.5 -5t-38.5 -2q-54 0 -102.5 14.5t-84.5 43.5t-57 71t-21 98v253q0 55 22 97t59 70t85 42t99 14zM319 119q20 0 38.5 3t35.5 14v415q-17 11 -35.5 15t-38.5 4
q-24 0 -47 -7t-41 -22t-29 -38.5t-11 -57.5v-201q0 -34 11 -58t29 -39t41 -21.5t47 -6.5z" />
    <glyph glyph-name="oe" unicode="&#x153;" horiz-adv-x="815" 
d="M478 210v-16q0 -23 8.5 -39t22 -25.5t31 -13.5t36.5 -4q23 0 51 7t60 32q17 -23 34.5 -44t35.5 -43q-23 -22 -46 -35.5t-46 -21t-46.5 -10t-47.5 -2.5q-46 0 -86.5 12t-70.5 37q-31 -25 -71 -37t-83 -12q-42 0 -81 11.5t-69 34t-48 56.5t-18 79v143q0 45 18.5 79.5
t48.5 57t69 34t80 11.5q47 0 87 -13t69 -38q59 50 147 50q46 0 84.5 -13t66.5 -38t44 -60.5t16 -81.5v-97h-296zM351 298q0 24 -8.5 40t-21 26t-28.5 14.5t-32 4.5t-32.5 -4.5t-29.5 -15t-21 -26.5t-8 -40v-99q0 -24 7.5 -40t20.5 -26.5t29 -15t34 -4.5q15 0 31 4.5t29 14.5
t21.5 26t8.5 39v102zM647 303q0 42 -25 61.5t-59 19.5q-35 0 -60 -21.5t-25 -63.5v-6h169v10z" />
    <glyph glyph-name="Racute" unicode="&#x154;" horiz-adv-x="594" 
d="M366 689q52 0 89.5 -19.5t62 -50.5t36 -69.5t11.5 -75.5q0 -27 -7.5 -55.5t-22 -54t-35.5 -47t-48 -35.5l124 -282h-148q-4 11 -12.5 31.5t-19 45.5t-22 52.5t-22 52.5t-19 45.5t-13.5 31.5h-124v-259h-137v689h307zM196 383h139q48 0 72 25.5t24 65.5t-24.5 66t-71.5 26
h-139v-183zM218 795l170 126l80 -92l-200 -95z" />
    <glyph glyph-name="racute" unicode="&#x155;" horiz-adv-x="380" 
d="M371 371q-66 -6 -108.5 -20.5t-77.5 -35.5v-315h-127v496h117l9 -73h1q13 13 34.5 27t46.5 25.5t52 19t53 7.5v-131zM127 568l81 195l116 -37l-123 -185z" />
    <glyph glyph-name="Rcommaaccent" unicode="&#x156;" horiz-adv-x="594" 
d="M366 689q52 0 89.5 -19.5t62 -50.5t36 -69.5t11.5 -75.5q0 -27 -7.5 -55.5t-22 -54t-35.5 -47t-48 -35.5l124 -282h-148q-4 11 -12.5 31.5t-19 45.5t-22 52.5t-22 52.5t-19 45.5t-13.5 31.5h-124v-259h-137v689h307zM196 383h139q48 0 72 25.5t24 65.5t-24.5 66t-71.5 26
h-139v-183zM223 -241q26 17 40.5 34t17.5 40q-22 4 -38 23t-16 48q0 32 23 53.5t54 21.5q41 0 63 -28.5t22 -70.5q0 -58 -35 -105t-89 -73z" />
    <glyph glyph-name="rcommaaccent" unicode="&#x157;" horiz-adv-x="380" 
d="M371 371q-66 -6 -108.5 -20.5t-77.5 -35.5v-315h-127v496h117l9 -73h1q13 13 34.5 27t46.5 25.5t52 19t53 7.5v-131zM38 -261q26 17 40.5 34t17.5 40q-22 4 -38 23t-16 48q0 32 23 53.5t54 21.5q41 0 63 -28.5t22 -70.5q0 -58 -35 -105t-89 -73z" />
    <glyph glyph-name="Rcaron" unicode="&#x158;" horiz-adv-x="594" 
d="M366 689q52 0 89.5 -19.5t62 -50.5t36 -69.5t11.5 -75.5q0 -27 -7.5 -55.5t-22 -54t-35.5 -47t-48 -35.5l124 -282h-148q-4 11 -12.5 31.5t-19 45.5t-22 52.5t-22 52.5t-19 45.5t-13.5 31.5h-124v-259h-137v689h307zM196 383h139q48 0 72 25.5t24 65.5t-24.5 66t-71.5 26
h-139v-183zM436 908l44 -53l-148 -122h-84l-149 123l41 51l149 -80z" />
    <glyph glyph-name="rcaron" unicode="&#x159;" horiz-adv-x="380" 
d="M371 371q-66 -6 -108.5 -20.5t-77.5 -35.5v-315h-127v496h117l9 -73h1q13 13 34.5 27t46.5 25.5t52 19t53 7.5v-131zM325 731l51 -46l-147 -154h-87l-148 155l49 44q12 -8 31 -22t39.5 -29.5t40 -29.5t31.5 -23z" />
    <glyph glyph-name="Sacute" unicode="&#x15a;" horiz-adv-x="599" 
d="M565 199q0 -50 -20 -88.5t-55.5 -64t-83.5 -38.5t-104 -13q-75 0 -141 21t-129 74l77 100q45 -35 93.5 -53.5t96.5 -18.5q33 0 56 6.5t37 18t20.5 26t6.5 29.5q0 23 -11.5 38t-33 25.5t-51 19t-65.5 18.5q-40 10 -76.5 24.5t-64.5 37t-44.5 55t-16.5 78.5q0 45 17 83
t47.5 65.5t74 43t96.5 15.5q63 1 126 -12t122 -52l-60 -110q-48 29 -91 40t-85 11q-20 0 -39.5 -5t-35 -14.5t-25 -25t-9.5 -36.5t10.5 -35.5t30.5 -25t48.5 -18.5t64.5 -16q109 -24 163 -73t54 -130zM220 795l170 126l80 -92l-200 -95z" />
    <glyph glyph-name="sacute" unicode="&#x15b;" horiz-adv-x="467" 
d="M236 -5q-27 0 -54.5 2.5t-55 10t-55 21.5t-55.5 38l69 91q37 -31 74 -42.5t75 -11.5q34 0 56 12.5t22 34.5q0 18 -13.5 29t-47.5 17t-70.5 13.5t-66.5 22.5t-49 41t-19 69q0 39 16 68.5t42 49t59.5 29.5t69.5 10q59 0 107 -10.5t95 -46.5l-60 -95q-38 26 -73.5 33.5
t-66.5 7.5q-33 0 -48.5 -13t-15.5 -30q0 -19 20 -27t50.5 -14t65.5 -13t65.5 -22.5t50.5 -43t20 -74.5q0 -39 -16.5 -68t-45 -49t-66 -30t-79.5 -10zM180 568l81 195l116 -37l-123 -185z" />
    <glyph glyph-name="Scircumflex" unicode="&#x15c;" horiz-adv-x="599" 
d="M565 199q0 -50 -20 -88.5t-55.5 -64t-83.5 -38.5t-104 -13q-75 0 -141 21t-129 74l77 100q45 -35 93.5 -53.5t96.5 -18.5q33 0 56 6.5t37 18t20.5 26t6.5 29.5q0 23 -11.5 38t-33 25.5t-51 19t-65.5 18.5q-40 10 -76.5 24.5t-64.5 37t-44.5 55t-16.5 78.5q0 45 17 83
t47.5 65.5t74 43t96.5 15.5q63 1 126 -12t122 -52l-60 -110q-48 29 -91 40t-85 11q-20 0 -39.5 -5t-35 -14.5t-25 -25t-9.5 -36.5t10.5 -35.5t30.5 -25t48.5 -18.5t64.5 -16q109 -24 163 -73t54 -130zM302 812l-148 -81l-42 52l150 122h83l149 -122l-44 -53z" />
    <glyph glyph-name="scircumflex" unicode="&#x15d;" horiz-adv-x="467" 
d="M236 -5q-27 0 -54.5 2.5t-55 10t-55 21.5t-55.5 38l69 91q37 -31 74 -42.5t75 -11.5q34 0 56 12.5t22 34.5q0 18 -13.5 29t-47.5 17t-70.5 13.5t-66.5 22.5t-49 41t-19 69q0 39 16 68.5t42 49t59.5 29.5t69.5 10q59 0 107 -10.5t95 -46.5l-60 -95q-38 26 -73.5 33.5
t-66.5 7.5q-33 0 -48.5 -13t-15.5 -30q0 -19 20 -27t50.5 -14t65.5 -13t65.5 -22.5t50.5 -43t20 -74.5q0 -39 -16.5 -68t-45 -49t-66 -30t-79.5 -10zM244 636q-12 -8 -31.5 -22.5t-40 -29.5t-39.5 -29.5t-31 -22.5l-49 44l148 155h87l147 -154l-51 -46z" />
    <glyph glyph-name="Scedilla" unicode="&#x15e;" horiz-adv-x="599" 
d="M565 199q0 -48 -18.5 -85.5t-51.5 -63t-78 -39t-97 -15.5l-10 -33q27 -2 46 -11t30.5 -21t16.5 -26.5t5 -28.5q0 -16 -7.5 -32.5t-21.5 -29.5t-35.5 -21t-49.5 -8t-56 6.5t-51 18.5q5 14 11 27.5t11 27.5q24 -11 41.5 -13.5t33.5 -2.5q17 0 30 9t13 23t-9.5 22t-26.5 8
q-9 0 -18 -3q-9 5 -18 9.5t-18 9.5q5 18 10.5 35.5t11.5 34.5q-63 5 -118 26.5t-109 66.5l77 100q45 -35 93.5 -53.5t96.5 -18.5q33 0 56 6.5t37 18t20.5 26t6.5 29.5q0 23 -11.5 38t-33 25.5t-51 19t-65.5 18.5q-40 10 -76.5 24.5t-64.5 37t-44.5 55t-16.5 78.5q0 45 17 83
t47.5 65.5t74 43t96.5 15.5q63 1 126 -12t122 -52l-60 -110q-48 29 -91 40t-85 11q-20 0 -39.5 -5t-35 -14.5t-25 -25t-9.5 -36.5t10.5 -35.5t30.5 -25t48.5 -18.5t64.5 -16q109 -24 163 -73t54 -130z" />
    <glyph glyph-name="scedilla" unicode="&#x15f;" horiz-adv-x="467" 
d="M443 152q0 -36 -14 -63.5t-39 -47t-58 -31t-70 -14.5l-10 -33q27 -2 46 -11t30.5 -21t16.5 -26.5t5 -28.5q0 -16 -7.5 -32.5t-21.5 -29.5t-35.5 -21t-49.5 -8t-56 6.5t-51 18.5q5 14 11 27.5t11 27.5q24 -11 41.5 -13.5t33.5 -2.5q17 0 30 9t13 23t-9.5 22t-26.5 8
q-9 0 -18 -3q-9 5 -18 9.5t-18 9.5q10 36 22 69q-46 3 -91.5 17t-93.5 54l69 91q37 -31 74 -42.5t75 -11.5q34 0 56 12.5t22 34.5q0 18 -13.5 29t-47.5 17t-70.5 13.5t-66.5 22.5t-49 41t-19 69q0 39 16 68.5t42 49t59.5 29.5t69.5 10q59 0 107 -10.5t95 -46.5l-60 -95
q-38 26 -73.5 33.5t-66.5 7.5q-33 0 -48.5 -13t-15.5 -30q0 -19 20 -27t50.5 -14t65.5 -13t65.5 -22.5t50.5 -43t20 -74.5z" />
    <glyph glyph-name="Scaron" unicode="&#x160;" horiz-adv-x="599" 
d="M565 199q0 -50 -20 -88.5t-55.5 -64t-83.5 -38.5t-104 -13q-75 0 -141 21t-129 74l77 100q45 -35 93.5 -53.5t96.5 -18.5q33 0 56 6.5t37 18t20.5 26t6.5 29.5q0 23 -11.5 38t-33 25.5t-51 19t-65.5 18.5q-40 10 -76.5 24.5t-64.5 37t-44.5 55t-16.5 78.5q0 45 17 83
t47.5 65.5t74 43t96.5 15.5q63 1 126 -12t122 -52l-60 -110q-48 29 -91 40t-85 11q-20 0 -39.5 -5t-35 -14.5t-25 -25t-9.5 -36.5t10.5 -35.5t30.5 -25t48.5 -18.5t64.5 -16q109 -24 163 -73t54 -130zM453 908l44 -53l-148 -122h-84l-149 123l41 51l149 -80z" />
    <glyph glyph-name="scaron" unicode="&#x161;" horiz-adv-x="467" 
d="M236 -5q-27 0 -54.5 2.5t-55 10t-55 21.5t-55.5 38l69 91q37 -31 74 -42.5t75 -11.5q34 0 56 12.5t22 34.5q0 18 -13.5 29t-47.5 17t-70.5 13.5t-66.5 22.5t-49 41t-19 69q0 39 16 68.5t42 49t59.5 29.5t69.5 10q59 0 107 -10.5t95 -46.5l-60 -95q-38 26 -73.5 33.5
t-66.5 7.5q-33 0 -48.5 -13t-15.5 -30q0 -19 20 -27t50.5 -14t65.5 -13t65.5 -22.5t50.5 -43t20 -74.5q0 -39 -16.5 -68t-45 -49t-66 -30t-79.5 -10zM381 731l51 -46l-147 -154h-87l-148 155l49 44q12 -8 31 -22t39.5 -29.5t40 -29.5t31.5 -23z" />
    <glyph glyph-name="Tcommaaccent" unicode="&#x162;" horiz-adv-x="526" 
d="M332 565v-565h-137v565h-183v124h502v-124h-182zM180 -261q26 17 40.5 34t17.5 40q-22 4 -38 23t-16 48q0 32 23 53.5t54 21.5q41 0 63 -28.5t22 -70.5q0 -58 -35 -105t-89 -73z" />
    <glyph glyph-name="tcommaaccent" unicode="&#x163;" horiz-adv-x="377" 
d="M24 391v103h64l22 124h102v-124h120v-103h-120v-206q0 -35 11.5 -55t53.5 -20q14 0 32 2.5t40 8.5l23 -108q-32 -12 -66.5 -15.5t-58.5 -3.5q-48 0 -79.5 13t-49.5 36.5t-25 56t-7 70.5v221h-62zM88 -261q26 17 40.5 34t17.5 40q-22 4 -38 23t-16 48q0 32 23 53.5
t54 21.5q41 0 63 -28.5t22 -70.5q0 -58 -35 -105t-89 -73z" />
    <glyph glyph-name="Tcaron" unicode="&#x164;" horiz-adv-x="526" 
d="M332 565v-565h-137v565h-183v124h502v-124h-182zM413 908l44 -53l-148 -122h-84l-149 123l41 51l149 -80z" />
    <glyph glyph-name="tcaron" unicode="&#x165;" horiz-adv-x="419" 
d="M266 598q26 17 40.5 34t17.5 40q-22 4 -38 23t-16 48q0 32 23 53.5t54 21.5q41 0 63 -28.5t22 -70.5q0 -58 -35 -105t-89 -73zM24 391v103h64l22 124h102v-124h120v-103h-120v-206q0 -35 11.5 -55t53.5 -20q14 0 32 2.5t40 8.5l23 -108q-32 -12 -66.5 -15.5t-58.5 -3.5
q-48 0 -79.5 13t-49.5 36.5t-25 56t-7 70.5v221h-62z" />
    <glyph glyph-name="Tbar" unicode="&#x166;" horiz-adv-x="526" 
d="M332 565v-162h156v-90h-156v-313h-137v313h-153v90h153v162h-183v124h502v-124h-182z" />
    <glyph glyph-name="tbar" unicode="&#x167;" horiz-adv-x="377" 
d="M24 391v103h64l22 124h102v-124h120v-103h-120v-80h120v-85h-120v-41q0 -35 11.5 -55t53.5 -20q14 0 33 2.5t41 8.5l23 -108q-32 -12 -67.5 -15.5t-59.5 -3.5q-48 0 -79.5 13t-49.5 36.5t-25 56t-7 70.5v56h-62v85h62v80h-62z" />
    <glyph glyph-name="Utilde" unicode="&#x168;" horiz-adv-x="644" 
d="M587 219q0 -56 -22 -98t-59 -70.5t-85 -43t-99 -14.5t-99 14t-84.5 42t-58.5 69.5t-22 97.5v473h136v-447q0 -34 11 -57.5t29 -38.5t41 -22t47 -7q23 0 46 7t41 22t29 38.5t11 57.5v447h138v-470zM256 881q19 -1 38 -8.5t36 -16.5t32 -16.5t27 -7.5q17 0 30.5 10t32.5 36
l64 -38q-26 -55 -53.5 -79t-62.5 -24q-20 0 -38.5 7t-36 15.5t-33 15.5t-29.5 7q-17 0 -31.5 -7.5t-36.5 -35.5l-64 38q25 51 54 77.5t71 26.5z" />
    <glyph glyph-name="utilde" unicode="&#x169;" horiz-adv-x="531" 
d="M173 494v-305q0 -42 21 -58.5t45 -16.5q23 0 50 10.5t65 35.5v334h128v-494h-118l-10 43q-54 -33 -90 -41.5t-61 -8.5q-42 0 -72 14t-49 39t-28 59t-9 75v314h128zM194 711q19 -1 38 -8.5t36 -16.5t32 -16.5t27 -7.5q17 0 30.5 10t32.5 36l64 -38q-26 -55 -53.5 -79
t-62.5 -24q-20 0 -38.5 7t-36 15.5t-33 15.5t-29.5 7q-17 0 -31.5 -7.5t-36.5 -35.5l-64 38q25 51 54 77.5t71 26.5z" />
    <glyph glyph-name="Umacron" unicode="&#x16a;" horiz-adv-x="644" 
d="M587 219q0 -56 -22 -98t-59 -70.5t-85 -43t-99 -14.5t-99 14t-84.5 42t-58.5 69.5t-22 97.5v473h136v-447q0 -34 11 -57.5t29 -38.5t41 -22t47 -7q23 0 46 7t41 22t29 38.5t11 57.5v447h138v-470zM166 765v104h312v-104h-312z" />
    <glyph glyph-name="umacron" unicode="&#x16b;" horiz-adv-x="531" 
d="M173 494v-305q0 -42 21 -58.5t45 -16.5q23 0 50 10.5t65 35.5v334h128v-494h-118l-10 43q-54 -33 -90 -41.5t-61 -8.5q-42 0 -72 14t-49 39t-28 59t-9 75v314h128zM113 585v104h312v-104h-312z" />
    <glyph glyph-name="Ubreve" unicode="&#x16c;" horiz-adv-x="644" 
d="M587 219q0 -56 -22 -98t-59 -70.5t-85 -43t-99 -14.5t-99 14t-84.5 42t-58.5 69.5t-22 97.5v473h136v-447q0 -34 11 -57.5t29 -38.5t41 -22t47 -7q23 0 46 7t41 22t29 38.5t11 57.5v447h138v-470zM325 727q-42 0 -70.5 15.5t-46 38t-25.5 48.5t-10 48h91q0 -10 4.5 -21.5
t12 -21.5t18.5 -16.5t26 -6.5q16 0 27.5 6.5t19 16.5t11.5 21.5t4 21.5h90q-2 -22 -10.5 -48t-25.5 -48.5t-45.5 -38t-70.5 -15.5z" />
    <glyph glyph-name="ubreve" unicode="&#x16d;" horiz-adv-x="531" 
d="M173 494v-305q0 -42 21 -58.5t45 -16.5q23 0 50 10.5t65 35.5v334h128v-494h-118l-10 43q-54 -33 -90 -41.5t-61 -8.5q-42 0 -72 14t-49 39t-28 59t-9 75v314h128zM269 563q-42 0 -70.5 15.5t-46 38t-25.5 49t-10 48.5h92q0 -10 4 -21.5t11.5 -21.5t18.5 -16.5t26 -6.5
q16 0 27.5 6.5t19 16.5t11.5 21.5t4 21.5h91q-3 -22 -11 -48.5t-25.5 -49t-45.5 -38t-71 -15.5z" />
    <glyph glyph-name="Uring" unicode="&#x16e;" horiz-adv-x="644" 
d="M587 219q0 -56 -22 -98t-59 -70.5t-85 -43t-99 -14.5t-99 14t-84.5 42t-58.5 69.5t-22 97.5v473h136v-447q0 -34 11 -57.5t29 -38.5t41 -22t47 -7q23 0 46 7t41 22t29 38.5t11 57.5v447h138v-470zM370 810q0 18 -13 30.5t-32 12.5q-20 0 -33 -12.5t-13 -30.5t13 -30.5
t33 -12.5q19 0 32 12.5t13 30.5zM207 810q0 23 9.5 43.5t25.5 35.5t37.5 24t45.5 9t45.5 -9t37 -24t25 -35.5t9.5 -43.5t-9.5 -43.5t-25.5 -35.5t-37.5 -24t-45.5 -9t-45.5 9t-37 24t-25 35.5t-9.5 43.5z" />
    <glyph glyph-name="uring" unicode="&#x16f;" horiz-adv-x="531" 
d="M173 494v-305q0 -42 21 -58.5t45 -16.5q23 0 50 10.5t65 35.5v334h128v-494h-118l-10 43q-54 -33 -90 -41.5t-61 -8.5q-42 0 -72 14t-49 39t-28 59t-9 75v314h128zM314 643q0 18 -13 30.5t-32 12.5q-20 0 -33 -12.5t-13 -30.5t13 -30.5t33 -12.5q19 0 32 12.5t13 30.5z
M151 643q0 23 9.5 43.5t25.5 35.5t37.5 24t45.5 9t45.5 -9t37 -24t25 -35.5t9.5 -43.5t-9.5 -43.5t-25.5 -35.5t-37.5 -24t-45.5 -9t-45.5 9t-37 24t-25 35.5t-9.5 43.5z" />
    <glyph glyph-name="Uhungarumlaut" unicode="&#x170;" horiz-adv-x="644" 
d="M587 219q0 -56 -22 -98t-59 -70.5t-85 -43t-99 -14.5t-99 14t-84.5 42t-58.5 69.5t-22 97.5v473h136v-447q0 -34 11 -57.5t29 -38.5t41 -22t47 -7q23 0 46 7t41 22t29 38.5t11 57.5v447h138v-470zM141 783l157 141l89 -83l-190 -113zM339 783l157 141l89 -83l-190 -113z
" />
    <glyph glyph-name="uhungarumlaut" unicode="&#x171;" horiz-adv-x="531" 
d="M173 494v-305q0 -42 21 -58.5t45 -16.5q23 0 50 10.5t65 35.5v334h128v-494h-118l-10 43q-54 -33 -90 -41.5t-61 -8.5q-42 0 -72 14t-49 39t-28 59t-9 75v314h128zM112 568l81 195l116 -37l-123 -185zM280 568l81 195l116 -37l-124 -185z" />
    <glyph glyph-name="Uogonek" unicode="&#x172;" horiz-adv-x="644" 
d="M251 -98q0 20 7 41.5t27 51.5q-46 4 -87 20.5t-72 44t-49.5 66.5t-18.5 90v473h136v-447q0 -34 11 -57.5t29 -38.5t41 -22t47 -7q23 0 46 7t41 22t29 38.5t11 57.5v447h138v-470q0 -50 -17.5 -88.5t-47 -66.5t-69 -45t-83.5 -23q-19 -26 -27.5 -45t-8.5 -34q0 -32 37 -32
q20 0 61 16l26 -65q-23 -13 -50 -21t-53 -8q-46 0 -75 28t-29 67z" />
    <glyph glyph-name="uogonek" unicode="&#x173;" horiz-adv-x="531" 
d="M324 -98q0 21 8 44.5t31 55.5l-9 41q-54 -33 -90 -41.5t-61 -8.5q-42 0 -72 14t-49 39t-28 59t-9 75v314h128v-305q0 -42 21 -58.5t45 -16.5q23 0 50 10.5t65 35.5v334h128v-494h-37q-20 -29 -29 -48t-9 -35q0 -32 37 -32q20 0 61 16l26 -65q-23 -13 -50 -21t-53 -8
q-46 0 -75 28t-29 67z" />
    <glyph glyph-name="Wcircumflex" unicode="&#x174;" horiz-adv-x="908" 
d="M450 455l-49 -196l-64 -259h-151l-176 689h146l60 -272l46 -213h7l53 215l68 270h128l72 -284l50 -201h6l43 203l63 282h146l-178 -689h-149l-64 260l-50 195h-7zM451 812l-148 -81l-42 52l150 122h83l149 -122l-44 -53z" />
    <glyph glyph-name="wcircumflex" unicode="&#x175;" horiz-adv-x="736" 
d="M224 181q2 7 9 28.5t15 46t15 46t10 29.5q2 7 7.5 24t11.5 35.5t11 34.5t7 23h108l42 -128l44 -144h4q2 9 7.5 32t11.5 49t11 49.5t7 32.5l38 157h133l-137 -496h-129l-43 132l-42 133l-4 1q-3 -7 -9 -26.5t-13 -42t-13 -42t-8 -26.5l-42 -129h-127l-139 496h134l40 -164
l35 -151h5zM367 636q-12 -8 -31.5 -22.5t-40 -29.5t-39.5 -29.5t-31 -22.5l-49 44l148 155h87l147 -154l-51 -46z" />
    <glyph glyph-name="Ycircumflex" unicode="&#x176;" horiz-adv-x="576" 
d="M292 401l58 134l69 154h146l-208 -419v-270h-137v270l-210 419h147l71 -158l57 -130h7zM287 812l-148 -81l-42 52l150 122h83l149 -122l-44 -53z" />
    <glyph glyph-name="ycircumflex" unicode="&#x177;" horiz-adv-x="492" 
d="M99 -199l76 210l-29 22l-136 463h131l46 -187l43 -165h3l55 167l60 185h132l-253 -695h-128zM244 636q-12 -8 -31.5 -22.5t-40 -29.5t-39.5 -29.5t-31 -22.5l-49 44l148 155h87l147 -154l-51 -46z" />
    <glyph glyph-name="Ydieresis" unicode="&#x178;" horiz-adv-x="576" 
d="M292 401l58 134l69 154h146l-208 -419v-270h-137v270l-210 419h147l71 -158l57 -130h7zM319 812q0 28 19.5 47.5t48.5 19.5t48 -19.5t19 -47.5q0 -29 -19 -49t-48 -20t-48.5 20t-19.5 49zM121 812q0 28 20 47.5t48 19.5q29 0 48.5 -19.5t19.5 -47.5q0 -29 -19.5 -49
t-48.5 -20q-28 0 -48 20t-20 49z" />
    <glyph glyph-name="Zacute" unicode="&#x179;" horiz-adv-x="540" 
d="M32 118l311 449h-298v122h463v-114l-315 -453h315v-122h-476v118zM187 795l170 126l80 -92l-200 -95z" />
    <glyph glyph-name="zacute" unicode="&#x17a;" horiz-adv-x="474" 
d="M37 0v102l246 286h-232v107h387v-100l-246 -284h246v-111h-401zM180 568l81 195l116 -37l-123 -185z" />
    <glyph glyph-name="Zdotaccent" unicode="&#x17b;" horiz-adv-x="540" 
d="M32 118l311 449h-298v122h463v-114l-315 -453h315v-122h-476v118zM291 739q-32 0 -52.5 21.5t-20.5 52.5q0 30 20.5 51.5t51.5 21.5t52 -21.5t21 -51.5t-19 -52t-53 -22z" />
    <glyph glyph-name="zdotaccent" unicode="&#x17c;" horiz-adv-x="474" 
d="M37 0v102l246 286h-232v107h387v-100l-246 -284h246v-111h-401zM256 563q-32 0 -52.5 21.5t-20.5 52.5q0 30 20.5 51.5t51.5 21.5t52 -21.5t21 -51.5t-19 -52t-53 -22z" />
    <glyph glyph-name="Zcaron" unicode="&#x17d;" horiz-adv-x="540" 
d="M32 118l311 449h-298v122h463v-114l-315 -453h315v-122h-476v118zM424 908l44 -53l-148 -122h-84l-149 123l41 51l149 -80z" />
    <glyph glyph-name="zcaron" unicode="&#x17e;" horiz-adv-x="474" 
d="M37 0v102l246 286h-232v107h387v-100l-246 -284h246v-111h-401zM386 731l51 -46l-147 -154h-87l-148 155l49 44q12 -8 31 -22t39.5 -29.5t40 -29.5t31.5 -23z" />
    <glyph glyph-name="florin" unicode="&#x192;" horiz-adv-x="534" 
d="M126 428h94q4 25 8.5 55t12.5 60t20.5 58.5t33.5 50.5t52 35t75 13q25 -1 49 -4.5t51 -14.5l-26 -103q-23 9 -39.5 11t-29.5 2q-26 0 -41 -17.5t-23.5 -43t-12 -53.5t-6.5 -49h99v-107h-111l-27 -202q-6 -45 -18 -84.5t-33 -69t-52.5 -47t-74.5 -17.5q-12 0 -27 2
t-31 5.5t-31.5 8t-28.5 10.5l33 101q26 -11 41.5 -13t27.5 -2q27 0 42 27t24.5 70.5t15 99t12.5 111.5h-79v107z" />
    <glyph glyph-name="Ohorn" unicode="&#x1a0;" horiz-adv-x="667" 
d="M584 220q0 -56 -21 -98t-57 -71t-84.5 -43.5t-102.5 -14.5t-102.5 14.5t-84.5 43.5t-57 71t-21 98v253q0 55 22 97t59 70t85 42t99 14q49 0 95 -14t82 -40q32 2 47.5 20.5t15.5 72.5v35h95v-41q0 -62 -21 -105.5t-69 -61.5q20 -42 20 -93v-249zM446 445q0 34 -11 57.5
t-29 38.5t-40.5 22t-46.5 7t-47 -7t-41 -22t-29 -38.5t-11 -57.5v-201q0 -34 11 -58t29 -39t41 -21.5t47 -6.5t46.5 6.5t40.5 21.5t29 39t11 58v201z" />
    <glyph glyph-name="ohorn" unicode="&#x1a1;" horiz-adv-x="565" 
d="M476 176q0 -46 -18.5 -80t-49 -56.5t-69.5 -33.5t-80 -11q-42 0 -81 11t-69.5 33.5t-48.5 56.5t-18 80v143q0 46 18.5 80t49 56.5t70 34t80.5 11.5q42 0 80 -10.5t67 -32.5q29 4 43.5 22t14.5 70v34h95v-40q0 -62 -21.5 -107t-71.5 -62q9 -26 9 -58v-141zM349 297
q0 24 -8 40t-21 26.5t-28.5 15t-31.5 4.5t-32.5 -4.5t-29.5 -15t-21 -26.5t-8 -40v-98q0 -24 7.5 -40.5t20.5 -27t29 -15t34 -4.5q16 0 31.5 4.5t28.5 15t21 27t8 40.5v98z" />
    <glyph glyph-name="Uhorn" unicode="&#x1af;" horiz-adv-x="721" 
d="M587 219q0 -56 -22 -98t-59 -70.5t-85 -43t-99 -14.5t-99 14t-84.5 42t-58.5 69.5t-22 97.5v473h136v-447q0 -34 11 -57.5t29 -38.5t41 -22t47 -7q23 0 46 7t41 22t29 38.5t11 57.5v447h138v-47q15 1 26 6t18.5 15.5t11.5 28t4 43.5v35h95v-41q0 -79 -35.5 -128
t-119.5 -50v-332v0z" />
    <glyph glyph-name="uhorn" unicode="&#x1b0;" horiz-adv-x="625" 
d="M173 494v-305q0 -42 21 -58.5t45 -16.5q23 0 50 10.5t65 35.5v334h128v-35q26 5 38.5 23.5t12.5 67.5v35h95v-41q0 -77 -33.5 -125.5t-112.5 -52.5v-366h-118l-10 43q-54 -33 -90 -41.5t-61 -8.5q-42 0 -72 14t-49 39t-28 59t-9 75v314h128z" />
    <glyph glyph-name="AEacute" unicode="&#x1fc;" horiz-adv-x="1005" 
d="M492 163h-49.5t-71 0.5t-71.5 0.5h-49q-7 -12 -20.5 -34.5l-28.5 -47.5t-28.5 -48t-20.5 -34h-153q18 29 51.5 83t74.5 121t86 140.5t86 140.5t74.5 121t51.5 83h542v-123h-338v-159h289v-122h-289v-163h338v-122h-474v163zM489 567q-12 -19 -36.5 -59.5t-51.5 -85
t-51 -85t-36 -59.5h36.5t52 -0.5t52.5 -0.5h37v290h-3zM616 795l170 126l80 -92l-200 -95z" />
    <glyph glyph-name="aeacute" unicode="&#x1fd;" horiz-adv-x="811" 
d="M475 211v-19q1 -43 28.5 -62.5t62.5 -19.5q20 0 51.5 6.5t66.5 34.5l70 -87q-23 -22 -46 -35.5t-46 -21t-46.5 -10t-47.5 -2.5q-51 0 -96 15t-76 47q-11 -8 -22.5 -14.5t-22.5 -12.5q-53 -26 -91 -30.5t-60 -4.5q-76 0 -118.5 40.5t-42.5 110.5q0 41 17.5 69.5t44 46
t58.5 25.5t61 8h128v21q0 71 -98 71q-24 0 -56 -7t-68 -36l-59 92q52 40 101.5 52t93.5 12q103 0 156 -47q28 23 64 35t78 12q46 0 85 -13t67 -37.5t44 -60.5t16 -82v-96h-297zM376 568l81 195l116 -37l-123 -185zM349 211h-103q-25 0 -47.5 -13t-22.5 -44q0 -20 14.5 -32.5
t43.5 -12.5q33 0 64 12.5t51 23.5v66zM645 303q0 42 -25 61.5t-59 19.5q-33 0 -59 -20.5t-26 -58.5v-11h169v9z" />
    <glyph glyph-name="Oslashacute" unicode="&#x1fe;" horiz-adv-x="638" 
d="M52 25l44 62q-42 54 -42 133v253q0 55 22 97t59 70t85 42t99 14q49 0 94.5 -13.5t81.5 -39.5l41 56l49 -35l-46 -63q21 -26 33 -59t12 -73v-249q0 -56 -21 -98t-57 -71t-84.5 -43.5t-102.5 -14.5q-53 0 -99 13.5t-82 39.5l-39 -54zM446 445q0 6 -0.5 12.5t-1.5 11.5
l-225 -311q19 -21 45 -30t55 -9q24 0 46.5 6.5t40.5 21.5t29 39t11 58v201zM191 244v-12t1 -11l224 311q-19 20 -44.5 29t-52.5 9q-24 0 -47 -7t-41 -22t-29 -38.5t-11 -57.5v-201zM230 795l170 126l80 -92l-200 -95z" />
    <glyph glyph-name="oslashacute" unicode="&#x1ff;" horiz-adv-x="519" 
d="M476 176q0 -46 -18.5 -80t-49 -56.5t-69.5 -33.5t-80 -11q-42 0 -80 10.5t-68 32.5l-37 -44q-8 7 -16.5 13.5t-16.5 14.5q9 11 18.5 22.5t19.5 22.5q-17 21 -27 48t-10 61v143q0 46 18.5 80t49 56.5t70 34t80.5 11.5q42 0 79.5 -10.5t66.5 -31.5q8 11 17 21t18 21l34 -29
l-36 -43q17 -22 27 -50t10 -62v-141zM204 568l81 195l116 -37l-123 -185zM349 297q0 6 -0.5 11.5t-1.5 10.5q-39 -46 -77.5 -92t-76.5 -92q13 -13 30 -18t37 -5q16 0 31.5 4.5t28.5 15t21 27t8 40.5v98zM324 360q-14 12 -30.5 17.5t-33.5 5.5q-16 0 -32.5 -4.5t-29.5 -15
t-21 -26.5t-8 -40v-98q0 -6 0.5 -11t1.5 -10z" />
    <glyph glyph-name="Scommaaccent" unicode="&#x218;" horiz-adv-x="599" 
d="M565 199q0 -50 -20 -88.5t-55.5 -64t-83.5 -38.5t-104 -13q-75 0 -141 21t-129 74l77 100q45 -35 93.5 -53.5t96.5 -18.5q33 0 56 6.5t37 18t20.5 26t6.5 29.5q0 23 -11.5 38t-33 25.5t-51 19t-65.5 18.5q-40 10 -76.5 24.5t-64.5 37t-44.5 55t-16.5 78.5q0 45 17 83
t47.5 65.5t74 43t96.5 15.5q63 1 126 -12t122 -52l-60 -110q-48 29 -91 40t-85 11q-20 0 -39.5 -5t-35 -14.5t-25 -25t-9.5 -36.5t10.5 -35.5t30.5 -25t48.5 -18.5t64.5 -16q109 -24 163 -73t54 -130zM210 -261q26 17 40.5 34t17.5 40q-22 4 -38 23t-16 48q0 32 23 53.5
t54 21.5q41 0 63 -28.5t22 -70.5q0 -58 -35 -105t-89 -73z" />
    <glyph glyph-name="scommaaccent" unicode="&#x219;" horiz-adv-x="467" 
d="M236 -5q-27 0 -54.5 2.5t-55 10t-55 21.5t-55.5 38l69 91q37 -31 74 -42.5t75 -11.5q34 0 56 12.5t22 34.5q0 18 -13.5 29t-47.5 17t-70.5 13.5t-66.5 22.5t-49 41t-19 69q0 39 16 68.5t42 49t59.5 29.5t69.5 10q59 0 107 -10.5t95 -46.5l-60 -95q-38 26 -73.5 33.5
t-66.5 7.5q-33 0 -48.5 -13t-15.5 -30q0 -19 20 -27t50.5 -14t65.5 -13t65.5 -22.5t50.5 -43t20 -74.5q0 -39 -16.5 -68t-45 -49t-66 -30t-79.5 -10zM149 -261q26 17 40.5 34t17.5 40q-22 4 -38 23t-16 48q0 32 23 53.5t54 21.5q41 0 63 -28.5t22 -70.5q0 -58 -35 -105
t-89 -73z" />
    <glyph glyph-name="schwa" unicode="&#x259;" horiz-adv-x="517" 
d="M343 285v16q0 45 -23.5 64.5t-64.5 19.5q-20 0 -52.5 -6.5t-67.5 -34.5l-65 89q47 43 97 55.5t99 12.5q43 0 80.5 -11t64.5 -34t42.5 -57.5t15.5 -80.5v-128q0 -47 -16.5 -83t-45.5 -60.5t-67.5 -37.5t-81.5 -13q-46 0 -85 12.5t-67 37t-44 60.5t-16 82v97h297zM173 192
q0 -42 25 -61.5t59 -19.5q35 0 60 21.5t25 63.5v6h-169v-10z" />
    <glyph glyph-name="primemod" unicode="&#x2b9;" horiz-adv-x="278" 
d="M286 689l-147 -297l-92 30l109 311z" />
    <glyph glyph-name="circumflex" unicode="&#x2c6;" horiz-adv-x="508" 
d="M254 636q-12 -8 -31.5 -22.5t-40 -29.5t-39.5 -29.5t-31 -22.5l-49 44l148 155h87l147 -154l-51 -46z" />
    <glyph glyph-name="caron" unicode="&#x2c7;" horiz-adv-x="508" 
d="M394 731l51 -46l-147 -154h-87l-148 155l49 44q12 -8 31 -22t39.5 -29.5t40 -29.5t31.5 -23z" />
    <glyph glyph-name="breve" unicode="&#x2d8;" horiz-adv-x="526" 
d="M267 563q-42 0 -70.5 15.5t-46 38t-25.5 49t-10 48.5h92q0 -10 4 -21.5t11.5 -21.5t18.5 -16.5t26 -6.5q16 0 27.5 6.5t19 16.5t11.5 21.5t4 21.5h91q-3 -22 -11 -48.5t-25.5 -49t-45.5 -38t-71 -15.5z" />
    <glyph glyph-name="dotaccent" unicode="&#x2d9;" horiz-adv-x="389" 
d="M197 563q-32 0 -52.5 21.5t-20.5 52.5q0 30 20.5 51.5t51.5 21.5t52 -21.5t21 -51.5t-19 -52t-53 -22z" />
    <glyph glyph-name="ring" unicode="&#x2da;" horiz-adv-x="508" 
d="M316 643q0 18 -13 30.5t-32 12.5q-20 0 -33 -12.5t-13 -30.5t13 -30.5t33 -12.5q19 0 32 12.5t13 30.5zM153 643q0 23 9.5 43.5t25.5 35.5t37.5 24t45.5 9t45.5 -9t37 -24t25 -35.5t9.5 -43.5t-9.5 -43.5t-25.5 -35.5t-37.5 -24t-45.5 -9t-45.5 9t-37 24t-25 35.5
t-9.5 43.5z" />
    <glyph glyph-name="ogonek" unicode="&#x2db;" horiz-adv-x="290" 
d="M57 -100q0 21 9 45t33 59h79l2 -4q-21 -29 -30.5 -49t-9.5 -36q0 -32 37 -32q20 0 61 16l26 -65q-23 -13 -50 -21t-53 -8q-46 0 -75 28t-29 67z" />
    <glyph glyph-name="tilde" unicode="&#x2dc;" horiz-adv-x="508" 
d="M192 711q19 -1 38 -8.5t36 -16.5t32 -16.5t27 -7.5q17 0 30.5 10t32.5 36l64 -38q-26 -55 -53.5 -79t-62.5 -24q-20 0 -38.5 7t-36 15.5t-33 15.5t-29.5 7q-17 0 -31.5 -7.5t-36.5 -35.5l-64 38q25 51 54 77.5t71 26.5z" />
    <glyph glyph-name="hungarumlaut" unicode="&#x2dd;" horiz-adv-x="572" 
d="M150 568l81 195l116 -37l-123 -185zM318 568l81 195l116 -37l-124 -185z" />
    <glyph glyph-name="tonos" unicode="&#x384;" horiz-adv-x="508" 
d="M186 568l81 195l116 -37l-123 -185z" />
    <glyph glyph-name="dieresistonos" unicode="&#x385;" horiz-adv-x="523" 
d="M331 625q0 29 20 48.5t48 19.5q29 0 48.5 -19.5t19.5 -48.5q0 -28 -19.5 -48t-48.5 -20q-28 0 -48 20t-20 48zM49 625q0 29 19.5 48.5t48.5 19.5q28 0 47.5 -19.5t19.5 -48.5q0 -28 -19.5 -48t-47.5 -20q-29 0 -48.5 20t-19.5 48zM183 558l60 202l119 -23l-103 -198z" />
    <glyph glyph-name="Alphatonos" unicode="&#x386;" horiz-adv-x="638" 
d="M438 142h-240l-45 -142h-146l242 689h140l240 -689h-149zM235 257h166l-27 88l-54 182h-4l-53 -179zM-55 525l81 195l116 -37l-123 -185z" />
    <glyph glyph-name="anoteleia" unicode="&#x387;" horiz-adv-x="315" 
d="M156 278q-34 0 -56.5 23t-22.5 57q0 33 22.5 56t55.5 23q34 0 56.5 -23t22.5 -56q0 -32 -21 -56t-57 -24z" />
    <glyph glyph-name="Epsilontonos" unicode="&#x388;" horiz-adv-x="577" 
d="M60 689h475v-123h-338v-158h289v-123h-289v-163h338v-122h-475v689zM-164 525l81 195l116 -37l-123 -185z" />
    <glyph glyph-name="Etatonos" unicode="&#x389;" horiz-adv-x="646" 
d="M449 0v288h-254v-288h-137v689h137v-277h254v277h139v-689h-139zM-170 525l81 195l116 -37l-123 -185z" />
    <glyph glyph-name="Iotatonos" unicode="&#x38a;" horiz-adv-x="297" 
d="M217 689v-689h-137v689h137zM-143 525l81 195l116 -37l-123 -185z" />
    <glyph glyph-name="Omicrontonos" unicode="&#x38c;" horiz-adv-x="638" 
d="M584 220q0 -56 -21 -98t-57 -71t-84.5 -43.5t-102.5 -14.5t-102.5 14.5t-84.5 43.5t-57 71t-21 98v253q0 55 22 97t59 70t85 42t99 14t99 -15t85 -43.5t59 -71t22 -97.5v-249zM446 445q0 34 -11 57.5t-29 38.5t-40.5 22t-46.5 7t-47 -7t-41 -22t-29 -38.5t-11 -57.5v-201
q0 -34 11 -58t29 -39t41 -21.5t47 -6.5t46.5 6.5t40.5 21.5t29 39t11 58v201zM-136 525l81 195l116 -37l-123 -185z" />
    <glyph glyph-name="Upsilontonos" unicode="&#x38e;" horiz-adv-x="576" 
d="M292 401l58 134l69 154h146l-208 -419v-270h-137v270l-210 419h147l71 -158l57 -130h7zM-204 525l81 195l116 -37l-123 -185z" />
    <glyph glyph-name="Omegatonos" unicode="&#x38f;" horiz-adv-x="663" 
d="M376 0v143q34 10 58 39t24 81v180q0 34 -11 58.5t-28.5 40t-40.5 22.5t-47 7t-47 -7t-40.5 -22.5t-28.5 -40t-11 -58.5v-180q0 -53 25.5 -81.5t59.5 -39.5v-142h-236v120h72q-32 22 -45.5 61.5t-13.5 76.5v207q0 57 22 100t58.5 72.5t84.5 44.5t100 15q54 0 102 -15.5
t84 -44.5t57.5 -72.5t21.5 -98.5v-208q0 -37 -14 -76t-45 -62h73v-120h-234zM-126 525l81 195l116 -37l-123 -185z" />
    <glyph glyph-name="iotadieresistonos" unicode="&#x390;" horiz-adv-x="269" 
d="M71 0v496h127v-496h-127zM215 625q0 29 20 48.5t48 19.5q29 0 48.5 -19.5t19.5 -48.5q0 -28 -19.5 -48t-48.5 -20q-28 0 -48 20t-20 48zM-67 625q0 29 19.5 48.5t48.5 19.5q28 0 47.5 -19.5t19.5 -48.5q0 -28 -19.5 -48t-47.5 -20q-29 0 -48.5 20t-19.5 48zM67 558
l60 202l119 -23l-103 -198z" />
    <glyph glyph-name="Alpha" unicode="&#x391;" horiz-adv-x="638" 
d="M438 142h-240l-45 -142h-146l242 689h140l240 -689h-149zM235 257h166l-27 88l-54 182h-4l-53 -179z" />
    <glyph glyph-name="Beta" unicode="&#x392;" horiz-adv-x="624" 
d="M581 205q0 -42 -13 -79t-38 -65t-62 -44.5t-86 -16.5h-323v689h310q52 0 89.5 -15t62 -41t36.5 -60t12 -71q0 -38 -20.5 -78t-64.5 -62q25 -12 43 -30.5t30 -40t18 -44t6 -42.5zM428 489q0 38 -22.5 58t-70.5 20h-139v-151h141q43 0 67 20t24 53zM436 209q0 40 -25 64.5
t-69 24.5h-146v-176h147q46 0 69.5 23.5t23.5 63.5z" />
    <glyph glyph-name="Gamma" unicode="&#x393;" horiz-adv-x="535" 
d="M65 0v689h474v-123h-337v-566h-137z" />
    <glyph glyph-name="Delta" unicode="&#x394;" horiz-adv-x="630" 
d="M312 492l-54 -173l-65 -196h243l-64 195l-54 174h-6zM251 689h129l244 -689h-618z" />
    <glyph glyph-name="Delta" unicode="&#x2206;" horiz-adv-x="630" 
d="M312 492l-54 -173l-65 -196h243l-64 195l-54 174h-6zM251 689h129l244 -689h-618z" />
    <glyph glyph-name="Epsilon" unicode="&#x395;" horiz-adv-x="577" 
d="M60 689h475v-123h-338v-158h289v-123h-289v-163h338v-122h-475v689z" />
    <glyph glyph-name="Zeta" unicode="&#x396;" horiz-adv-x="540" 
d="M32 118l311 449h-298v122h463v-114l-315 -453h315v-122h-476v118z" />
    <glyph glyph-name="Eta" unicode="&#x397;" horiz-adv-x="646" 
d="M449 0v288h-254v-288h-137v689h137v-277h254v277h139v-689h-139z" />
    <glyph glyph-name="Theta" unicode="&#x398;" horiz-adv-x="637" 
d="M412 289h-187v113h187v-113zM584 220q0 -56 -21 -98t-57 -71t-84.5 -43.5t-102.5 -14.5t-102.5 14.5t-84.5 43.5t-57 71t-21 98v253q0 55 22 97t59 70t85 42t99 14t99 -15t85 -43.5t59 -71t22 -97.5v-249zM446 445q0 34 -11 57.5t-29 38.5t-40.5 22t-46.5 7t-47 -7
t-41 -22t-29 -38.5t-11 -57.5v-201q0 -34 11 -58t29 -39t41 -21.5t47 -6.5t46.5 6.5t40.5 21.5t29 39t11 58v201z" />
    <glyph glyph-name="Iota" unicode="&#x399;" horiz-adv-x="297" 
d="M217 689v-689h-137v689h137z" />
    <glyph glyph-name="Kappa" unicode="&#x39a;" horiz-adv-x="628" 
d="M200 392q29 32 57 66t55 67l135 164h162l-229 -278l245 -411h-161l-174 303q-24 -28 -48 -55.5t-47 -55.5v-192h-137v689h137v-297h5z" />
    <glyph glyph-name="Lambda" unicode="&#x39b;" horiz-adv-x="630" 
d="M384 313l-63 209h-6l-63 -208l-99 -314h-146l242 689h140l240 -689h-146z" />
    <glyph glyph-name="Mu" unicode="&#x39c;" horiz-adv-x="785" 
d="M585 370l-64 -127l-78 -148h-99l-77 145l-67 130h-4v-370h-136v689h126l123 -243l83 -170h6l84 174l118 239h126v-689h-137v370h-4z" />
    <glyph glyph-name="Nu" unicode="&#x39d;" horiz-adv-x="675" 
d="M196 434v-434h-136v689h124l160 -236l131 -200h4v436h137v-689h-125l-175 260l-114 174h-6z" />
    <glyph glyph-name="Xi" unicode="&#x39e;" horiz-adv-x="567" 
d="M48 0v122h172v164h-121v122h121v159h-172v122h468v-122h-174v-159h124v-122h-124v-164h174v-122h-468z" />
    <glyph glyph-name="Omicron" unicode="&#x39f;" horiz-adv-x="638" 
d="M584 220q0 -56 -21 -98t-57 -71t-84.5 -43.5t-102.5 -14.5t-102.5 14.5t-84.5 43.5t-57 71t-21 98v253q0 55 22 97t59 70t85 42t99 14t99 -15t85 -43.5t59 -71t22 -97.5v-249zM446 445q0 34 -11 57.5t-29 38.5t-40.5 22t-46.5 7t-47 -7t-41 -22t-29 -38.5t-11 -57.5v-201
q0 -34 11 -58t29 -39t41 -21.5t47 -6.5t46.5 6.5t40.5 21.5t29 39t11 58v201z" />
    <glyph glyph-name="Pi" unicode="&#x3a0;" horiz-adv-x="646" 
d="M449 0v566h-254v-566h-137v689h530v-689h-139z" />
    <glyph glyph-name="Rho" unicode="&#x3a1;" horiz-adv-x="576" 
d="M195 383h140q47 0 71 26t24 65q0 40 -24.5 66t-70.5 26h-140v-183zM366 689q51 0 88 -19.5t61.5 -50.5t36 -69.5t11.5 -75.5q0 -38 -13.5 -76t-39 -69t-63 -50.5t-85.5 -19.5h-167v-259h-137v689h308z" />
    <glyph glyph-name="Sigma" unicode="&#x3a3;" horiz-adv-x="517" 
d="M28 0v118l149 239l-147 218v114h449v-122h-284l141 -210l-148 -236h300v-121h-460z" />
    <glyph glyph-name="Tau" unicode="&#x3a4;" horiz-adv-x="526" 
d="M332 565v-565h-137v565h-183v124h502v-124h-182z" />
    <glyph glyph-name="Upsilon" unicode="&#x3a5;" horiz-adv-x="576" 
d="M292 401l58 134l69 154h146l-208 -419v-270h-137v270l-210 419h147l71 -158l57 -130h7z" />
    <glyph glyph-name="Phi" unicode="&#x3a6;" horiz-adv-x="793" 
d="M465 659q58 -2 107.5 -21t86 -52t57 -78t20.5 -99v-96q0 -55 -20 -101t-56 -80t-86 -53.5t-109 -20.5v-58h-137v58q-61 3 -111 23t-85.5 53t-55 78t-19.5 100v97q0 54 21.5 99.5t58 78t86 51.5t105.5 21v37h137v-37zM602 395q0 65 -38 102.5t-99 39.5v-357q59 2 98 39
t39 102v74zM191 321q0 -32 11 -58t29.5 -44t43.5 -28t53 -11v357q-28 -1 -53 -11t-43.5 -28.5t-29.5 -44.5t-11 -58v-74z" />
    <glyph glyph-name="Chi" unicode="&#x3a7;" horiz-adv-x="595" 
d="M298 238l-137 -238h-155l219 353l-206 336h156l123 -221l123 221h154l-204 -336l218 -353h-155z" />
    <glyph glyph-name="Psi" unicode="&#x3a8;" horiz-adv-x="794" 
d="M736 368q0 -53 -21 -96.5t-57.5 -75t-85.5 -50t-105 -22.5v-124h-136v124q-58 4 -107 23.5t-85 52t-56 77t-20 98.5v314h132v-303q0 -31 11.5 -55.5t30.5 -42t43.5 -28t50.5 -12.5v442h136v-442q27 1 51.5 10.5t44 26t31 40t11.5 53.5v311h131v-321v0z" />
    <glyph glyph-name="Omega" unicode="&#x3a9;" horiz-adv-x="663" 
d="M376 0v143q34 10 58 39t24 81v180q0 34 -11 58.5t-28.5 40t-40.5 22.5t-47 7t-47 -7t-40.5 -22.5t-28.5 -40t-11 -58.5v-180q0 -53 25.5 -81.5t59.5 -39.5v-142h-236v120h72q-32 22 -45.5 61.5t-13.5 76.5v207q0 57 22 100t58.5 72.5t84.5 44.5t100 15q54 0 102 -15.5
t84 -44.5t57.5 -72.5t21.5 -98.5v-208q0 -37 -14 -76t-45 -62h73v-120h-234z" />
    <glyph glyph-name="Iotadieresis" unicode="&#x3aa;" horiz-adv-x="297" 
d="M217 689v-689h-137v689h137zM178 807q0 29 20 48.5t49 19.5t48.5 -19.5t19.5 -48.5q0 -28 -19.5 -48t-48.5 -20t-49 20t-20 48zM-19 807q0 29 19.5 48.5t48.5 19.5t48.5 -19.5t19.5 -48.5q0 -28 -19.5 -48t-48.5 -20t-48.5 20t-19.5 48z" />
    <glyph glyph-name="Upsilondieresis" unicode="&#x3ab;" horiz-adv-x="576" 
d="M292 401l58 134l69 154h146l-208 -419v-270h-137v270l-210 419h147l71 -158l57 -130h7zM318 805q0 29 20 48.5t49 19.5t48.5 -19.5t19.5 -48.5q0 -28 -19.5 -48t-48.5 -20t-49 20t-20 48zM121 805q0 29 19.5 48.5t48.5 19.5t48.5 -19.5t19.5 -48.5q0 -28 -19.5 -48
t-48.5 -20t-48.5 20t-19.5 48z" />
    <glyph glyph-name="alphatonos" unicode="&#x3ac;" horiz-adv-x="525" 
d="M41 320q0 91 46 136t124 45q26 0 60.5 -11t76.5 -36l10 40h117v-494h-117l-10 39q-47 -26 -82.5 -34.5t-61.5 -8.5q-83 0 -123 49t-40 130v145zM170 192q0 -42 18 -58.5t45 -16.5q23 0 53 11.5t62 31.5v185q-12 7 -27 14t-31 12.5t-31 9t-26 3.5q-26 0 -44.5 -18
t-18.5 -58v-116zM198 568l81 195l116 -37l-123 -185z" />
    <glyph glyph-name="epsilontonos" unicode="&#x3ad;" horiz-adv-x="452" 
d="M240 500q51 0 96 -11.5t91 -49.5q-4 -5 -13.5 -17.5t-20.5 -27.5t-21 -28t-13 -17q-26 23 -54.5 30.5t-53.5 7.5q-11 0 -24 -2.5t-25 -8.5t-20 -15.5t-8 -22.5q0 -17 15 -28t40 -11h81v-98h-82q-27 0 -43 -12t-16 -33q0 -15 15.5 -30.5t60.5 -15.5q12 0 26.5 1t30 5.5
t30.5 12t28 21.5l74 -90q-45 -40 -92 -52.5t-98 -12.5q-97 0 -149 40t-52 113q0 11 4 26t12.5 30t22 28t31.5 21v4q-37 14 -51.5 40t-14.5 51q0 31 13 58.5t37.5 48.5t60.5 33t82 12zM176 568l81 195l116 -37l-123 -185z" />
    <glyph glyph-name="etatonos" unicode="&#x3ae;" horiz-adv-x="529" 
d="M356 0v305q0 42 -19 58.5t-46 16.5q-23 0 -51 -10.5t-65 -33.5v-336h-127v494h117l10 -43q55 34 92.5 42t62.5 8q82 0 118.5 -48.5t36.5 -129.5v-323h-129zM195 568l81 195l116 -37l-123 -185z" />
    <glyph glyph-name="iotatonos" unicode="&#x3af;" horiz-adv-x="269" 
d="M71 0v496h127v-496h-127zM78 568l81 195l116 -37l-123 -185z" />
    <glyph glyph-name="upsilondieresistonos" unicode="&#x3b0;" horiz-adv-x="524" 
d="M479 175q0 -46 -19.5 -80t-50.5 -56t-70 -33t-78 -11q-41 0 -80 11t-69 33t-48.5 56t-18.5 80v321h127v-297q0 -24 7.5 -40.5t20 -27t29 -15t33.5 -4.5q16 0 31.5 4.5t28.5 15t21 27t8 40.5v297h128v-321zM336 625q0 29 20 48.5t48 19.5q29 0 48.5 -19.5t19.5 -48.5
q0 -28 -19.5 -48t-48.5 -20q-28 0 -48 20t-20 48zM54 625q0 29 19.5 48.5t48.5 19.5q28 0 47.5 -19.5t19.5 -48.5q0 -28 -19.5 -48t-47.5 -20q-29 0 -48.5 20t-19.5 48zM188 558l60 202l119 -23l-103 -198z" />
    <glyph glyph-name="alpha" unicode="&#x3b1;" horiz-adv-x="525" 
d="M41 320q0 91 46 136t124 45q26 0 60.5 -11t76.5 -36l10 40h117v-494h-117l-10 39q-47 -26 -82.5 -34.5t-61.5 -8.5q-83 0 -123 49t-40 130v145zM170 192q0 -42 18 -58.5t45 -16.5q23 0 53 11.5t62 31.5v185q-12 7 -27 14t-31 12.5t-31 9t-26 3.5q-26 0 -44.5 -18
t-18.5 -58v-116z" />
    <glyph glyph-name="beta" unicode="&#x3b2;" horiz-adv-x="527" 
d="M400 405q46 -15 64 -55t18 -86v-91q0 -81 -42.5 -129t-122.5 -48q-36 0 -70 12t-70 31l-11 -39h-116v494q0 47 14.5 87t42 69.5t66 46t86.5 16.5q58 0 97 -17t63 -43t34 -57.5t10 -61.5q0 -14 -3.5 -31t-11.5 -34.5t-20 -33t-28 -26.5v-4zM354 259q0 42 -25.5 61.5
t-59.5 19.5h-44v101h44q19 0 33.5 9t24 21.5t14 27.5t4.5 27q0 16 -4.5 31t-15 26.5t-26.5 18.5t-39 7t-39 -9t-26 -22t-14.5 -29t-4.5 -29v-370q32 -17 62.5 -27t53.5 -10q31 0 46.5 21.5t15.5 58.5v66z" />
    <glyph glyph-name="gamma" unicode="&#x3b3;" horiz-adv-x="487" 
d="M488 496q-46 -120 -90 -241t-86 -240v-215h-127v198q-14 42 -28.5 86t-30 88.5t-30.5 88t-30 82.5q-11 32 -20 41t-30 9h-8l-8 99q18 6 37 9t33 3q46 0 70.5 -26t41.5 -85q5 -14 14 -43t18.5 -60.5t18 -60t13.5 -42.5h5q14 40 25.5 81.5t23.5 78.5q12 38 24.5 74.5
t26.5 74.5h137z" />
    <glyph glyph-name="delta" unicode="&#x3b4;" horiz-adv-x="520" 
d="M385 570q-31 19 -54 27t-52 8q-33 0 -49 -12.5t-16 -29.5q0 -12 9.5 -22.5t23.5 -19t31 -15t32 -11.5q88 -29 128 -77.5t40 -126.5v-107q0 -46 -18 -81t-48 -59t-69 -36.5t-82 -12.5q-45 0 -84.5 11.5t-69 34.5t-46.5 57.5t-17 80.5v122q0 51 24.5 91.5t66.5 62.5
q-31 21 -44.5 47.5t-13.5 55.5q0 39 16 68t42.5 48.5t59.5 29.5t68 10q54 0 96.5 -11t85.5 -41zM351 275q0 49 -25 78.5t-82 41.5q-28 -11 -50.5 -41t-22.5 -78v-74q0 -24 8 -41t21 -28.5t29.5 -16.5t32.5 -5q15 0 31 5t29 16.5t21 28.5t8 41v73z" />
    <glyph glyph-name="epsilon" unicode="&#x3b5;" horiz-adv-x="452" 
d="M240 500q51 0 96 -11.5t91 -49.5q-4 -5 -13.5 -17.5t-20.5 -27.5t-21 -28t-13 -17q-26 23 -54.5 30.5t-53.5 7.5q-11 0 -24 -2.5t-25 -8.5t-20 -15.5t-8 -22.5q0 -17 15 -28t40 -11h81v-98h-82q-27 0 -43 -12t-16 -33q0 -15 15.5 -30.5t60.5 -15.5q12 0 26.5 1t30 5.5
t30.5 12t28 21.5l74 -90q-45 -40 -92 -52.5t-98 -12.5q-97 0 -149 40t-52 113q0 11 4 26t12.5 30t22 28t31.5 21v4q-37 14 -51.5 40t-14.5 51q0 31 13 58.5t37.5 48.5t60.5 33t82 12z" />
    <glyph glyph-name="zeta" unicode="&#x3b6;" horiz-adv-x="416" 
d="M439 610q-62 -46 -114 -98t-89.5 -104t-58 -100.5t-19.5 -87.5q2 -60 48.5 -87t126.5 -27h53l41 -83q-13 -26 -23.5 -47.5t-20.5 -43.5t-19 -48t-19 -61l-106 29q8 33 21.5 67t29.5 76q-44 4 -89.5 16t-82.5 36t-61.5 63.5t-25.5 99.5q-1 47 17 98.5t49.5 102.5t75 98.5
t94.5 86.5h-215v109h387v-95z" />
    <glyph glyph-name="eta" unicode="&#x3b7;" horiz-adv-x="529" 
d="M356 0v305q0 42 -19 58.5t-46 16.5q-23 0 -51 -10.5t-65 -33.5v-336h-127v494h117l10 -43q55 34 92.5 42t62.5 8q82 0 118.5 -48.5t36.5 -129.5v-323h-129z" />
    <glyph glyph-name="theta" unicode="&#x3b8;" horiz-adv-x="523" 
d="M479 175q0 -46 -19 -80t-49.5 -56t-69.5 -33t-79 -11q-41 0 -79.5 11t-69.5 33t-49.5 56t-18.5 80v356q0 46 19 80t49.5 56.5t69.5 33.5t79 11q42 0 81 -11.5t69.5 -34.5t48.5 -57t18 -80v-354zM351 314h-179v-115q0 -24 8 -40.5t21 -27t29.5 -15t32.5 -4.5q15 0 31 4.5
t28.5 15t20.5 27t8 40.5v115zM172 417h179v91q0 24 -8 40t-20.5 26.5t-28.5 15t-31 4.5q-16 0 -32.5 -4.5t-29.5 -15t-21 -26.5t-8 -40v-91z" />
    <glyph glyph-name="iota" unicode="&#x3b9;" horiz-adv-x="269" 
d="M71 0v496h127v-496h-127z" />
    <glyph glyph-name="kappa" unicode="&#x3ba;" horiz-adv-x="524" 
d="M50 0v496h128v-184h41q32 0 54.5 13t37.5 54l43 117h136l-52 -144q-12 -35 -28.5 -58t-47.5 -35q37 -12 53 -36.5t28 -61.5l56 -161h-142l-39 131q-7 22 -16.5 35.5t-21.5 21t-27 9.5t-33 2h-42v-199h-128z" />
    <glyph glyph-name="lambda" unicode="&#x3bb;" horiz-adv-x="524" 
d="M478 0h-128v326q-32 14 -57.5 20.5t-49.5 6.5q-29 0 -50 -17.5t-21 -60.5v-275h-129v294q0 81 45 130t129 49q26 0 61.5 -6.5t71.5 -23.5v66q0 41 -22 64t-70 23q-32 0 -65.5 -8.5t-64.5 -22.5l-40 102q54 28 101 37t91 9q103 0 150.5 -55t47.5 -152v-506z" />
    <glyph glyph-name="nu" unicode="&#x3bd;" horiz-adv-x="491" 
d="M257 162l51 170l51 164h138l-178 -496h-134l-179 496h143l51 -163q4 -13 11 -36.5t15 -49t15.5 -49t11.5 -36.5h4z" />
    <glyph glyph-name="xi" unicode="&#x3be;" horiz-adv-x="439" 
d="M264 709q15 0 37 -1t47.5 -5t52.5 -13.5t52 -25.5q-3 -5 -10 -20t-15 -31.5t-15 -31t-9 -19.5q-40 25 -75 30.5t-61 5.5q-21 0 -38.5 -7t-30 -18t-19 -25t-6.5 -29q0 -35 29 -59t71 -24h108v-98h-121q-23 0 -42 -10t-33.5 -26.5t-22.5 -37.5t-8 -43q0 -36 18.5 -59
t47.5 -36t64 -18t67 -5q11 0 22 0.5t22 0.5l44 -83q-24 -35 -42.5 -87.5t-29.5 -110.5q-6 1 -22 5t-33.5 7.5t-33.5 7t-22 4.5q6 33 18 74t28 73q-51 3 -99 15.5t-85.5 38t-60 66.5t-22.5 102q0 18 5.5 43t18 49.5t33.5 46t52 32.5q-28 10 -46 27t-28 36t-13.5 38t-3.5 35
q0 43 16.5 77.5t45 58.5t66.5 37t82 13z" />
    <glyph glyph-name="omicron" unicode="&#x3bf;" horiz-adv-x="519" 
d="M476 176q0 -46 -18.5 -80t-49 -56.5t-69.5 -33.5t-80 -11q-42 0 -81 11t-69.5 33.5t-48.5 56.5t-18 80v143q0 46 18.5 80t49 56.5t70 34t80.5 11.5q44 0 83.5 -11.5t69 -34.5t46.5 -57.5t17 -80.5v-141zM349 297q0 24 -8 40t-21 26.5t-28.5 15t-31.5 4.5t-32.5 -4.5
t-29.5 -15t-21 -26.5t-8 -40v-98q0 -24 7.5 -40.5t20.5 -27t29 -15t34 -4.5q16 0 31.5 4.5t28.5 15t21 27t8 40.5v98z" />
    <glyph glyph-name="pi" unicode="&#x3c0;" horiz-adv-x="532" 
d="M355 0v385h-178v-385h-127v496h433v-496h-128z" />
    <glyph glyph-name="rho" unicode="&#x3c1;" horiz-adv-x="515" 
d="M475 173q0 -82 -43.5 -131t-126.5 -49q-26 0 -63 5t-73 25v-221h-128v518q0 46 19.5 80t50.5 56.5t70 33.5t79 11t78.5 -11t69 -33.5t49 -57t18.5 -80.5v-146zM168 142q32 -16 59.5 -22t50.5 -6q29 0 49 18t20 60v105q0 24 -7.5 40.5t-20 27t-28 15t-31.5 4.5t-32.5 -4.5
t-29.5 -15t-21.5 -27t-8.5 -40.5v-155z" />
    <glyph glyph-name="sigma1" unicode="&#x3c2;" horiz-adv-x="467" 
d="M236 -5q-27 0 -54.5 2.5t-55 10t-55 21.5t-55.5 38l69 91q37 -31 74 -42.5t75 -11.5q34 0 56 12.5t22 34.5q0 18 -13.5 29t-47.5 17t-70.5 13.5t-66.5 22.5t-49 41t-19 69q0 39 16 68.5t42 49t59.5 29.5t69.5 10q59 0 107 -11.5t95 -47.5l-60 -95q-38 26 -73.5 34.5
t-66.5 8.5q-33 0 -48.5 -13t-15.5 -30q0 -19 20 -27t50.5 -14t65.5 -13t65.5 -22.5t50.5 -43t20 -74.5q0 -39 -16.5 -68t-45 -49t-66 -30t-79.5 -10z" />
    <glyph glyph-name="sigma" unicode="&#x3c3;" horiz-adv-x="538" 
d="M445 379q18 -11 24.5 -31t6.5 -38v-133q0 -44 -17 -77.5t-46.5 -57t-69 -35.5t-83.5 -12q-41 0 -80 10.5t-70 32.5t-49.5 56t-18.5 80v141q0 46 20 80t51.5 56.5t70.5 33.5t76 11h51.5t77 -0.5t77 -0.5h52.5v-110h-73v-6zM349 292q0 24 -8 40.5t-21 27t-28.5 15
t-31.5 4.5t-32.5 -4.5t-29.5 -15t-21 -27t-8 -40.5v-93q0 -24 8 -40.5t21 -27t29.5 -15t32.5 -4.5t31.5 4.5t28.5 15t21 27t8 40.5v93z" />
    <glyph glyph-name="tau" unicode="&#x3c4;" horiz-adv-x="408" 
d="M20 393v103h351v-103h-131v-208q0 -44 17.5 -58.5t54.5 -14.5q15 0 33.5 1.5t39.5 3.5l13 -104q-32 -12 -65.5 -15.5t-56.5 -3.5q-49 0 -80 11t-49 32t-25 51.5t-7 69.5l-1 235h-94z" />
    <glyph glyph-name="upsilon" unicode="&#x3c5;" horiz-adv-x="524" 
d="M479 175q0 -46 -19.5 -80t-50.5 -56t-70 -33t-78 -11q-41 0 -80 11t-69 33t-48.5 56t-18.5 80v321h127v-297q0 -24 7.5 -40.5t20 -27t29 -15t33.5 -4.5q16 0 31.5 4.5t28.5 15t21 27t8 40.5v297h128v-321v0z" />
    <glyph glyph-name="phi" unicode="&#x3c6;" horiz-adv-x="671" 
d="M634 181q0 -47 -21.5 -81.5t-55.5 -58t-76 -35t-82 -11.5v-39.5t0.5 -57.5t0.5 -57.5v-39.5h-128v194q-43 0 -84 12.5t-73.5 36t-52.5 58t-20 79.5v134q0 38 14 68.5t37.5 52.5t53 35.5t61.5 19.5l21 -116q-23 -6 -41.5 -26t-18.5 -57v-91q0 -20 9 -36.5t23 -28t32.5 -18
t38.5 -6.5v336q46 26 88.5 39.5t88.5 13.5q38 0 72 -14t59 -38.5t39.5 -59t14.5 -74.5v-134zM506 300q0 42 -19.5 58.5t-43.5 16.5q-10 0 -21 -2.5t-22 -6.5v-254q21 0 40 5t33.5 16t23.5 27.5t9 40.5v99z" />
    <glyph glyph-name="chi" unicode="&#x3c7;" horiz-adv-x="507" 
d="M349 0l-97 156l-97 -156h-152l182 252l-174 243h152l89 -148l91 148h152l-176 -242l183 -253h-153z" />
    <glyph glyph-name="psi" unicode="&#x3c8;" horiz-adv-x="679" 
d="M633 185q0 -47 -21 -82.5t-54 -59t-74 -35.5t-81 -12l1 -196h-126v197q-40 0 -81 12t-74.5 35.5t-55 58.5t-21.5 80v313h127v-286q0 -23 9 -41t23.5 -31t33.5 -19.5t39 -6.5v383h126v-383q20 0 38.5 6.5t33 19t23 31t8.5 41.5v286h126v-311v0z" />
    <glyph glyph-name="omega" unicode="&#x3c9;" horiz-adv-x="788" 
d="M392 67q-26 -36 -67 -54t-80 -18t-75.5 11t-64.5 33t-44.5 56t-16.5 80v144q0 41 15 72.5t40 54t56.5 35.5t64.5 18l20 -114q-29 -5 -49.5 -26t-20.5 -63v-96q0 -48 24.5 -68t56.5 -20q16 0 30 5t25 15.5t17.5 27t6.5 40.5l1 155h127v-155q0 -44 22.5 -66t58.5 -22
q16 0 30 5t25 15.5t17.5 27t6.5 40.5v96q0 42 -20 63t-48 25l19 115q33 -5 64.5 -18t56.5 -35.5t40 -54t15 -72.5v-142q0 -46 -17 -80.5t-45.5 -57t-65 -33.5t-75.5 -11q-20 0 -41.5 4t-42 12.5t-37.5 22t-27 33.5h-2z" />
    <glyph glyph-name="iotadieresis" unicode="&#x3ca;" horiz-adv-x="269" 
d="M71 0v496h127v-496h-127zM166 625q0 29 20 48.5t49 19.5t48.5 -19.5t19.5 -48.5q0 -28 -19.5 -48t-48.5 -20t-49 20t-20 48zM-31 625q0 29 19.5 48.5t48.5 19.5t48.5 -19.5t19.5 -48.5q0 -28 -19.5 -48t-48.5 -20t-48.5 20t-19.5 48z" />
    <glyph glyph-name="upsilondieresis" unicode="&#x3cb;" horiz-adv-x="524" 
d="M479 175q0 -46 -19.5 -80t-50.5 -56t-70 -33t-78 -11q-41 0 -80 11t-69 33t-48.5 56t-18.5 80v321h127v-297q0 -24 7.5 -40.5t20 -27t29 -15t33.5 -4.5q16 0 31.5 4.5t28.5 15t21 27t8 40.5v297h128v-321zM291 625q0 29 20 48.5t49 19.5t48.5 -19.5t19.5 -48.5
q0 -28 -19.5 -48t-48.5 -20t-49 20t-20 48zM94 625q0 29 19.5 48.5t48.5 19.5t48.5 -19.5t19.5 -48.5q0 -28 -19.5 -48t-48.5 -20t-48.5 20t-19.5 48z" />
    <glyph glyph-name="omicrontonos" unicode="&#x3cc;" horiz-adv-x="519" 
d="M475 176q0 -46 -18.5 -80t-48.5 -56.5t-69 -33.5t-80 -11q-42 0 -81 11t-69.5 33.5t-48.5 56.5t-18 80v143q0 45 18.5 79.5t49 57t69.5 34t80 11.5q44 0 83.5 -11.5t69 -35t46.5 -58t17 -79.5v-141zM349 297q0 24 -8 40t-21 26.5t-29 15t-32 4.5t-32 -4.5t-29 -15
t-21 -26.5t-8 -40v-99q0 -24 7.5 -40t20 -26.5t28.5 -15t34 -4.5q16 0 32 4.5t29 15t21 26.5t8 40v99zM207 568q20 49 40 97t40 97l116 -37l-124 -184z" />
    <glyph glyph-name="upsilontonos" unicode="&#x3cd;" horiz-adv-x="524" 
d="M479 175q0 -46 -19.5 -80t-50.5 -56t-70 -33t-78 -11q-41 0 -80 11t-69 33t-48.5 56t-18.5 80v321h127v-297q0 -24 7.5 -40.5t20 -27t29 -15t33.5 -4.5q16 0 31.5 4.5t28.5 15t21 27t8 40.5v297h128v-321zM204 568l81 195l116 -37l-123 -185z" />
    <glyph glyph-name="omegatonos" unicode="&#x3ce;" horiz-adv-x="788" 
d="M392 67q-26 -36 -67 -54t-80 -18t-75.5 11t-64.5 33t-44.5 56t-16.5 80v144q0 41 15 72.5t40 54t56.5 35.5t64.5 18l20 -114q-29 -5 -49.5 -26t-20.5 -63v-96q0 -48 24.5 -68t56.5 -20q16 0 30 5t25 15.5t17.5 27t6.5 40.5l1 155h127v-155q0 -44 22.5 -66t58.5 -22
q16 0 30 5t25 15.5t17.5 27t6.5 40.5v96q0 42 -20 63t-48 25l19 115q33 -5 64.5 -18t56.5 -35.5t40 -54t15 -72.5v-142q0 -46 -17 -80.5t-45.5 -57t-65 -33.5t-75.5 -11q-20 0 -41.5 4t-42 12.5t-37.5 22t-27 33.5h-2zM336 568l81 195l116 -37l-123 -185z" />
    <glyph glyph-name="afii10023" unicode="&#x401;" horiz-adv-x="577" 
d="M60 689h475v-123h-338v-158h289v-123h-289v-163h338v-122h-475v689zM336 812q0 28 19.5 47.5t48.5 19.5t48 -19.5t19 -47.5q0 -29 -19 -49t-48 -20t-48.5 20t-19.5 49zM138 812q0 28 20 47.5t48 19.5q29 0 48.5 -19.5t19.5 -47.5q0 -29 -19.5 -49t-48.5 -20q-28 0 -48 20
t-20 49z" />
    <glyph glyph-name="afii10051" unicode="&#x402;" horiz-adv-x="738" 
d="M556 241q0 54 -24 80t-81 26q-28 0 -66 -11t-75 -32v-304h-137v565h-163v124h527v-124h-227v-139q45 22 89.5 33t85.5 11q105 0 157.5 -53t52.5 -144v-139q0 -56 -20 -98t-55 -71t-84 -43.5t-106 -14.5v122q57 2 91.5 29.5t34.5 94.5v88v0z" />
    <glyph glyph-name="afii10052" unicode="&#x403;" horiz-adv-x="535" 
d="M65 0v689h474v-123h-337v-566h-137zM212 795l170 126l80 -92l-200 -95z" />
    <glyph glyph-name="afii10053" unicode="&#x404;" horiz-adv-x="551" 
d="M456 522q-32 27 -69.5 37.5t-69.5 10.5q-23 0 -45.5 -6.5t-40 -21.5t-28.5 -39t-11 -58v-34h218v-117h-218v-50q0 -34 11.5 -57.5t30 -38.5t41 -22t44.5 -7q35 0 71 10t72 38l65 -106q-39 -32 -94 -50t-115 -18q-50 0 -97.5 14t-84.5 41.5t-59 69t-22 97.5v253
q0 55 22 97.5t58 71.5t82.5 43.5t95.5 14.5q60 0 114.5 -16t94.5 -51z" />
    <glyph glyph-name="afii10054" unicode="&#x405;" horiz-adv-x="599" 
d="M565 199q0 -50 -20 -88.5t-55.5 -64t-83.5 -38.5t-104 -13q-75 0 -141 21t-129 74l77 100q45 -35 93.5 -53.5t96.5 -18.5q33 0 56 6.5t37 18t20.5 26t6.5 29.5q0 23 -11.5 38t-33 25.5t-51 19t-65.5 18.5q-40 10 -76.5 24.5t-64.5 37t-44.5 55t-16.5 78.5q0 45 17 83
t47.5 65.5t74 43t96.5 15.5q63 1 126 -12t122 -52l-60 -110q-48 29 -91 40t-85 11q-20 0 -39.5 -5t-35 -14.5t-25 -25t-9.5 -36.5t10.5 -35.5t30.5 -25t48.5 -18.5t64.5 -16q109 -24 163 -73t54 -130z" />
    <glyph glyph-name="afii10055" unicode="&#x406;" horiz-adv-x="297" 
d="M217 689v-689h-137v689h137z" />
    <glyph glyph-name="afii10056" unicode="&#x407;" horiz-adv-x="297" 
d="M217 689v-689h-137v689h137zM181 804q0 29 20 48.5t49 19.5t48.5 -19.5t19.5 -48.5q0 -28 -19.5 -48t-48.5 -20t-49 20t-20 48zM-16 804q0 29 19.5 48.5t48.5 19.5t48.5 -19.5t19.5 -48.5q0 -28 -19.5 -48t-48.5 -20t-48.5 20t-19.5 48z" />
    <glyph glyph-name="afii10057" unicode="&#x408;" horiz-adv-x="533" 
d="M462 216q0 -56 -20.5 -97.5t-54.5 -69t-78.5 -41.5t-91.5 -14q-58 0 -115.5 15.5t-96.5 47.5l64 106q35 -26 67 -35.5t63 -9.5q27 0 50 6.5t39.5 22t26 40.5t9.5 62v440h138v-473v0z" />
    <glyph glyph-name="afii10058" unicode="&#x409;" horiz-adv-x="950" 
d="M930 213q0 -38 -11.5 -75.5t-36.5 -68.5t-65 -50t-97 -19h-303v565h-147v-182q0 -84 -8.5 -154t-34 -121.5t-72 -83.5t-122.5 -40l-29 109q45 10 71 31.5t39.5 56.5t17.5 84t4 114v310h418v-264h161q51 0 91 -16t67.5 -44t42 -67t14.5 -85zM797 213q0 41 -26.5 66
t-73.5 25h-143v-182h144q47 0 73 26t26 65z" />
    <glyph glyph-name="afii10059" unicode="&#x40a;" horiz-adv-x="933" 
d="M396 0v296h-201v-296h-137v689h137v-269h201v269h138v-268h160q51 0 91 -15t68 -42.5t42.5 -65.5t14.5 -84q0 -38 -11.5 -76t-36.5 -68.5t-65.5 -50t-97.5 -19.5h-303zM534 123h143q46 0 72.5 26t26.5 65q0 40 -26.5 62.5t-73.5 22.5h-142v-176z" />
    <glyph glyph-name="afii10060" unicode="&#x40b;" horiz-adv-x="738" 
d="M556 0v227q0 28 -4.5 50.5t-15.5 38t-31.5 23.5t-51.5 8q-28 0 -67 -11t-76 -32v-304h-137v565h-163v124h527v-124h-227v-138q42 20 87 31.5t86 11.5q57 0 97 -15t65.5 -42t37.5 -64.5t12 -82.5v-266h-139z" />
    <glyph glyph-name="afii10061" unicode="&#x40c;" horiz-adv-x="619" 
d="M59 0v689h137v-277h70q20 0 37.5 3.5t32 13t26 27t20.5 44.5l60 189h140l-62 -201q-16 -51 -41 -85t-57 -45q43 -14 67 -49.5t39 -86.5l66 -222h-149l-57 200q-8 28 -19.5 46t-26 28t-32.5 13.5t-39 3.5h-75v-291h-137zM223 795l170 126l80 -92l-200 -95z" />
    <glyph glyph-name="afii10062" unicode="&#x40e;" horiz-adv-x="570" 
d="M363 166q-36 -95 -82.5 -134.5t-116.5 -39.5h-73v109h62q26 0 41 9t25 30q2 5 4 9l4 8l-218 532h143l82 -224q17 -46 30.5 -86t22.5 -66h5l55 160q2 6 8.5 23.5t14.5 40.5t17 48t17 47t13.5 37.5t6.5 19.5h136zM292 700q-42 0 -70.5 15.5t-46 38t-25.5 49t-10 48.5h92
q0 -10 4 -21.5t11.5 -21.5t18.5 -16.5t26 -6.5q16 0 27.5 6.5t19 16.5t11.5 21.5t4 21.5h91q-3 -22 -11 -48.5t-25.5 -49t-45.5 -38t-71 -15.5z" />
    <glyph glyph-name="afii10145" unicode="&#x40f;" horiz-adv-x="646" 
d="M588 689v-689h-195v-169h-138v169h-197v689h137v-566h254v566h139z" />
    <glyph glyph-name="afii10017" unicode="&#x410;" horiz-adv-x="638" 
d="M438 142h-240l-45 -142h-146l242 689h140l240 -689h-149zM235 257h166l-27 88l-54 182h-4l-53 -179z" />
    <glyph glyph-name="afii10018" unicode="&#x411;" horiz-adv-x="594" 
d="M58 689h450v-123h-313v-140h157q52 0 92.5 -16t68.5 -44t43 -67t15 -85q0 -38 -12 -76t-38 -68.5t-66.5 -50t-97.5 -19.5h-299v689zM195 123h140q46 0 74.5 26t28.5 65q0 40 -28.5 65t-75.5 25h-139v-181z" />
    <glyph glyph-name="afii10019" unicode="&#x412;" horiz-adv-x="624" 
d="M581 205q0 -42 -13 -79t-38 -65t-62 -44.5t-86 -16.5h-323v689h310q52 0 89.5 -15t62 -41t36.5 -60t12 -71q0 -38 -20.5 -78t-64.5 -62q25 -12 43 -30.5t30 -40t18 -44t6 -42.5zM428 489q0 38 -22.5 58t-70.5 20h-139v-151h141q43 0 67 20t24 53zM436 209q0 40 -25 64.5
t-69 24.5h-146v-176h147q46 0 69.5 23.5t23.5 63.5z" />
    <glyph glyph-name="afii10020" unicode="&#x413;" horiz-adv-x="535" 
d="M65 0v689h474v-123h-337v-566h-137z" />
    <glyph glyph-name="afii10021" unicode="&#x414;" horiz-adv-x="729" 
d="M61 121q23 17 39 40.5t26.5 57.5t16.5 79.5t9 107.5l13 283h466q0 -143 0.5 -284.5t0.5 -284.5h60v-274h-125v154h-432v-154h-125v275h51zM288 568l-8 -165q-2 -44 -5 -83.5t-9 -75t-17 -67t-30 -57.5h277v448h-208z" />
    <glyph glyph-name="afii10022" unicode="&#x415;" horiz-adv-x="577" 
d="M60 689h475v-123h-338v-158h289v-123h-289v-163h338v-122h-475v689z" />
    <glyph glyph-name="afii10024" unicode="&#x416;" horiz-adv-x="917" 
d="M390 0v291h-48q-21 0 -39 -3.5t-33 -13.5t-26.5 -28t-19.5 -46l-56 -200h-150l66 222q15 51 39.5 86.5t67.5 49.5q-33 11 -58 44.5t-40 84.5l-63 202h141l60 -189q9 -28 20.5 -45t26.5 -26.5t32.5 -13t37.5 -3.5h42v277h137v-277h42q20 0 37.5 3.5t32 13t26.5 26.5t21 45
l60 189h140l-62 -202q-16 -51 -41 -84.5t-57 -44.5q43 -14 67 -49.5t39 -86.5l66 -222h-149l-57 200q-8 28 -19.5 46t-26 28t-32.5 13.5t-39 3.5h-48v-291h-137z" />
    <glyph glyph-name="afii10025" unicode="&#x417;" horiz-adv-x="550" 
d="M262 695q47 0 90 -10t76 -32.5t52.5 -58.5t19.5 -88q0 -50 -25.5 -89t-68.5 -59q50 -19 75.5 -60t25.5 -90q0 -57 -21.5 -97.5t-57 -67t-82 -38.5t-97.5 -12q-35 0 -69 4.5t-65.5 13.5t-58.5 22t-47 30l71 101q15 -12 35 -21.5t42 -15.5t43.5 -9.5t38.5 -3.5
q64 0 97.5 26.5t33.5 70.5q0 45 -31 67.5t-82 22.5h-92v108h88q22 0 41.5 6t34.5 17t24 28t9 38q0 22 -10 37t-26 24.5t-36.5 13.5t-42.5 4q-34 0 -75 -12.5t-70 -37.5l-67 98q43 34 101 52t126 18z" />
    <glyph glyph-name="afii10026" unicode="&#x418;" horiz-adv-x="675" 
d="M473 449l-68 -105q-12 -19 -29.5 -46.5t-38.5 -59.5t-43 -66t-42.5 -66t-38.5 -59.5t-30 -46.5h-124v689h136v-453h4l144 225l147 228h125v-689h-137v449h-5z" />
    <glyph glyph-name="afii10027" unicode="&#x419;" horiz-adv-x="675" 
d="M473 449l-68 -105q-12 -19 -29.5 -46.5t-38.5 -59.5t-43 -66t-42.5 -66t-38.5 -59.5t-30 -46.5h-124v689h136v-453h4l144 225l147 228h125v-689h-137v449h-5zM346 714q-42 0 -70.5 15.5t-46 38t-25.5 49t-10 48.5h92q0 -10 4 -21.5t11.5 -21.5t18.5 -16.5t26 -6.5
q16 0 27.5 6.5t19 16.5t11.5 21.5t4 21.5h91q-3 -22 -11 -48.5t-25.5 -49t-45.5 -38t-71 -15.5z" />
    <glyph glyph-name="afii10028" unicode="&#x41a;" horiz-adv-x="619" 
d="M59 0v689h137v-277h70q20 0 37.5 3.5t32 13t26 27t20.5 44.5l60 189h140l-62 -201q-16 -51 -41 -85t-57 -45q43 -14 67 -49.5t39 -86.5l66 -222h-149l-57 200q-8 28 -19.5 46t-26 28t-32.5 13.5t-39 3.5h-75v-291h-137z" />
    <glyph glyph-name="afii10029" unicode="&#x41b;" horiz-adv-x="647" 
d="M264 566v-183q0 -86 -10 -156t-36 -121t-72.5 -82t-119.5 -41l-30 112q43 14 69 36t40.5 56t19 81t4.5 111v310h454v-689h-139v566h-180z" />
    <glyph glyph-name="afii10030" unicode="&#x41c;" horiz-adv-x="785" 
d="M585 370l-64 -127l-78 -148h-99l-77 145l-67 130h-4v-370h-136v689h126l123 -243l83 -170h6l84 174l118 239h126v-689h-137v370h-4z" />
    <glyph glyph-name="afii10031" unicode="&#x41d;" horiz-adv-x="646" 
d="M449 0v288h-254v-288h-137v689h137v-277h254v277h139v-689h-139z" />
    <glyph glyph-name="afii10032" unicode="&#x41e;" horiz-adv-x="638" 
d="M584 220q0 -56 -21 -98t-57 -71t-84.5 -43.5t-102.5 -14.5t-102.5 14.5t-84.5 43.5t-57 71t-21 98v253q0 55 22 97t59 70t85 42t99 14t99 -15t85 -43.5t59 -71t22 -97.5v-249zM446 445q0 34 -11 57.5t-29 38.5t-40.5 22t-46.5 7t-47 -7t-41 -22t-29 -38.5t-11 -57.5v-201
q0 -34 11 -58t29 -39t41 -21.5t47 -6.5t46.5 6.5t40.5 21.5t29 39t11 58v201z" />
    <glyph glyph-name="afii10033" unicode="&#x41f;" horiz-adv-x="646" 
d="M449 0v566h-254v-566h-137v689h530v-689h-139z" />
    <glyph glyph-name="afii10034" unicode="&#x420;" horiz-adv-x="576" 
d="M195 383h140q47 0 71 26t24 65q0 40 -24.5 66t-70.5 26h-140v-183zM366 689q51 0 88 -19.5t61.5 -50.5t36 -69.5t11.5 -75.5q0 -38 -13.5 -76t-39 -69t-63 -50.5t-85.5 -19.5h-167v-259h-137v689h308z" />
    <glyph glyph-name="afii10035" unicode="&#x421;" horiz-adv-x="561" 
d="M464 522q-32 27 -69 37.5t-72 10.5q-23 0 -46 -6.5t-41 -21.5t-29.5 -39t-11.5 -58v-201q0 -34 11.5 -57.5t30 -38.5t41 -22t45.5 -7q35 0 70.5 10t71.5 38l65 -106q-38 -32 -93 -50t-116 -18q-49 0 -96 14t-84 41.5t-60 69t-23 97.5v258q0 55 22.5 96.5t59 69.5t83.5 42
t96 14q60 0 115.5 -16t95.5 -51z" />
    <glyph glyph-name="afii10036" unicode="&#x422;" horiz-adv-x="526" 
d="M332 565v-565h-137v565h-183v124h502v-124h-182z" />
    <glyph glyph-name="afii10037" unicode="&#x423;" horiz-adv-x="570" 
d="M363 166q-36 -95 -82.5 -134.5t-116.5 -39.5h-73v109h62q26 0 41 9t25 30q2 5 4 9l4 8l-218 532h143l82 -224q17 -46 30.5 -86t22.5 -66h5l55 160q2 6 8.5 23.5t14.5 40.5t17 48t17 47t13.5 37.5t6.5 19.5h136z" />
    <glyph glyph-name="afii10038" unicode="&#x424;" horiz-adv-x="793" 
d="M465 659q58 -2 107.5 -21t86 -52t57 -78t20.5 -99v-96q0 -55 -20 -101t-56 -80t-86 -53.5t-109 -20.5v-58h-137v58q-61 3 -111 23t-85.5 53t-55 78t-19.5 100v97q0 54 21.5 99.5t58 78t86 51.5t105.5 21v37h137v-37zM602 395q0 65 -38 102.5t-99 39.5v-357q59 2 98 39
t39 102v74zM191 321q0 -32 11 -58t29.5 -44t43.5 -28t53 -11v357q-28 -1 -53 -11t-43.5 -28.5t-29.5 -44.5t-11 -58v-74z" />
    <glyph glyph-name="afii10039" unicode="&#x425;" horiz-adv-x="595" 
d="M298 238l-137 -238h-155l219 353l-206 336h156l123 -221l123 221h154l-204 -336l218 -353h-155z" />
    <glyph glyph-name="afii10040" unicode="&#x426;" horiz-adv-x="669" 
d="M588 689v-569h60v-275h-125v155h-465v689h137v-567h254v567h139z" />
    <glyph glyph-name="afii10041" unicode="&#x427;" horiz-adv-x="611" 
d="M165 689v-203q0 -63 32 -91.5t97 -28.5q32 0 67.5 10.5t61.5 24.5v288h138v-688h-139v284q-33 -17 -74.5 -27t-84.5 -10q-51 0 -94.5 13.5t-75 40.5t-49 68.5t-17.5 98.5v220h138z" />
    <glyph glyph-name="afii10042" unicode="&#x428;" horiz-adv-x="917" 
d="M859 689v-689h-800v689h136v-567h195v567h136v-567h195v567h138z" />
    <glyph glyph-name="afii10043" unicode="&#x429;" horiz-adv-x="937" 
d="M526 122h194v567h139v-569h60v-275h-124v155h-736v689h136v-567h195v567h136v-567z" />
    <glyph glyph-name="afii10044" unicode="&#x42a;" horiz-adv-x="757" 
d="M216 0v569h-205v120h342v-263h160q51 0 91 -16t68 -44t43 -67t15 -85q0 -38 -12 -76t-37.5 -68.5t-65.5 -50t-97 -19.5h-302zM353 123h143q46 0 73 26t27 65q0 40 -27.5 65t-73.5 25h-142v-181z" />
    <glyph glyph-name="afii10045" unicode="&#x42b;" horiz-adv-x="837" 
d="M197 123h142q46 0 73.5 26t27.5 65q0 40 -27.5 65t-74.5 25h-141v-181zM60 0v689h137v-263h159q51 0 91 -16t68 -44t43 -67t15 -85q0 -38 -12 -76t-37.5 -68.5t-65.5 -50t-97 -19.5h-301zM774 689v-689h-136v689h136z" />
    <glyph glyph-name="afii10046" unicode="&#x42c;" horiz-adv-x="596" 
d="M197 123h142q46 0 73.5 26t27.5 65q0 40 -27.5 65t-74.5 25h-141v-181zM60 0v689h137v-263h159q51 0 91 -16t68 -44t43 -67t15 -85q0 -38 -12 -76t-37.5 -68.5t-65.5 -50t-97 -19.5h-301z" />
    <glyph glyph-name="afii10047" unicode="&#x42d;" horiz-adv-x="552" 
d="M43 633q42 31 96 46.5t117 15.5q53 0 97 -13t76 -40.5t50 -69t18 -98.5v-258q0 -56 -22 -97.5t-58 -69.5t-83 -42t-98 -14q-60 0 -118 17.5t-96 50.5l67 105q33 -29 71 -38.5t73 -9.5q26 0 49 7t40 22t27 38.5t10 57.5v56h-228v116h228v29q0 34 -9 58t-25.5 39t-39 22
t-48.5 7q-33 0 -66 -10t-65 -34z" />
    <glyph glyph-name="afii10048" unicode="&#x42e;" horiz-adv-x="836" 
d="M781 220q0 -56 -19 -98t-52.5 -71t-80 -43.5t-100.5 -14.5t-100 14.5t-79.5 43.5t-52.5 71t-19 98v68h-78v-288h-136v689h136v-277h78v61q0 55 20 97t54 70t80 42t97 14t97 -15t80.5 -43.5t54.5 -71t20 -97.5v-249zM643 445q0 67 -33 96t-81 29t-81 -29t-33 -96v-201
q0 -34 9 -58t24.5 -39t36 -21.5t44.5 -6.5q48 0 81 28.5t33 96.5v201z" />
    <glyph glyph-name="afii10049" unicode="&#x42f;" horiz-adv-x="626" 
d="M569 689v-689h-138v273h-80q-21 0 -38 -4t-31 -14t-25 -27.5t-19 -45.5l-52 -182h-151l58 189q12 38 27 67.5t47 46.5q-31 9 -52 27.5t-34.5 42.5t-19.5 51.5t-6 54.5q0 39 12.5 77t38.5 67.5t65.5 47.5t93.5 18h304zM431 566h-138q-51 0 -75 -25t-24 -68q0 -40 25 -60.5
t72 -20.5h140v174z" />
    <glyph glyph-name="afii10065" unicode="&#x430;" horiz-adv-x="525" 
d="M347 41q-45 -26 -81 -35.5t-67 -9.5q-76 0 -117.5 40.5t-41.5 110.5q0 41 17 69.5t43.5 46.5t58.5 26t61 8h128v21q0 35 -20 52.5t-71 17.5q-24 0 -59.5 -7t-71.5 -36l-57 93q52 40 104.5 52t96.5 12q106 0 156 -48t50 -145v-309h-117l-9 40zM349 203h-106
q-12 0 -23.5 -1.5t-21 -7t-15.5 -15t-6 -24.5q0 -20 14.5 -32.5t43.5 -12.5q32 0 63 12.5t51 23.5v57z" />
    <glyph glyph-name="afii10066" unicode="&#x431;" horiz-adv-x="520" 
d="M181 442q10 8 23 14t27 10.5t28 6.5t26 2q43 0 78.5 -11.5t60.5 -34.5t39 -59t14 -84v-104q0 -46 -18 -81t-48 -58.5t-69.5 -35.5t-83.5 -12q-48 0 -88 12t-68.5 35.5t-44 58.5t-15.5 81v120q0 53 4 96t13 78t24.5 63.5t38.5 53.5q16 18 37 32t44 26t47.5 22t48.5 19
q30 12 54 21t53 23l42 -102q-19 -8 -33 -14t-26.5 -11t-24 -9.5t-24.5 -9.5q-30 -12 -57.5 -24.5t-49.5 -29t-36.5 -38.5t-19.5 -53zM351 270q0 47 -26.5 67.5t-63.5 20.5q-16 0 -32.5 -5.5t-29.5 -17t-21 -28.5t-8 -41v-68q0 -24 7.5 -40t19.5 -26.5t28 -15t34 -4.5
q17 0 33.5 4.5t29.5 15t21 26.5t8 40v72z" />
    <glyph glyph-name="afii10067" unicode="&#x432;" horiz-adv-x="512" 
d="M471 149q0 -31 -10 -58t-30.5 -47.5t-51 -32t-71.5 -11.5h-261v495h259q39 0 68.5 -10.5t49 -28.5t29 -42.5t9.5 -52.5q0 -16 -5 -32t-14 -29.5t-21 -24t-25 -15.5v-1q34 -14 54 -43t20 -67zM341 154q0 23 -16 37t-43 14h-108v-102h105q32 0 47 14t15 37zM335 347
q0 21 -14.5 32t-38.5 11h-108v-84h110q25 0 38 11t13 30z" />
    <glyph glyph-name="afii10068" unicode="&#x433;" horiz-adv-x="426" 
d="M48 0v495h377v-106h-251v-389h-126z" />
    <glyph glyph-name="afii10069" unicode="&#x434;" horiz-adv-x="582" 
d="M237 390l-6 -97q-3 -51 -10 -100t-27 -84h192v281h-149zM11 108h19.5t18.5 1q27 20 41.5 61.5t21.5 95t9.5 113t5.5 116.5h382v-386h47v-238h-113v129h-319v-129h-113v237z" />
    <glyph glyph-name="afii10070" unicode="&#x435;" horiz-adv-x="508" 
d="M172 210v-16q0 -22 7.5 -38t20 -26t28.5 -15t34 -5q21 0 52 6.5t66 34.5l70 -87q-23 -22 -46 -35.5t-46 -21t-46.5 -10t-47.5 -2.5q-44 0 -83.5 11t-69.5 33.5t-48 56.5t-18 81v128q0 46 16.5 82.5t45.5 61.5t67 38t82 13q46 0 85 -13t67 -37.5t44 -60.5t16 -82v-97h-296
zM341 303q0 42 -25 61.5t-59 19.5q-35 0 -60 -22t-25 -63v-6h169v10z" />
    <glyph glyph-name="afii10072" unicode="&#x436;" horiz-adv-x="736" 
d="M302 0v199h-24q-18 0 -31.5 -2t-24.5 -9.5t-19.5 -21t-14.5 -35.5l-39 -131h-142l55 161q12 37 28 61.5t53 36.5q-31 12 -47.5 35t-28.5 58l-51 144h136l42 -117q15 -41 35 -54t51 -13h22v184h128v-184h22q32 0 52 13t34 54l42 117h135l-50 -144q-13 -35 -29.5 -58
t-47.5 -35q37 -12 53 -36.5t29 -61.5l54 -161h-142l-38 131q-6 22 -14.5 35.5t-19 21t-24.5 9.5t-32 2h-24v-199h-128z" />
    <glyph glyph-name="afii10073" unicode="&#x437;" horiz-adv-x="457" 
d="M235 501q37 0 70 -9t57.5 -27t38.5 -44.5t14 -62.5q0 -29 -17 -57t-50 -45q36 -17 53 -47t17 -59q0 -39 -15 -68t-42 -48.5t-64 -29.5t-81 -10q-51 0 -104 14t-92 44l62 87q27 -20 62.5 -30.5t60.5 -10.5q48 0 68 15.5t20 37.5q0 52 -73 52h-72v95h70q32 0 51 13.5
t19 36.5q0 25 -21 36t-48 11q-25 0 -56.5 -8.5t-57.5 -29.5l-61 86q38 31 89 44.5t102 13.5z" />
    <glyph glyph-name="afii10074" unicode="&#x438;" horiz-adv-x="538" 
d="M356 294l-84 -129l-111 -165h-111v495h127v-292h5l72 110l121 182h113v-495h-127v294h-5z" />
    <glyph glyph-name="afii10075" unicode="&#x439;" horiz-adv-x="538" 
d="M271 563q-42 0 -70.5 15.5t-46 38t-25.5 49t-10 48.5h92q0 -10 4 -21.5t11.5 -21.5t18.5 -16.5t26 -6.5q16 0 27.5 6.5t19 16.5t11.5 21.5t4 21.5h91q-3 -22 -11 -48.5t-25.5 -49t-45.5 -38t-71 -15.5zM356 294l-84 -129l-111 -165h-111v495h127v-292h5l72 110l121 182
h113v-495h-127v294h-5z" />
    <glyph glyph-name="afii10076" unicode="&#x43a;" horiz-adv-x="524" 
d="M50 0v496h128v-184h41q32 0 54.5 13t37.5 54l43 117h136l-52 -144q-12 -35 -28.5 -58t-47.5 -35q37 -12 53 -36.5t28 -61.5l56 -161h-142l-39 131q-7 22 -16.5 35.5t-21.5 21t-27 9.5t-33 2h-42v-199h-128z" />
    <glyph glyph-name="afii10077" unicode="&#x43b;" horiz-adv-x="526" 
d="M223 279q0 -135 -45.5 -206t-150.5 -86l-26 100q29 9 48 21.5t30 33.5t15.5 53.5t4.5 80.5v219h373v-495h-127v388h-122v-109z" />
    <glyph glyph-name="afii10078" unicode="&#x43c;" horiz-adv-x="639" 
d="M320 212l75 138l79 145h113v-495h-125v250h-3l-51 -99l-48 -88h-85l-51 91l-46 87l-3 -1v-240h-125v495h115l75 -142l75 -141h5z" />
    <glyph glyph-name="afii10079" unicode="&#x43d;" horiz-adv-x="535" 
d="M357 0v198h-182v-198h-125v495h125v-190h182v190h128v-495h-128z" />
    <glyph glyph-name="afii10080" unicode="&#x43e;" horiz-adv-x="519" 
d="M476 176q0 -46 -18.5 -80t-49 -56.5t-69.5 -33.5t-80 -11q-42 0 -81 11t-69.5 33.5t-48.5 56.5t-18 80v143q0 46 18.5 80t49 56.5t70 34t80.5 11.5q44 0 83.5 -11.5t69 -34.5t46.5 -57.5t17 -80.5v-141zM349 297q0 24 -8 40t-21 26.5t-28.5 15t-31.5 4.5t-32.5 -4.5
t-29.5 -15t-21 -26.5t-8 -40v-98q0 -24 7.5 -40.5t20.5 -27t29 -15t34 -4.5q16 0 31.5 4.5t28.5 15t21 27t8 40.5v98z" />
    <glyph glyph-name="afii10081" unicode="&#x43f;" horiz-adv-x="532" 
d="M355 0v385h-178v-385h-127v496h433v-496h-128z" />
    <glyph glyph-name="afii10082" unicode="&#x440;" horiz-adv-x="525" 
d="M484 173q0 -81 -44 -130.5t-130 -49.5q-26 0 -61.5 5t-71.5 24v-220h-127v692h117l10 -45q42 26 79 38t63 12q80 0 122.5 -44t42.5 -137v-145zM355 307q0 43 -18 58.5t-44 15.5q-12 0 -26.5 -3.5t-30.5 -9.5t-31 -13.5t-28 -16.5v-197q34 -16 59 -21.5t48 -5.5
q29 -1 50 16t21 59v118z" />
    <glyph glyph-name="afii10083" unicode="&#x441;" horiz-adv-x="453" 
d="M436 68q-22 -23 -45 -37.5t-47 -22.5t-47.5 -10.5t-47.5 -2.5q-41 0 -78 11t-65 33.5t-44.5 56t-16.5 78.5v146q0 45 18 79t47 56.5t65.5 34t73.5 11.5q23 0 47 -2t47.5 -9t46.5 -20.5t45 -36.5l-73 -93q-35 31 -59.5 37.5t-42.5 6.5q-15 0 -31 -4.5t-28.5 -15t-20.5 -27
t-8 -39.5v-99q0 -24 7.5 -40.5t19.5 -27t27.5 -15t31.5 -4.5q20 0 48.5 9t53.5 34z" />
    <glyph glyph-name="afii10084" unicode="&#x442;" horiz-adv-x="422" 
d="M275 388v-388h-127v388h-141v107h409v-107h-141z" />
    <glyph glyph-name="afii10085" unicode="&#x443;" horiz-adv-x="492" 
d="M99 -199l76 210l-29 22l-136 463h131l46 -187l43 -165h3l55 167l60 185h132l-253 -695h-128z" />
    <glyph glyph-name="afii10086" unicode="&#x444;" horiz-adv-x="658" 
d="M265 -199v194q-50 0 -91 16t-70.5 44t-45.5 66.5t-16 83.5v84q0 45 15.5 82.5t44.5 65.5t70.5 44t92.5 18v189h127v-189q50 -2 91 -18t70.5 -44t45.5 -65.5t16 -82.5v-84q0 -45 -16 -83.5t-45.5 -66.5t-70.5 -44t-91 -16v-194h-127zM265 382q-47 0 -72 -29.5t-25 -74.5
v-62q0 -45 26 -74.5t71 -30.5v271zM392 111q47 1 72 30.5t25 74.5v62q0 45 -24 74t-73 30v-271z" />
    <glyph glyph-name="afii10087" unicode="&#x445;" horiz-adv-x="507" 
d="M349 0l-97 156l-97 -156h-152l182 252l-174 243h152l89 -148l91 148h152l-176 -242l183 -253h-153z" />
    <glyph glyph-name="afii10088" unicode="&#x446;" horiz-adv-x="544" 
d="M479 495v-385l46 -1v-239h-114v130h-359v495h125v-385h175v385h127z" />
    <glyph glyph-name="afii10089" unicode="&#x447;" horiz-adv-x="510" 
d="M152 495v-148q0 -40 22 -57t61 -17q23 0 49.5 7.5t51.5 20.5v194h126v-495h-126v197q-36 -17 -68 -23.5t-61 -6.5q-39 0 -72 9.5t-57 30t-38 51.5t-14 74v163h126z" />
    <glyph glyph-name="afii10090" unicode="&#x448;" horiz-adv-x="748" 
d="M695 495v-495h-644v495h127v-384h131v384h126v-384h132v384h128z" />
    <glyph glyph-name="afii10091" unicode="&#x449;" horiz-adv-x="758" 
d="M694 495v-386h47v-239h-114v130h-575v495h126v-384h131v384h125v-384h133v384h127z" />
    <glyph glyph-name="afii10092" unicode="&#x44a;" horiz-adv-x="603" 
d="M293 105h105q33 0 49 15t16 39q0 20 -15 36.5t-50 16.5h-105v-107zM167 0v391h-158v104h284v-180h115q86 0 132.5 -42t46.5 -114q0 -30 -10 -58.5t-31 -51t-54.5 -36t-80.5 -13.5h-244z" />
    <glyph glyph-name="afii10093" unicode="&#x44b;" horiz-adv-x="693" 
d="M514 0v495h126v-495h-126zM175 105h105q34 0 50 15t16 39q0 20 -15.5 36.5t-50.5 16.5h-105v-107zM50 0v495h125v-180h116q85 0 131.5 -42t46.5 -114q0 -30 -10 -58.5t-31 -51t-54.5 -36t-79.5 -13.5h-244z" />
    <glyph glyph-name="afii10094" unicode="&#x44c;" horiz-adv-x="483" 
d="M176 105h106q33 0 49 15t16 39q0 20 -15 36.5t-50 16.5h-106v-107zM52 0v495h125v-180h115q86 0 132.5 -42t46.5 -114q0 -30 -10 -58.5t-31.5 -51t-55 -36t-79.5 -13.5h-243z" />
    <glyph glyph-name="afii10095" unicode="&#x44d;" horiz-adv-x="449" 
d="M200 -5q-24 0 -47.5 2t-47 9t-46.5 20t-45 36l70 92q17 -16 32 -24.5t28 -12.5t24 -5t20 -1q17 0 33 4.5t28.5 15t20 26.5t7.5 39v12h-155v92h155v8q0 44 -23 59.5t-56 15.5q-19 0 -47.5 -7t-53.5 -30l-67 92q21 19 44.5 31.5t47.5 19.5t46.5 9.5t41.5 2.5
q89 0 141.5 -45t52.5 -134v-145q0 -45 -16.5 -79t-45 -57t-65.5 -34.5t-77 -11.5z" />
    <glyph glyph-name="afii10096" unicode="&#x44e;" horiz-adv-x="689" 
d="M647 174q0 -42 -16 -75.5t-44 -56.5t-65.5 -35t-80.5 -12q-44 0 -82 12.5t-66 35.5t-44 57t-16 76v22h-57v-198h-124v495h124v-191h57v19q0 42 17 75.5t46 56.5t66.5 35t78.5 12q42 0 79.5 -12t65.5 -35t44.5 -56t16.5 -75v-150zM522 301q0 47 -24 67t-57 20
q-32 0 -57.5 -20t-25.5 -67v-108q0 -45 24.5 -64.5t58.5 -19.5q31 0 56 19.5t25 64.5v108z" />
    <glyph glyph-name="afii10097" unicode="&#x44f;" horiz-adv-x="510" 
d="M462 495v-495h-128v187h-53q-33 0 -55 -12.5t-34 -55.5l-30 -119h-133l41 143q8 25 20 43.5t34 26.5q-22 7 -37 21t-24.5 31.5t-13.5 36.5t-4 37q0 29 10 57t31 50t53 35.5t76 13.5h247zM334 389h-102q-27 0 -43.5 -13.5t-16.5 -37.5q0 -47 61 -47h101v98z" />
    <glyph glyph-name="afii10071" unicode="&#x451;" horiz-adv-x="508" 
d="M172 210v-16q0 -22 7.5 -38t20 -26t28.5 -15t34 -5q21 0 52 6.5t66 34.5l70 -87q-23 -22 -46 -35.5t-46 -21t-46.5 -10t-47.5 -2.5q-44 0 -83.5 11t-69.5 33.5t-48 56.5t-18 81v128q0 46 16.5 82.5t45.5 61.5t67 38t82 13q46 0 85 -13t67 -37.5t44 -60.5t16 -82v-97h-296
zM290 632q0 29 20 48.5t49 19.5t48.5 -19.5t19.5 -48.5q0 -28 -19.5 -48t-48.5 -20t-49 20t-20 48zM93 632q0 29 19.5 48.5t48.5 19.5t48.5 -19.5t19.5 -48.5q0 -28 -19.5 -48t-48.5 -20t-48.5 20t-19.5 48zM341 303q0 42 -25 61.5t-59 19.5q-35 0 -60 -22t-25 -63v-6h169
v10z" />
    <glyph glyph-name="afii10099" unicode="&#x452;" horiz-adv-x="536" 
d="M492 103q0 -50 -17 -86.5t-46.5 -60t-68.5 -34.5t-84 -11v111q38 0 63.5 18.5t25.5 65.5l-1 199q0 42 -20 58.5t-45 16.5q-24 0 -51.5 -10.5t-64.5 -33.5v-336h-127v562h-49v86h49v68h127v-68h185v-86h-185v-112q27 17 49.5 27t41 15.5t34 7t28.5 1.5q84 0 120 -49.5
t36 -130.5v-218z" />
    <glyph glyph-name="afii10100" unicode="&#x453;" horiz-adv-x="426" 
d="M165 568l81 195l116 -37l-123 -185zM48 0v495h377v-106h-251v-389h-126z" />
    <glyph glyph-name="afii10101" unicode="&#x454;" horiz-adv-x="453" 
d="M436 68q-23 -23 -46 -37.5t-46.5 -22.5t-47.5 -10.5t-47 -2.5q-41 0 -78 11t-65 33.5t-44.5 56t-16.5 77.5v147q0 45 18 79t46.5 56.5t65 34t73.5 11.5q46 0 92.5 -10.5t89.5 -52.5l-71 -96q-34 30 -58 36t-42 6q-15 0 -30 -4t-28 -13.5t-21 -25t-8 -37.5v-4h140v-99
h-140v-6q0 -23 7.5 -39t19.5 -25.5t27 -14t31 -4.5q20 0 48.5 9t53.5 34z" />
    <glyph glyph-name="afii10102" unicode="&#x455;" horiz-adv-x="467" 
d="M236 -5q-27 0 -54.5 2.5t-55 10t-55 21.5t-55.5 38l69 91q37 -31 74 -42.5t75 -11.5q34 0 56 12.5t22 34.5q0 18 -13.5 29t-47.5 17t-70.5 13.5t-66.5 22.5t-49 41t-19 69q0 39 16 68.5t42 49t59.5 29.5t69.5 10q59 0 107 -10.5t95 -46.5l-60 -95q-38 26 -73.5 33.5
t-66.5 7.5q-33 0 -48.5 -13t-15.5 -30q0 -19 20 -27t50.5 -14t65.5 -13t65.5 -22.5t50.5 -43t20 -74.5q0 -39 -16.5 -68t-45 -49t-66 -30t-79.5 -10z" />
    <glyph glyph-name="afii10103" unicode="&#x456;" horiz-adv-x="269" 
d="M71 0v494h127v-494h-127zM63 628q0 30 21 51t50 21t50 -21t21 -51t-21 -50.5t-50 -20.5t-50 20.5t-21 50.5z" />
    <glyph glyph-name="afii10104" unicode="&#x457;" horiz-adv-x="269" 
d="M168 625q0 29 20 48.5t49 19.5t48.5 -19.5t19.5 -48.5q0 -28 -19.5 -48t-48.5 -20t-49 20t-20 48zM-29 625q0 29 19.5 48.5t48.5 19.5t48.5 -19.5t19.5 -48.5q0 -28 -19.5 -48t-48.5 -20t-48.5 20t-19.5 48zM71 0v494h127v-494h-127z" />
    <glyph glyph-name="afii10105" unicode="&#x458;" horiz-adv-x="272" 
d="M203 -52q0 -72 -44 -110.5t-114 -38.5h-57v109h32q34 0 44.5 17t10.5 43v526h128v-546zM68 629q0 29 20.5 50t50.5 21t51 -21t21 -50q0 -30 -21 -50.5t-51 -20.5t-50.5 20.5t-20.5 50.5z" />
    <glyph glyph-name="afii10106" unicode="&#x459;" horiz-adv-x="766" 
d="M452 495v-180h115q86 0 132.5 -42t46.5 -114q0 -30 -10 -58.5t-31.5 -51t-55 -36t-79.5 -13.5h-243v389h-95v-111q0 -129 -45 -202t-151 -89l-26 100q29 9 48 22t30.5 34.5t16 53t4.5 76.5v222h343zM451 105h106q33 0 49 15t16 39q0 20 -15 36.5t-50 16.5h-106v-107z" />
    <glyph glyph-name="afii10107" unicode="&#x45a;" horiz-adv-x="755" 
d="M443 495v-180h114q86 0 133 -42t47 -114q0 -30 -10 -58.5t-31.5 -51t-55 -36t-79.5 -13.5h-244v207h-138v-207h-126v495h126v-183h138v183h126zM443 105h104q33 0 49.5 15t16.5 39q0 20 -15.5 36.5t-50.5 16.5h-104v-107z" />
    <glyph glyph-name="afii10108" unicode="&#x45b;" horiz-adv-x="536" 
d="M364 0v305q0 42 -20 58.5t-45 16.5q-24 0 -51.5 -10.5t-64.5 -33.5v-336h-127v562h-49v86h49v68h127v-68h185v-86h-185v-112q27 17 49.5 27t41 15.5t34 7t28.5 1.5q84 0 120 -49.5t36 -130.5v-321h-128z" />
    <glyph glyph-name="afii10109" unicode="&#x45c;" horiz-adv-x="524" 
d="M195 568l81 195l116 -37l-123 -185zM50 0v496h128v-184h41q32 0 54.5 13t37.5 54l43 117h136l-52 -144q-12 -35 -28.5 -58t-47.5 -35q37 -12 53 -36.5t28 -61.5l56 -161h-142l-39 131q-7 22 -16.5 35.5t-21.5 21t-27 9.5t-33 2h-42v-199h-128z" />
    <glyph glyph-name="afii10110" unicode="&#x45e;" horiz-adv-x="492" 
d="M99 -199l76 210l-29 22l-136 463h131l46 -187l43 -165h3l55 167l60 185h132l-253 -695h-128zM249 563q-42 0 -70.5 15.5t-46 38t-25.5 49t-10 48.5h92q0 -10 4 -21.5t11.5 -21.5t18.5 -16.5t26 -6.5q16 0 27.5 6.5t19 16.5t11.5 21.5t4 21.5h91q-3 -22 -11 -48.5
t-25.5 -49t-45.5 -38t-71 -15.5z" />
    <glyph glyph-name="afii10193" unicode="&#x45f;" horiz-adv-x="530" 
d="M209 0h-159v495h124v-390h180v390h127v-495h-152v-141h-120v141z" />
    <glyph glyph-name="afii10050" unicode="&#x490;" horiz-adv-x="552" 
d="M538 566h-336v-566h-137v689h359v125h114v-248z" />
    <glyph glyph-name="afii10098" unicode="&#x491;" horiz-adv-x="430" 
d="M174 389v-389h-126v495h267v104h110v-210h-251z" />
    <glyph glyph-name="schwacyrillic" unicode="&#x4d9;" horiz-adv-x="517" 
d="M343 285v16q0 45 -23.5 64.5t-64.5 19.5q-20 0 -52.5 -6.5t-67.5 -34.5l-65 89q47 43 97 55.5t99 12.5q43 0 80.5 -11t64.5 -34t42.5 -57.5t15.5 -80.5v-128q0 -47 -16.5 -83t-45.5 -60.5t-67.5 -37.5t-81.5 -13q-46 0 -85 12.5t-67 37t-44 60.5t-16 82v97h297zM173 192
q0 -42 25 -61.5t59 -19.5q35 0 60 21.5t25 63.5v6h-169v-10z" />
    <glyph glyph-name="Wgrave" unicode="&#x1e80;" horiz-adv-x="908" 
d="M450 455l-49 -196l-64 -259h-151l-176 689h146l60 -272l46 -213h7l53 215l68 270h128l72 -284l50 -201h6l43 203l63 282h146l-178 -689h-149l-64 260l-50 195h-7zM463 740l-203 99l64 99l186 -133z" />
    <glyph glyph-name="wgrave" unicode="&#x1e81;" horiz-adv-x="736" 
d="M224 181q2 7 9 28.5t15 46t15 46t10 29.5q2 7 7.5 24t11.5 35.5t11 34.5t7 23h108l42 -128l44 -144h4q2 9 7.5 32t11.5 49t11 49.5t7 32.5l38 157h133l-137 -496h-129l-43 132l-42 133l-4 1q-3 -7 -9 -26.5t-13 -42t-13 -42t-8 -26.5l-42 -129h-127l-139 496h134l40 -164
l35 -151h5zM351 541l-130 182l116 39l86 -188z" />
    <glyph glyph-name="Wacute" unicode="&#x1e82;" horiz-adv-x="908" 
d="M450 455l-49 -196l-64 -259h-151l-176 689h146l60 -272l46 -213h7l53 215l68 270h128l72 -284l50 -201h6l43 203l63 282h146l-178 -689h-149l-64 260l-50 195h-7zM397 795l170 126l80 -92l-200 -95z" />
    <glyph glyph-name="wacute" unicode="&#x1e83;" horiz-adv-x="736" 
d="M224 181q2 7 9 28.5t15 46t15 46t10 29.5q2 7 7.5 24t11.5 35.5t11 34.5t7 23h108l42 -128l44 -144h4q2 9 7.5 32t11.5 49t11 49.5t7 32.5l38 157h133l-137 -496h-129l-43 132l-42 133l-4 1q-3 -7 -9 -26.5t-13 -42t-13 -42t-8 -26.5l-42 -129h-127l-139 496h134l40 -164
l35 -151h5zM324 568l81 195l116 -37l-123 -185z" />
    <glyph glyph-name="Wdieresis" unicode="&#x1e84;" horiz-adv-x="908" 
d="M450 455l-49 -196l-64 -259h-151l-176 689h146l60 -272l46 -213h7l53 215l68 270h128l72 -284l50 -201h6l43 203l63 282h146l-178 -689h-149l-64 260l-50 195h-7zM483 812q0 28 19.5 47.5t48.5 19.5t48 -19.5t19 -47.5q0 -29 -19 -49t-48 -20t-48.5 20t-19.5 49zM285 812
q0 28 20 47.5t48 19.5q29 0 48.5 -19.5t19.5 -47.5q0 -29 -19.5 -49t-48.5 -20q-28 0 -48 20t-20 49z" />
    <glyph glyph-name="wdieresis" unicode="&#x1e85;" horiz-adv-x="736" 
d="M224 181q2 7 9 28.5t15 46t15 46t10 29.5q2 7 7.5 24t11.5 35.5t11 34.5t7 23h108l42 -128l44 -144h4q2 9 7.5 32t11.5 49t11 49.5t7 32.5l38 157h133l-137 -496h-129l-43 132l-42 133l-4 1q-3 -7 -9 -26.5t-13 -42t-13 -42t-8 -26.5l-42 -129h-127l-139 496h134l40 -164
l35 -151h5zM397 626q0 29 20 48.5t49 19.5t48.5 -19.5t19.5 -48.5q0 -28 -19.5 -48t-48.5 -20t-49 20t-20 48zM200 626q0 29 19.5 48.5t48.5 19.5t48.5 -19.5t19.5 -48.5q0 -28 -19.5 -48t-48.5 -20t-48.5 20t-19.5 48z" />
    <glyph glyph-name="Ygrave" unicode="&#x1ef2;" horiz-adv-x="576" 
d="M292 401l58 134l69 154h146l-208 -419v-270h-137v270l-210 419h147l71 -158l57 -130h7zM329 730l-203 99l64 99l186 -133z" />
    <glyph glyph-name="ygrave" unicode="&#x1ef3;" horiz-adv-x="492" 
d="M99 -199l76 210l-29 22l-136 463h131l46 -187l43 -165h3l55 167l60 185h132l-253 -695h-128zM218 541l-130 182l116 39l86 -188z" />
    <glyph glyph-name="endash" unicode="&#x2013;" horiz-adv-x="517" 
d="M20 222v109h477v-109h-477z" />
    <glyph glyph-name="emdash" unicode="&#x2014;" horiz-adv-x="1034" 
d="M20 222v109h994v-109h-994z" />
    <glyph glyph-name="afii00208" unicode="&#x2015;" horiz-adv-x="1000" 
d="M27 331h946v-115h-946v115z" />
    <glyph glyph-name="quoteleft" unicode="&#x2018;" horiz-adv-x="302" 
d="M240 692q-26 -19 -42 -43.5t-19 -49.5q23 -4 39.5 -23.5t16.5 -49.5q0 -33 -24 -55.5t-56 -22.5q-43 0 -66 29.5t-23 72.5q0 30 9.5 59.5t26.5 56.5t41 49t53 37z" />
    <glyph glyph-name="quoteright" unicode="&#x2019;" horiz-adv-x="302" 
d="M66 508q26 19 42 43.5t19 48.5q-23 5 -39.5 24.5t-16.5 49.5q0 33 24 55.5t57 22.5q42 0 65 -29t23 -73q0 -30 -9.5 -60t-26.5 -56.5t-41 -48.5t-53 -37z" />
    <glyph glyph-name="quotesinglbase" unicode="&#x201a;" horiz-adv-x="293" 
d="M66 -97q26 19 42 44t19 49q-25 5 -40.5 23.5t-15.5 50.5t24 54.5t56 22.5q42 0 65 -29t23 -72q0 -30 -9.5 -60t-26.5 -56.5t-40.5 -49t-52.5 -37.5z" />
    <glyph glyph-name="quotedblleft" unicode="&#x201c;" horiz-adv-x="485" 
d="M233 692q-26 -19 -42 -43.5t-19 -49.5q23 -4 39.5 -23.5t16.5 -49.5q0 -33 -24 -55.5t-56 -22.5q-42 0 -65.5 29.5t-23.5 72.5q0 30 9.5 59.5t26.5 56.5t41 49t53 37zM425 692q-26 -19 -41.5 -43.5t-19.5 -49.5q23 -4 39.5 -23.5t16.5 -49.5q0 -33 -24 -55.5t-56 -22.5
q-42 0 -65 29.5t-23 72.5q0 30 9.5 59.5t26.5 56.5t40.5 49t52.5 37z" />
    <glyph glyph-name="quotedblright" unicode="&#x201d;" horiz-adv-x="485" 
d="M253 508q26 19 42 43.5t19 48.5q-23 5 -39.5 24.5t-16.5 49.5q0 33 24 55.5t56 22.5q42 0 65 -29t23 -73q0 -61 -35 -116.5t-94 -85.5zM60 508q26 19 42.5 43.5t19.5 48.5q-23 5 -40 24.5t-17 49.5q0 16 6.5 30.5t18 25t26 16.5t30.5 6q42 0 65 -29t23 -73
q0 -30 -9.5 -60t-26.5 -56.5t-40.5 -48.5t-52.5 -37z" />
    <glyph glyph-name="quotedblbase" unicode="&#x201e;" horiz-adv-x="525" 
d="M66 -97q26 19 42 44t19 49q-25 5 -40.5 23.5t-15.5 50.5t24 54.5t56 22.5q42 0 65 -29t23 -72q0 -30 -9.5 -60t-26.5 -56.5t-40.5 -49t-52.5 -37.5zM292 -97q26 19 42 44t19 49q-24 5 -40 23.5t-16 50.5t24 54.5t56 22.5q42 0 65 -29t23 -72q0 -30 -9 -60t-26 -56.5
t-41 -49t-53 -37.5z" />
    <glyph glyph-name="dagger" unicode="&#x2020;" horiz-adv-x="496" 
d="M308 368v-542h-121v542h-167v100h167v228h121v-228h167v-100h-167z" />
    <glyph glyph-name="daggerdbl" unicode="&#x2021;" horiz-adv-x="496" 
d="M187 368h-167v100h167v228h121v-228h167v-100h-167v-159h167v-100h-167v-283h-121v283h-167v100h167v159z" />
    <glyph glyph-name="bullet" unicode="&#x2022;" horiz-adv-x="454" 
d="M88 286q0 31 11.5 58t32 47t47.5 32t58 12t58 -12t47 -32t32 -47t12 -58t-12 -58t-32 -47.5t-47 -32.5t-58 -12t-58 12t-47.5 32.5t-32 47.5t-11.5 58z" />
    <glyph glyph-name="trianglebullet" unicode="&#x2023;" horiz-adv-x="584" 
d="M544 287l-463 -281v551z" />
    <glyph glyph-name="ellipsis" unicode="&#x2026;" horiz-adv-x="902" 
d="M150 -7q-35 0 -57 24t-22 58q0 32 22.5 54.5t54.5 22.5q34 0 57 -22.5t23 -54.5q0 -33 -21 -57.5t-57 -24.5zM457 -7q-35 0 -57 24t-22 58q0 32 22.5 54.5t54.5 22.5q34 0 57 -22.5t23 -54.5q0 -33 -21 -57.5t-57 -24.5zM752 -7q-34 0 -56.5 24t-22.5 58q0 32 22.5 54.5
t55.5 22.5q34 0 57 -22.5t23 -54.5q0 -33 -21 -57.5t-58 -24.5z" />
    <glyph glyph-name="perthousand" unicode="&#x2030;" horiz-adv-x="1191" 
d="M800 111q0 -29 -13 -50t-33.5 -35.5t-46 -21.5t-51.5 -7t-52 7t-47 21.5t-34 35.5t-13 50v188q0 29 13 51t34 36.5t47 22t52 7.5q25 0 51 -7.5t46.5 -22t33.5 -36.5t13 -51v-188zM707 285q0 25 -16.5 36t-34.5 11t-34.5 -11t-16.5 -36v-160q0 -24 16.5 -34.5t34.5 -10.5
t34.5 10.5t16.5 34.5v160zM342 388q0 -29 -13 -50.5t-33.5 -36t-46.5 -21.5t-51 -7q-26 0 -52 7t-47 21.5t-34 36t-13 50.5v187q0 29 13 51t34 36.5t47 22t52 7.5q25 0 51 -7.5t46.5 -22t33.5 -36.5t13 -51v-187zM248 561q0 25 -16 36t-34 11t-34.5 -11t-16.5 -36v-160
q0 -24 16.5 -34.5t34.5 -10.5t34 10.5t16 34.5v160zM262 -17h-90l425 730h91zM1139 111q0 -29 -13 -50t-33.5 -35.5t-46.5 -21.5t-52 -7t-52 7t-46.5 21.5t-33.5 35.5t-13 50v188q0 29 13 51t34 36.5t46.5 22t51.5 7.5t52 -7.5t46.5 -22t33.5 -36.5t13 -51v-188zM1046 285
q0 25 -17 36t-35 11q-17 0 -33.5 -11t-16.5 -36v-160q0 -24 16.5 -34.5t33.5 -10.5q18 0 35 10.5t17 34.5v160z" />
    <glyph glyph-name="guilsinglleft" unicode="&#x2039;" horiz-adv-x="369" 
d="M186 22l-140 204l140 206h119l-136 -206l136 -204h-119z" />
    <glyph glyph-name="guilsinglright" unicode="&#x203a;" horiz-adv-x="369" 
d="M46 22l136 204l-136 206h119l140 -206l-140 -204h-119z" />
    <glyph glyph-name="fraction" unicode="&#x2044;" horiz-adv-x="170" 
d="M-83 -17h-90l425 730h91z" />
    <glyph glyph-name="fraction" unicode="&#x2215;" horiz-adv-x="170" 
d="M-83 -17h-90l425 730h91z" />
    <glyph glyph-name="zerosuperior" unicode="&#x2070;" horiz-adv-x="348" 
d="M319 478q0 -29 -13 -50.5t-33.5 -36t-46 -21.5t-51.5 -7t-52 7t-47 21.5t-34 36t-13 50.5v187q0 29 13 51t34 36.5t47 22t52 7.5q25 0 51 -7.5t46.5 -22t33.5 -36.5t13 -51v-187zM225 651q0 25 -16 36t-34 11t-34.5 -11t-16.5 -36v-160q0 -24 16.5 -34.5t34.5 -10.5
t34 10.5t16 34.5v160z" />
    <glyph glyph-name="foursuperior" unicode="&#x2074;" horiz-adv-x="348" 
d="M296 423v-57h-91v57h-186v68l144 287h99l-138 -276h81v107h91v-107h38v-79h-38z" />
    <glyph glyph-name="fivesuperior" unicode="&#x2075;" horiz-adv-x="348" 
d="M321 479q0 -29 -12 -50.5t-32.5 -36t-47.5 -22t-56 -7.5q-42 0 -77 12t-62 34l50 69q23 -17 44.5 -24.5t41.5 -7.5t38 9.5t18 33.5v45q0 17 -9 25t-23 8q-9 0 -19 -3t-20 -7t-18 -9t-13 -8l-80 30l-1 208h264v-79h-171v-64q17 8 34 13.5t31 5.5q60 0 90 -31.5t30 -81.5
v-62v0z" />
    <glyph glyph-name="sixsuperior" unicode="&#x2076;" horiz-adv-x="348" 
d="M320 481q0 -29 -12 -51t-32.5 -37t-46.5 -22.5t-53 -7.5t-52.5 7.5t-46 22.5t-33 37t-12.5 51v184q0 29 12.5 51t32.5 36.5t46.5 22t55.5 7.5q42 0 76 -12t62 -34l-50 -68q-23 18 -43.5 24.5t-41.5 6.5q-8 0 -17.5 -2t-18 -7.5t-14.5 -13.5t-6 -20v-38q23 13 42.5 18
t35.5 5q57 0 86.5 -32.5t29.5 -80.5v-47zM225 522q0 20 -10 28t-24 8t-29.5 -6t-35.5 -14v-47q0 -25 16 -35t34 -10q17 0 33 11t16 34v31z" />
    <glyph glyph-name="sevensuperior" unicode="&#x2077;" horiz-adv-x="348" 
d="M319 708q-39 -86 -78.5 -171t-78.5 -172h-101l150 334h-90v-59h-89v138h287v-70v0z" />
    <glyph glyph-name="eightsuperior" unicode="&#x2078;" horiz-adv-x="348" 
d="M179 782q25 0 50.5 -7.5t45.5 -23t32.5 -38.5t12.5 -54q0 -25 -13.5 -48.5t-36.5 -33.5q26 -9 40 -33t14 -53q0 -32 -12.5 -56t-33 -40t-46.5 -24t-53 -8q-26 0 -52 7.5t-46.5 23t-33.5 39.5t-13 56q0 29 15 52.5t40 34.5q-23 11 -36.5 33t-13.5 50q0 31 12 54t32 38.5
t45 23t51 7.5zM226 656q0 20 -15 30.5t-32 10.5q-19 0 -33.5 -10t-14.5 -30q0 -22 14.5 -32.5t33.5 -10.5t33 11.5t14 30.5zM130 490q0 -22 14.5 -33t34.5 -11t34.5 11t14.5 33q0 17 -14 29.5t-35 12.5q-20 0 -34.5 -11t-14.5 -31z" />
    <glyph glyph-name="ninesuperior" unicode="&#x2079;" horiz-adv-x="347" 
d="M318 479q0 -29 -12 -50.5t-32.5 -36t-47 -22t-55.5 -7.5q-42 0 -77 12t-61 34l50 69q23 -18 44 -25t41 -7q8 0 17.5 2.5t18 8t14 13.5t5.5 20v41q-42 -23 -76 -23q-54 0 -85 32.5t-31 81.5v41q0 30 13 52t33.5 37t46 22.5t51.5 7.5q27 0 52.5 -7.5t46 -22t32.5 -36.5
t12 -51v-186zM223 654q0 25 -15.5 34.5t-32.5 9.5q-18 0 -34.5 -10t-16.5 -34v-26q0 -20 10.5 -28.5t23.5 -8.5q16 0 32 6t33 15v42z" />
    <glyph glyph-name="plussuperior" unicode="&#x207a;" horiz-adv-x="347" 
d="M214 510v-109h-82v109h-122v73h122v107h82v-107h123v-73h-123z" />
    <glyph glyph-name="hyphensuperior" unicode="&#x207b;" horiz-adv-x="276" 
d="M26 485v81h223v-81h-223z" />
    <glyph glyph-name="equalsuperior" unicode="&#x207c;" horiz-adv-x="347" 
d="M10 574v70h327v-70h-327zM10 448v72h327v-72h-327z" />
    <glyph glyph-name="parenleftsuperior" unicode="&#x207d;" horiz-adv-x="229" 
d="M167 285q-27 27 -51 58t-42.5 64.5t-29 69t-10.5 72.5q0 38 10.5 74t28 69t41 63t50.5 56l57 -34q-45 -54 -68 -114t-23 -111q0 -57 24 -116.5t67 -111.5z" />
    <glyph glyph-name="parenrightsuperior" unicode="&#x207e;" horiz-adv-x="227" 
d="M211 549q0 -37 -10.5 -72.5t-29 -69.5t-42.5 -64.5t-51 -56.5l-54 38q43 52 67 111.5t24 116.5q0 52 -23 112t-69 113l58 34q26 -26 49.5 -56t41.5 -63t28.5 -69t10.5 -74z" />
    <glyph glyph-name="nsuperior" unicode="&#x207f;" horiz-adv-x="357" 
d="M230 276v201q0 23 -11 32.5t-26 8.5q-15 0 -32 -5.5t-40 -19.5v-217h-99v328h90l6 -30q31 20 58 27.5t43 7.5q59 0 85 -33t26 -87v-213h-100z" />
    <glyph glyph-name="zeroinferior" unicode="&#x2080;" horiz-adv-x="348" 
d="M319 21q0 -29 -13 -50t-33.5 -35.5t-46 -21.5t-51.5 -7t-52 7t-47 21.5t-34 35.5t-13 50v188q0 29 13 51t34 36.5t47 22t52 7.5q25 0 51 -7.5t46.5 -22t33.5 -36.5t13 -51v-188zM225 195q0 25 -16 36t-34 11t-34.5 -11t-16.5 -36v-160q0 -24 16.5 -34.5t34.5 -10.5
t34 10.5t16 34.5v160z" />
    <glyph glyph-name="oneinferior" unicode="&#x2081;" horiz-adv-x="334" 
d="M141 -90v298l-39 -31l-53 64l102 81h83v-412h-93z" />
    <glyph glyph-name="twoinferior" unicode="&#x2082;" horiz-adv-x="348" 
d="M319 209q0 -21 -9 -40.5t-23 -36t-31.5 -30.5t-33.5 -25q-11 -8 -26.5 -17.5t-29.5 -21t-25 -24t-13 -25.5h191v-79h-288v64q0 29 10.5 52t27 42t36.5 34t40 29q13 9 27 18t25.5 18.5t18.5 19.5t7 21q0 17 -17 26t-39 9q-21 0 -43 -7.5t-42 -22.5q-3 4 -10 13.5
t-14.5 20.5t-14 20.5t-8.5 13.5q27 21 63 34t75 13q27 0 53.5 -6t47 -20t33 -37t12.5 -56z" />
    <glyph glyph-name="threeinferior" unicode="&#x2083;" horiz-adv-x="347" 
d="M168 326q28 0 54 -6.5t46 -21t31.5 -37.5t11.5 -55q0 -29 -15.5 -52t-44.5 -31q31 -9 47 -34t16 -51q0 -35 -13.5 -60t-35 -41t-49 -23.5t-54.5 -7.5q-40 0 -74.5 10.5t-61.5 32.5l45 70q20 -15 43 -22.5t43 -7.5q27 0 45 12t18 33q0 20 -15 33.5t-35 13.5h-63v76h63
q17 0 32 11.5t15 34.5q0 22 -17.5 31t-38.5 9q-20 0 -43 -7t-43 -23l-43 70q27 22 61.5 32.5t74.5 10.5z" />
    <glyph glyph-name="fourinferior" unicode="&#x2084;" horiz-adv-x="348" 
d="M296 -33v-57h-91v57h-186v68l144 287h99l-138 -276h81v107h91v-107h38v-79h-38z" />
    <glyph glyph-name="fiveinferior" unicode="&#x2085;" horiz-adv-x="348" 
d="M321 23q0 -29 -12 -50.5t-32.5 -36t-47.5 -22t-56 -7.5q-42 0 -77 12t-62 34l50 69q23 -17 44.5 -24.5t41.5 -7.5t38 9.5t18 33.5v44q0 17 -9 25.5t-23 8.5q-9 0 -19 -3t-20 -7t-18 -9t-13 -8l-80 30l-1 208h264v-79h-171v-64q17 8 34 13.5t31 5.5q60 0 90 -31.5
t30 -81.5v-62v0z" />
    <glyph glyph-name="sixinferior" unicode="&#x2086;" horiz-adv-x="348" 
d="M320 25q0 -29 -12 -51t-32.5 -37t-46.5 -22.5t-53 -7.5t-52.5 7.5t-46 22.5t-33 37t-12.5 51v184q0 29 12.5 51t32.5 36.5t46.5 22t55.5 7.5q42 0 76.5 -12t62.5 -34l-51 -68q-23 18 -43.5 24.5t-41.5 6.5q-8 0 -17.5 -2t-18 -7.5t-14.5 -13.5t-6 -20v-38q23 13 42.5 18
t35.5 5q57 0 86.5 -32.5t29.5 -80.5v-47zM225 66q0 20 -10 28t-24 8t-29.5 -6t-35.5 -15v-46q0 -25 16 -35t34 -10q17 0 33 11t16 34v31z" />
    <glyph glyph-name="seveninferior" unicode="&#x2087;" horiz-adv-x="348" 
d="M162 -90h-101l150 333h-90v-59h-89v138h287v-70z" />
    <glyph glyph-name="eightinferior" unicode="&#x2088;" horiz-adv-x="348" 
d="M179 326q25 0 50.5 -7.5t45.5 -23t32.5 -38.5t12.5 -54q0 -25 -13.5 -48.5t-36.5 -33.5q26 -9 40 -33t14 -53q0 -32 -12.5 -56t-33 -40t-46.5 -24t-53 -8q-26 0 -52 7.5t-46.5 23t-33.5 39t-13 56.5q0 29 15 52.5t40 34.5q-23 11 -36.5 33t-13.5 50q0 31 12 54t32 38.5
t45 23t51 7.5zM226 200q0 20 -15 30.5t-32 10.5q-19 0 -33.5 -10t-14.5 -30q0 -22 14.5 -32.5t33.5 -10.5t33 11.5t14 30.5zM130 34q0 -22 14.5 -33t34.5 -11t34.5 11t14.5 33q0 17 -14 29.5t-35 12.5q-20 0 -34.5 -11t-14.5 -31z" />
    <glyph glyph-name="nineinferior" unicode="&#x2089;" horiz-adv-x="347" 
d="M318 23q0 -29 -12 -50.5t-32.5 -36t-47 -22t-55.5 -7.5q-42 0 -77 12t-61 34l50 69q23 -18 44 -25t41 -7q8 0 17.5 2.5t18 8t14 13.5t5.5 20v41q-42 -23 -76 -23q-54 0 -85 32.5t-31 81.5v41q0 29 13 51.5t33.5 37.5t46 22.5t51.5 7.5q27 0 52.5 -7.5t46 -22t32.5 -36.5
t12 -51v-186zM223 198q0 25 -15.5 34.5t-32.5 9.5q-18 0 -34.5 -10t-16.5 -34v-27q0 -19 10.5 -27.5t23.5 -8.5q16 0 32 6t33 15v42z" />
    <glyph glyph-name="plusinferior" unicode="&#x208a;" horiz-adv-x="347" 
d="M214 53v-109h-82v109h-122v72h122v108h82v-108h123v-72h-123z" />
    <glyph glyph-name="hypheninferior" unicode="&#x208b;" horiz-adv-x="276" 
d="M26 27v82h223v-82h-223z" />
    <glyph glyph-name="equalinferior" unicode="&#x208c;" horiz-adv-x="347" 
d="M10 116v71h327v-71h-327zM10 -9v71h327v-71h-327z" />
    <glyph glyph-name="parenleftinferior" unicode="&#x208d;" horiz-adv-x="229" 
d="M167 -144q-27 27 -51 58t-42.5 64.5t-29 69t-10.5 72.5q0 38 10.5 74t28 69t41 63t50.5 56l57 -34q-45 -54 -68 -114t-23 -111q0 -57 24 -116.5t67 -111.5z" />
    <glyph glyph-name="parenrightinferior" unicode="&#x208e;" horiz-adv-x="227" 
d="M211 120q0 -37 -10.5 -72.5t-29 -69.5t-42.5 -64.5t-51 -56.5l-54 38q43 52 67 111.5t24 116.5q0 52 -23 112t-69 113l58 34q26 -26 49.5 -56t41.5 -63t28.5 -69t10.5 -74z" />
    <glyph glyph-name="dong" unicode="&#x20ab;" horiz-adv-x="534" 
d="M232 638h85v53h120v-53h36v-83h-36v-419h-108l-8 33q-32 -20 -60.5 -28t-46.5 -8q-68 0 -104 35t-36 110v90q0 65 37.5 104.5t107.5 39.5q18 0 44 -3t54 -11v57h-85v83zM60 95h404v-94h-404v94zM195 287q0 -27 11 -37.5t27 -10.5t40.5 8t43.5 21v117q-21 9 -41.5 13
t-35.5 4q-19 0 -32 -10.5t-13 -37.5v-67z" />
    <glyph glyph-name="Euro" unicode="&#x20ac;" horiz-adv-x="534" 
d="M414 326v-80h-203v-17q0 -28 11.5 -49t30 -34.5t41 -20.5t44.5 -7q32 0 64 8t65 30q16 -27 31 -54t32 -54q-38 -26 -88.5 -40.5t-104.5 -14.5q-51 0 -98.5 14t-84 42t-58.5 69.5t-22 97.5v30h-45v80h385zM29 365v81h45v24q0 55 22 97t58.5 70.5t83.5 43t97 14.5
q51 0 100.5 -12t87.5 -38l-62 -110q-29 20 -61 27.5t-62 7.5q-22 0 -44.5 -7t-41 -20.5t-30 -34t-11.5 -48.5v-14h203v-81h-385z" />
    <glyph glyph-name="centigrade" unicode="&#x2103;" horiz-adv-x="883" 
d="M786 522q-32 27 -69 37.5t-72 10.5q-23 0 -46 -6.5t-41 -21.5t-29.5 -39t-11.5 -58v-201q0 -34 11.5 -57.5t30 -38.5t41 -22t45.5 -7q35 0 70.5 10t71.5 38l65 -106q-38 -32 -93 -50t-116 -18q-49 0 -96 14t-84 41.5t-60 69t-23 97.5v258q0 55 22.5 96.5t59 69.5t83.5 42
t96 14q60 0 115.5 -16t95.5 -51zM333 554q0 -30 -12 -57t-33 -47t-49 -31.5t-60 -11.5t-60 11.5t-49 31.5t-33 47t-12 57t12 57t33 47t49 31.5t60 11.5t60 -11.5t49 -31.5t33 -47t12 -57zM248 554q0 28 -20 47.5t-49 19.5t-49 -19.5t-20 -47.5q0 -27 20 -47t49 -20t49 20
t20 47z" />
    <glyph glyph-name="afii61248" unicode="&#x2105;" horiz-adv-x="763" 
d="M736 126q0 -33 -13.5 -57.5t-35 -41t-49.5 -25t-57 -8.5q-30 0 -58 8.5t-49.5 25t-34.5 41t-13 57.5v94q0 33 13 58t35 42t50 25.5t57 8.5q32 0 60 -9t49 -26t33.5 -42.5t12.5 -58.5v-92zM317 394q-35 -35 -69 -45t-67 -10q-30 0 -56.5 8t-46.5 24t-31.5 40t-11.5 56v102
q0 32 12.5 56.5t33 41t46.5 24.5t53 8q33 0 67.5 -9t67.5 -43l-57 -72q-25 23 -41.5 27.5t-28.5 4.5q-20 0 -37.5 -12.5t-17.5 -41.5v-69q0 -29 16.5 -41t36.5 -12q13 0 33 6t37 25zM637 205q0 30 -17.5 43.5t-37.5 13.5q-22 0 -40 -13.5t-18 -43.5v-63q0 -30 17.5 -43
t40.5 -13q20 0 37.5 13t17.5 43v63zM211 -17h-90l425 730h91z" />
    <glyph glyph-name="fahrenheit" unicode="&#x2109;" horiz-adv-x="855" 
d="M506 403h289v-122h-289v-281h-137v689h475v-123h-338v-163zM333 554q0 -30 -12 -57t-33 -47t-49 -31.5t-60 -11.5t-60 11.5t-49 31.5t-33 47t-12 57t12 57t33 47t49 31.5t60 11.5t60 -11.5t49 -31.5t33 -47t12 -57zM248 554q0 28 -20 47.5t-49 19.5t-49 -19.5t-20 -47.5
q0 -27 20 -47t49 -20t49 20t20 47z" />
    <glyph glyph-name="afii61289" unicode="&#x2113;" horiz-adv-x="504" 
d="M465 153q-29 -73 -76.5 -118t-113.5 -45q-37 0 -67.5 13t-52.5 35.5t-34.5 53.5t-12.5 68v25q-14 -9 -25.5 -16t-24.5 -15l-36 66q20 11 43 26t42 31v210q0 60 12.5 102.5t34 69.5t51 39t63.5 12q23 0 46 -7.5t42 -24t30.5 -42t11.5 -60.5q0 -82 -48 -163t-146 -169v-43
q0 -35 7.5 -58.5t19 -37.5t25.5 -20.5t28 -6.5q29 0 56 28t47 79zM204 356q52 60 79 112.5t27 110.5q0 18 -10.5 35.5t-36.5 17.5q-21 0 -40 -30t-19 -98v-148z" />
    <glyph glyph-name="afii61352" unicode="&#x2116;" horiz-adv-x="959" 
d="M456 0l-150 253l-34 58l-75 133h-4v-444h-135v688h124q35 -59 69.5 -116.5t69.5 -117.5l120 -206h3v440h134v-688h-122zM935 496q0 -31 -11.5 -55.5t-32.5 -41.5t-49 -26t-61 -9t-60.5 9t-48 26t-32 41.5t-11.5 55.5v71q0 31 12.5 55.5t33.5 41.5t48.5 26.5t58.5 9.5
q67 0 110 -36.5t43 -97.5v-70zM645 236v79h276v-79h-276zM837 559q0 27 -17.5 40.5t-37.5 13.5t-37.5 -13.5t-17.5 -40.5v-54q0 -28 16.5 -41t38.5 -13q20 0 37.5 13t17.5 41v54z" />
    <glyph glyph-name="published" unicode="&#x2117;" horiz-adv-x="815" 
d="M605 408q0 -29 -11.5 -54.5t-32 -44.5t-48.5 -30t-61 -11h-82v-153h-95v439h174q33 0 61.5 -9.5t49.5 -28t33 -45.5t12 -63zM510 412q0 28 -17.5 42t-46.5 14h-76v-113h80q26 0 43 16.5t17 40.5zM409 -14q-75 0 -140 26t-112 73.5t-74 113t-27 143.5q0 77 27 142.5
t74.5 113t112 74.5t139.5 27t139.5 -26.5t112 -74t74.5 -113t27 -143.5q0 -77 -27 -142.5t-74.5 -113t-112 -74t-139.5 -26.5zM409 625q-58 0 -108 -21.5t-86.5 -59.5t-57.5 -90t-21 -112t21 -112t57.5 -90t86.5 -59.5t108 -21.5t108 21.5t86.5 59.5t57 90t20.5 112
q0 62 -20.5 114t-57 89.5t-86.5 58.5t-108 21z" />
    <glyph glyph-name="trademark" unicode="&#x2122;" horiz-adv-x="910" 
d="M243 272h-87v335h-120v83h327v-83h-120v-335zM745 497l-41 -78l-51 -89h-64l-49 88l-44 79h-2v-225h-87v419h81l78 -147l54 -105h4l54 107l76 145h81v-419h-88v225h-2z" />
    <glyph glyph-name="Ohm" unicode="&#x2126;" horiz-adv-x="663" 
d="M376 0v143q34 10 58 39t24 81v180q0 34 -11 58.5t-28.5 40t-40.5 22.5t-47 7t-47 -7t-40.5 -22.5t-28.5 -40t-11 -58.5v-180q0 -53 25.5 -81.5t59.5 -39.5v-142h-236v120h72q-32 22 -45.5 61.5t-13.5 76.5v207q0 57 22 100t58.5 72.5t84.5 44.5t100 15q54 0 102 -15.5
t84 -44.5t57.5 -72.5t21.5 -98.5v-208q0 -37 -14 -76t-45 -62h73v-120h-234z" />
    <glyph glyph-name="angstrom" unicode="&#x212b;" horiz-adv-x="638" 
d="M201 799q0 23 9.5 43.5t25.5 35.5t37.5 24t45.5 9t45.5 -9t37 -24t25 -35.5t9.5 -43.5q0 -42 -27.5 -72t-68.5 -38h49l240 -689h-149l-42 142h-240l-45 -142h-146l242 689h47q-41 8 -68 38t-27 72zM235 257h166l-27 88l-54 182h-4l-53 -179zM364 799q0 18 -13 30.5
t-32 12.5q-20 0 -33 -12.5t-13 -30.5t13 -30.5t33 -12.5q19 0 32 12.5t13 30.5z" />
    <glyph glyph-name="estimated" unicode="&#x212e;" horiz-adv-x="817" 
d="M199 303l1 -163q31 -48 86 -76t115 -28q63 0 117.5 28.5t92.5 76.5h86q-57 -70 -134.5 -111t-162.5 -41q-72 0 -136 26.5t-112 72t-75.5 106.5t-27.5 130q0 70 27.5 131t75.5 106t112 71t136 26q74 0 137 -26.5t109.5 -74t74 -112.5t30.5 -142h-552zM599 509
q-14 23 -35.5 42t-48.5 32t-56.5 20t-57.5 7q-52 0 -105.5 -28.5t-95.5 -76.5l-1 -157h400v161z" />
    <glyph glyph-name="onethird" unicode="&#x2153;" horiz-adv-x="853" 
d="M224 -17h-90l425 730h91zM156 276v298l-39 -31l-53 64l102 81h83v-412h-93zM643 416q28 0 54 -6.5t46 -21t31.5 -37.5t11.5 -55q0 -29 -15.5 -52t-44.5 -31q31 -9 47 -34t16 -51q0 -35 -13.5 -60t-35 -41t-49 -23.5t-54.5 -7.5q-40 0 -74.5 10.5t-61.5 32.5l45 70
q20 -15 43 -22.5t43 -7.5q27 0 45 12t18 33q0 20 -15 33.5t-35 13.5h-63v76h63q17 0 32 11.5t15 34.5q0 22 -17.5 31t-38.5 9q-20 0 -43 -7t-43 -23l-43 70q27 22 61.5 32.5t74.5 10.5z" />
    <glyph glyph-name="twothirds" unicode="&#x2154;" horiz-adv-x="853" 
d="M269 -17h-90l425 730h91zM312 574q0 -22 -9 -41t-23 -35.5t-31.5 -30t-33.5 -25.5q-11 -7 -26 -17t-29.5 -21t-25 -23.5t-12.5 -25.5h190v-79h-288v63q0 29 10.5 52t27 42t36.5 34t40 29q13 9 27 18t25.5 18.5t18.5 19.5t7 21q0 17 -17 26.5t-39 9.5q-21 0 -43 -7.5
t-42 -23.5q-3 4 -9.5 13.5t-14 21t-14 21t-9.5 13.5q28 21 64 33t74 12q28 0 54 -6t46.5 -19.5t33 -36.5t12.5 -56zM683 416q28 0 54 -6.5t46 -21t31.5 -37.5t11.5 -55q0 -29 -15.5 -52t-44.5 -31q31 -9 47 -34t16 -51q0 -35 -13.5 -60t-35 -41t-49 -23.5t-54.5 -7.5
q-40 0 -74.5 10.5t-61.5 32.5l45 70q20 -15 43 -22.5t43 -7.5q27 0 45 12t18 33q0 20 -15 33.5t-35 13.5h-63v76h63q17 0 32 11.5t15 34.5q0 22 -17.5 31t-38.5 9q-20 0 -43 -7t-43 -23l-43 70q27 22 61.5 32.5t74.5 10.5z" />
    <glyph glyph-name="onefifth" unicode="&#x2155;" horiz-adv-x="853" 
d="M220 -17h-90l425 730h91zM155 276v298l-39 -31l-53 64l102 81h83v-412h-93zM789 113q0 -29 -12 -50.5t-32.5 -36t-47.5 -22t-56 -7.5q-42 0 -77 12t-62 34l50 69q23 -17 44.5 -24.5t41.5 -7.5t38 9.5t18 33.5v44q0 17 -9 25.5t-23 8.5q-9 0 -19 -3t-20 -7t-18 -9t-13 -8
l-80 30l-1 208h264v-79h-171v-64q17 8 34 13.5t31 5.5q60 0 90 -31.5t30 -81.5v-62z" />
    <glyph glyph-name="twofifths" unicode="&#x2156;" horiz-adv-x="853" 
d="M263 -17h-90l425 730h91zM312 574q0 -22 -9 -41t-23 -35.5t-31.5 -30t-33.5 -25.5q-11 -7 -26 -17t-29.5 -21t-25 -23.5t-12.5 -25.5h190v-79h-288v63q0 29 10.5 52t27 42t36.5 34t40 29q13 9 27 18t25.5 18.5t18.5 19.5t7 21q0 17 -17 26.5t-39 9.5q-21 0 -43 -7.5
t-42 -23.5q-3 4 -9.5 13.5t-14 21t-14 21t-9.5 13.5q28 21 64 33t74 12q28 0 54 -6t46.5 -19.5t33 -36.5t12.5 -56zM829 113q0 -29 -12 -50.5t-32.5 -36t-47.5 -22t-56 -7.5q-42 0 -77 12t-62 34l50 69q23 -17 44.5 -24.5t41.5 -7.5t38 9.5t18 33.5v44q0 17 -9 25.5t-23 8.5
q-9 0 -19 -3t-20 -7t-18 -9t-13 -8l-80 30l-1 208h264v-79h-171v-64q17 8 34 13.5t31 5.5q60 0 90 -31.5t30 -81.5v-62z" />
    <glyph glyph-name="threefifths" unicode="&#x2157;" horiz-adv-x="853" 
d="M253 -17h-90l425 730h91zM169 692q28 0 54 -6.5t46.5 -21t32.5 -37.5t12 -55q0 -29 -15.5 -52t-44.5 -31q31 -9 47 -34t16 -51q0 -35 -13.5 -60t-35 -41t-49 -23.5t-54.5 -7.5q-40 0 -74.5 10.5t-61.5 32.5l45 70q20 -15 43 -22.5t43 -7.5q27 0 45 12t18 33
q0 20 -15 33.5t-35 13.5h-63v76h63q17 0 32.5 11.5t15.5 34.5q0 22 -19.5 31t-39.5 9t-43.5 -7t-43.5 -23l-43 70q55 43 137 43zM824 113q0 -29 -12 -50.5t-32.5 -36t-47.5 -22t-56 -7.5q-42 0 -77 12t-62 34l50 69q23 -17 44.5 -24.5t41.5 -7.5t38 9.5t18 33.5v44
q0 17 -9 25.5t-23 8.5q-9 0 -19 -3t-20 -7t-18 -9t-13 -8l-80 30l-1 208h264v-79h-171v-64q17 8 34 13.5t31 5.5q60 0 90 -31.5t30 -81.5v-62z" />
    <glyph glyph-name="fourfifths" unicode="&#x2158;" horiz-adv-x="853" 
d="M266 -17h-90l425 730h91zM297 333v-57h-91v57h-186v68l144 287h99l-138 -276h81v107h91v-107h38v-79h-38zM832 113q0 -29 -12 -50.5t-32.5 -36t-47.5 -22t-56 -7.5q-42 0 -77 12t-62 34l50 69q23 -17 44.5 -24.5t41.5 -7.5t38 9.5t18 33.5v44q0 17 -9 25.5t-23 8.5
q-9 0 -19 -3t-20 -7t-18 -9t-13 -8l-80 30l-1 208h264v-79h-171v-64q17 8 34 13.5t31 5.5q60 0 90 -31.5t30 -81.5v-62z" />
    <glyph glyph-name="onesixth" unicode="&#x2159;" horiz-adv-x="853" 
d="M232 -17h-90l425 730h91zM148 276v298l-39 -31l-53 64l102 81h83v-412h-93zM796 115q0 -29 -12 -51t-32.5 -37t-46.5 -22.5t-53 -7.5t-52.5 7.5t-46 22.5t-33 37t-12.5 51v184q0 29 12.5 51t32.5 36.5t46.5 22t55.5 7.5q42 0 76.5 -12t62.5 -34l-51 -68
q-23 18 -43.5 24.5t-41.5 6.5q-8 0 -17.5 -2t-18 -7.5t-14.5 -13.5t-6 -20v-38q23 13 42.5 18t35.5 5q57 0 86.5 -32.5t29.5 -80.5v-47zM701 156q0 20 -10 28t-24 8t-29.5 -6t-35.5 -15v-46q0 -25 16 -35t34 -10q17 0 33 11t16 34v31z" />
    <glyph glyph-name="fivesixths" unicode="&#x215a;" horiz-adv-x="853" 
d="M256 -17h-90l425 730h91zM317 389q0 -29 -12 -50.5t-32.5 -36t-47.5 -22t-56 -7.5q-42 0 -77 12t-62 34l50 69q23 -17 44.5 -24.5t41.5 -7.5t38 9.5t18 33.5v45q0 17 -9 25t-23 8q-9 0 -19 -3t-20 -7t-18 -9t-13 -8l-80 30l-1 208h264v-79h-171v-64q17 8 34 13.5t31 5.5
q60 0 90 -31.5t30 -81.5v-62zM823 115q0 -29 -12 -51t-32.5 -37t-46.5 -22.5t-53 -7.5t-52.5 7.5t-46 22.5t-33 37t-12.5 51v184q0 29 12.5 51t32.5 36.5t46.5 22t55.5 7.5q42 0 76.5 -12t62.5 -34l-51 -68q-23 18 -43.5 24.5t-41.5 6.5q-8 0 -17.5 -2t-18 -7.5t-14.5 -13.5
t-6 -20v-38q23 13 42.5 18t35.5 5q57 0 86.5 -32.5t29.5 -80.5v-47zM728 156q0 20 -10 28t-24 8t-29.5 -6t-35.5 -15v-46q0 -25 16 -35t34 -10q17 0 33 11t16 34v31z" />
    <glyph glyph-name="oneeighth" unicode="&#x215b;" horiz-adv-x="853" 
d="M230 -17h-90l425 730h91zM153 276v298l-39 -31l-53 64l102 81h83v-412h-93zM646 416q25 0 50.5 -7.5t45.5 -23t32.5 -38.5t12.5 -54q0 -25 -13.5 -48.5t-36.5 -33.5q26 -9 40 -33t14 -53q0 -32 -12.5 -56t-33 -40t-46.5 -24t-53 -8q-26 0 -52 7.5t-46.5 23t-33.5 39
t-13 56.5q0 29 15 52.5t40 34.5q-23 11 -36.5 33t-13.5 50q0 31 12 54t32 38.5t45 23t51 7.5zM693 290q0 20 -15 30.5t-32 10.5q-19 0 -33.5 -10t-14.5 -30q0 -22 14.5 -32.5t33.5 -10.5t33 11.5t14 30.5zM597 124q0 -22 14.5 -33t34.5 -11t34.5 11t14.5 33q0 17 -14 29.5
t-35 12.5q-20 0 -34.5 -11t-14.5 -31z" />
    <glyph glyph-name="threeeighths" unicode="&#x215c;" horiz-adv-x="853" 
d="M260 -17h-90l425 730h91zM169 692q28 0 54 -6.5t46.5 -21t32.5 -37.5t12 -55q0 -29 -15.5 -52t-44.5 -31q31 -9 47 -34t16 -51q0 -35 -13.5 -60t-35 -41t-49 -23.5t-54.5 -7.5q-40 0 -74.5 10.5t-61.5 32.5l45 70q20 -15 43 -22.5t43 -7.5q27 0 45 12t18 33
q0 20 -15 33.5t-35 13.5h-63v76h63q17 0 32.5 11.5t15.5 34.5q0 22 -19.5 31t-39.5 9t-43.5 -7t-43.5 -23l-43 70q55 43 137 43zM679 416q25 0 50.5 -7.5t45.5 -23t32.5 -38.5t12.5 -54q0 -25 -13.5 -48.5t-36.5 -33.5q26 -9 40 -33t14 -53q0 -32 -12.5 -56t-33 -40
t-46.5 -24t-53 -8q-26 0 -52 7.5t-46.5 23t-33.5 39t-13 56.5q0 29 15 52.5t40 34.5q-23 11 -36.5 33t-13.5 50q0 31 12 54t32 38.5t45 23t51 7.5zM726 290q0 20 -15 30.5t-32 10.5q-19 0 -33.5 -10t-14.5 -30q0 -22 14.5 -32.5t33.5 -10.5t33 11.5t14 30.5zM630 124
q0 -22 14.5 -33t34.5 -11t34.5 11t14.5 33q0 17 -14 29.5t-35 12.5q-20 0 -34.5 -11t-14.5 -31z" />
    <glyph glyph-name="fiveeighths" unicode="&#x215d;" horiz-adv-x="853" 
d="M259 -17h-90l425 730h91zM318 389q0 -29 -12 -50.5t-32.5 -36t-47.5 -22t-56 -7.5q-42 0 -77 12t-62 34l50 69q23 -17 44.5 -24.5t41.5 -7.5t38 9.5t18 33.5v45q0 17 -9 25t-23 8q-9 0 -19 -3t-20 -7t-18 -9t-13 -8l-80 30l-1 208h264v-79h-171v-64q17 8 34 13.5t31 5.5
q60 0 90 -31.5t30 -81.5v-62zM676 416q25 0 50.5 -7.5t45.5 -23t32.5 -38.5t12.5 -54q0 -25 -13.5 -48.5t-36.5 -33.5q26 -9 40 -33t14 -53q0 -32 -12.5 -56t-33 -40t-46.5 -24t-53 -8q-26 0 -52 7.5t-46.5 23t-33.5 39t-13 56.5q0 29 15 52.5t40 34.5q-23 11 -36.5 33
t-13.5 50q0 31 12 54t32 38.5t45 23t51 7.5zM723 290q0 20 -15 30.5t-32 10.5q-19 0 -33.5 -10t-14.5 -30q0 -22 14.5 -32.5t33.5 -10.5t33 11.5t14 30.5zM627 124q0 -22 14.5 -33t34.5 -11t34.5 11t14.5 33q0 17 -14 29.5t-35 12.5q-20 0 -34.5 -11t-14.5 -31z" />
    <glyph glyph-name="seveneighths" unicode="&#x215e;" horiz-adv-x="853" 
d="M639 416q25 0 50.5 -7.5t45.5 -23t32.5 -38.5t12.5 -54q0 -25 -13.5 -48.5t-36.5 -33.5q26 -9 40 -33t14 -53q0 -32 -12.5 -56t-33 -40t-46.5 -24t-53 -8q-26 0 -52 7.5t-46.5 23t-33.5 39t-13 56.5q0 29 15 52.5t40 34.5q-23 11 -36.5 33t-13.5 50q0 31 12 54t32 38.5
t45 23t51 7.5zM226 -17h-90l425 730h91zM355 618q-39 -86 -78.5 -171t-78.5 -172h-101l150 334h-90v-59h-89v138h287v-70zM590 124q0 -22 14.5 -33t34.5 -11t34.5 11t14.5 33q0 17 -14 29.5t-35 12.5q-20 0 -34.5 -11t-14.5 -31zM686 290q0 20 -15 30.5t-32 10.5
q-19 0 -33.5 -10t-14.5 -30q0 -22 14.5 -32.5t33.5 -10.5t33 11.5t14 30.5z" />
    <glyph glyph-name="uni215F" unicode="&#x215f;" horiz-adv-x="485" 
d="M232 -17h-90l425 730h91zM156 276v298l-39 -31l-53 64l102 81h83v-412h-93z" />
    <glyph glyph-name="arrowleft" unicode="&#x2190;" horiz-adv-x="829" 
d="M769 372v-99h-532l120 -116l-71 -71l-236 237l236 238l71 -71l-120 -118h532z" />
    <glyph glyph-name="arrowup" unicode="&#x2191;" horiz-adv-x="518" 
d="M310 0h-99v516l-116 -119l-71 71l237 236l238 -236l-71 -71l-118 119v-516z" />
    <glyph glyph-name="arrowright" unicode="&#x2192;" horiz-adv-x="829" 
d="M584 372l-120 118l70 71l236 -238l-236 -237l-70 71l120 116h-533v99h533z" />
    <glyph glyph-name="arrowdown" unicode="&#x2193;" horiz-adv-x="518" 
d="M310 187l118 120l71 -71l-238 -236l-237 236l71 71l117 -120v517h98v-517z" />
    <glyph glyph-name="arrowupleft" unicode="&#x2196;" horiz-adv-x="840" 
d="M775 65l-69 -71l-486 484v-168h-99v334h336v-98h-168z" />
    <glyph glyph-name="arrowdownright" unicode="&#x2198;" horiz-adv-x="840" 
d="M121 575l69 70l486 -483v167h99v-333h-336v98h168z" />
    <glyph glyph-name="arrowhookleft" unicode="&#x21a9;" horiz-adv-x="867" 
d="M210 371h443q42 0 58.5 24.5t16.5 59.5v76q0 33 -18 51.5t-57 18.5h-103v96h107q46 0 78.5 -13t52.5 -35.5t29 -54t9 -67.5v-72q0 -83 -44.5 -132.5t-136.5 -49.5h-435l120 -117l-69 -69l-235 236l235 236l69 -69z" />
    <glyph glyph-name="arrowhookright" unicode="&#x21aa;" horiz-adv-x="863" 
d="M522 490l70 69l234 -236l-234 -236l-70 69l121 117h-434q-93 0 -137.5 49.5t-44.5 132.5v72q0 36 9 67.5t29 54t52 35.5t79 13h107v-96h-102q-41 0 -58.5 -18.5t-17.5 -51.5v-76q0 -35 17 -59.5t59 -24.5h442z" />
    <glyph glyph-name="carriagereturnright" unicode="&#x21b3;" horiz-adv-x="854" 
d="M187 371h454l-120 119l70 69l234 -236l-234 -236l-70 69l120 118h-553v419h99v-322z" />
    <glyph glyph-name="carriagereturn" unicode="&#x21b5;" horiz-adv-x="854" 
d="M717 693h98v-419h-552l119 -118l-69 -69l-235 236l235 236l69 -69l-119 -119h454v322z" />
    <glyph glyph-name="pageup" unicode="&#x21de;" horiz-adv-x="510" 
d="M99 366h103v151l-110 -103l-71 72l229 218l234 -218l-71 -72l-114 103v-151h101v-92h-101v-54h101v-90h-101v-130h-97v130h-103v90h103v54h-103v92z" />
    <glyph glyph-name="pagedown" unicode="&#x21df;" horiz-adv-x="510" 
d="M99 429h102v55h-102v89h102v131h98v-131h101v-89h-101v-55h101v-91h-101v-153l114 104l71 -71l-234 -218l-229 218l71 71l109 -104v153h-102v91z" />
    <glyph glyph-name="arrowdashleft" unicode="&#x21e0;" horiz-adv-x="836" 
d="M391 370h99v-97h-99v97zM529 370h99v-97h-99v97zM669 370h99v-97h-99v97zM353 370v-97h-117l121 -118l-71 -70l-235 236l235 238l71 -70l-121 -119h117z" />
    <glyph glyph-name="arrowdashup" unicode="&#x21e1;" horiz-adv-x="522" 
d="M309 395h-98v116l-117 -120l-71 70l237 236l238 -236l-70 -70l-119 120v-116zM309 357v-99h-98v99h98zM309 219v-99h-98v99h98zM309 79v-99h-98v99h98z" />
    <glyph glyph-name="arrowdashright" unicode="&#x21e2;" horiz-adv-x="836" 
d="M584 371l-121 118l70 71l236 -238l-236 -237l-70 71l121 117h-117v98h117zM429 273h-99v98h99v-98zM291 273h-99v98h99v-98zM152 273h-100v98h100v-98z" />
    <glyph glyph-name="arrowdashdown" unicode="&#x21e3;" horiz-adv-x="522" 
d="M308 166l119 120q17 -17 34.5 -35t35.5 -35q-60 -59 -119 -117.5t-119 -116.5l-236 234l70 70l118 -120v116h97v-116zM211 320v99h97v-99h-97zM211 598v99h97v-99h-97zM211 459v98h97v-98h-97z" />
    <glyph glyph-name="arrowtableft" unicode="&#x21e4;" horiz-adv-x="871" 
d="M66 104v435h106v-435h-106zM829 372v-99h-431l120 -116l-71 -71l-235 237l235 238l71 -71l-120 -118h431z" />
    <glyph glyph-name="arrowtabright" unicode="&#x21e5;" horiz-adv-x="871" 
d="M724 104v435h106v-435h-106zM498 372l-120 118l71 71l235 -238l-235 -237l-71 71l120 116h-431v99h431z" />
    <glyph glyph-name="shift" unicode="&#x21e7;" horiz-adv-x="840" 
d="M423 593l-207 -215h94v-301h227v301h93zM37 306l386 397l386 -397h-195v-306h-382v306h-195z" />
    <glyph glyph-name="capslock" unicode="&#x21ea;" horiz-adv-x="840" 
d="M303 -45v-67h228v67h-228zM225 26h382v-207h-382v207zM417 593l-208 -215h94v-200h228v200h93zM30 306l387 397l386 -397h-195v-206h-383v206h-195z" />
    <glyph glyph-name="partialdiff" unicode="&#x2202;" horiz-adv-x="530" 
d="M250 94q31 0 53 18.5t36 48t22 66t10 71.5q-32 33 -64.5 46t-57.5 13q-22 0 -39.5 -11.5t-30 -30.5t-19.5 -42t-7 -47q0 -35 8 -60t21.5 -41t31 -23.5t36.5 -7.5zM247 -10q-47 0 -87 15t-69.5 45t-46.5 73.5t-17 100.5q0 54 17 97t46 73t68.5 46.5t84.5 16.5
q31 0 62 -8.5t63 -28.5q-3 42 -16 79t-34.5 64.5t-51 43t-64.5 15.5q-14 0 -35 -1.5t-52 -11.5l-1 99q26 6 50.5 9.5t45.5 3.5q79 0 133.5 -30.5t89 -81.5t50 -118t15.5 -140q0 -90 -19 -157.5t-52.5 -112.5t-79.5 -68t-100 -23z" />
    <glyph glyph-name="gradient" unicode="&#x2207;" horiz-adv-x="630" 
d="M319 198l53 173l65 196h-243l64 -195l55 -174h6zM380 1h-129l-245 689h618z" />
    <glyph glyph-name="product" unicode="&#x220f;" horiz-adv-x="643" 
d="M449 -121v687h-254v-687h-137v810h530v-810h-139z" />
    <glyph glyph-name="summation" unicode="&#x2211;" horiz-adv-x="517" 
d="M28 -121v117l149 299l-147 280v114h449v-122h-284l141 -272l-148 -295h300v-121h-460z" />
    <glyph glyph-name="minus" unicode="&#x2212;" horiz-adv-x="534" 
d="M511 346v-99h-489v99h489z" />
    <glyph glyph-name="radical" unicode="&#x221a;" horiz-adv-x="596" 
d="M368 -78h-100l-150 389l-66 -21l-32 86l173 55l115 -304l150 666h119z" />
    <glyph glyph-name="infinity" unicode="&#x221e;" horiz-adv-x="750" 
d="M214 440q24 0 47.5 -8t44.5 -21t39.5 -29.5t32.5 -32.5q33 42 72 66.5t96 24.5q35 0 65 -12t51.5 -34t34 -52t12.5 -66q0 -33 -13 -63t-36 -52.5t-54 -36t-67 -13.5q-26 0 -48.5 8t-42.5 20.5t-38 29t-33 34.5q-17 -19 -34.5 -35.5t-38 -29t-44.5 -20t-53 -7.5
q-35 0 -64.5 12t-51.5 34t-34.5 52.5t-12.5 66.5q0 33 13.5 62.5t36.5 52t54 36t66 13.5zM214 346q-13 0 -25.5 -5.5t-22 -15t-15.5 -22t-6 -26.5q0 -30 20.5 -51.5t46.5 -21.5q29 0 55.5 21t46.5 50q-18 26 -44 48.5t-56 22.5zM542 346q-28 0 -53.5 -20t-50.5 -49
q25 -29 49.5 -51t53.5 -22q25 0 45.5 21.5t20.5 50.5t-19.5 49.5t-45.5 20.5z" />
    <glyph glyph-name="logicaland" unicode="&#x2227;" horiz-adv-x="556" 
d="M233 532h96l203 -532h-131l-119 326l-126 -326h-131z" />
    <glyph glyph-name="logicalor" unicode="&#x2228;" horiz-adv-x="556" 
d="M25 532h131l126 -327l119 327h131l-203 -532h-96z" />
    </font>
</defs>
</svg>
